{
.appVersion = "895";
DisplayStrings = (
jnopq
);
copyright = "Copyright (c) 2011, Sorkin Type Co (www.sorkintype.com) with Reserved Font Name \"Merriweather\"";
customParameters = (
{
name = description;
value = "Mercuriala is derived from Merriweather. Mercuriala is a medium contrast semi condesed typeface designed to be readable at very small sizes. Mercuriala is traditional in feeling despite a the modern shapes it has adopted for screens.";
},
{
name = license;
value = "Licenced under the SIL Open Font License, Version 1.1, available with a FAQ at: http://scripts.sil.org/OFL";
},
{
name = licenseURL;
value = "http://scripts.sil.org/OFL";
},
{
name = vendorID;
value = "STC";
},
{
name = panose;
value = (
2,
6,
5,
3,
5,
4,
6,
3,
7,
4
);
},
{
name = unicodeRanges;
value = (
0,
1,
2,
5,
7,
31,
60,
62
);
},
{
name = codePageRanges;
value = (
1252
);
},
{
name = glyphOrder;
value = (
.notdef,
uni0000,
uni0001,
uni0002,
uni0003,
uni0004,
uni0005,
uni0006,
uni0007,
uni0008,
uni0009,
uni000A,
uni000B,
uni000C,
uni000D,
uni000E,
uni000F,
uni0010,
uni0011,
uni0012,
uni0013,
uni0014,
uni0015,
uni0016,
uni0017,
uni0018,
uni0019,
uni001A,
uni001B,
uni001C,
uni001D,
uni001E,
uni001F,
space,
exclam,
quotedbl,
numbersign,
dollar,
percent,
ampersand,
quotesingle,
parenleft,
parenright,
asterisk,
plus,
comma,
hyphen,
period,
slash,
zero,
one,
two,
three,
four,
five,
six,
seven,
eight,
nine,
colon,
semicolon,
less,
equal,
greater,
question,
at,
A,
B,
C,
D,
E,
F,
G,
H,
I,
J,
K,
L,
M,
N,
O,
P,
Q,
R,
S,
T,
U,
V,
W,
X,
Y,
Z,
bracketleft,
backslash,
bracketright,
asciicircum,
underscore,
grave,
a,
b,
c,
d,
e,
f,
g,
h,
i,
j,
k,
l,
m,
n,
o,
p,
q,
r,
s,
t,
u,
v,
w,
x,
y,
z,
braceleft,
bar,
braceright,
asciitilde,
uni007F,
nbspace,
exclamdown,
cent,
sterling,
currency,
yen,
brokenbar,
section,
dieresis,
copyright,
ordfeminine,
guillemotleft,
logicalnot,
registered,
macron,
degree,
plusminus,
twosuperior,
threesuperior,
acute,
mu,
paragraph,
periodcentered,
cedilla,
onesuperior,

glyphs = (
{
glyphname = .notdef;
lastChange = "2016-06-11 22:37:54 +0000";
layers = (
{
layerId = "70CB0793-CC2E-4F1A-A11D-52AA668529D4";
paths = (
{
closed = 1;
nodes = (
"86 0 LINE",
"778 0 LINE",
"778 691 LINE",
"86 691 LINE"
);
},
{
closed = 1;
nodes = (
"273 123 LINE",
"215 189 LINE",
"382 344 LINE",
"214 509 LINE",
"270 566 LINE",
"433 394 LINE",
"593 565 LINE",
"651 509 LINE",
"481 346 LINE",
"651 178 LINE",
"596 123 LINE",
"431 295 LINE"
);
}
);
width = 864;
}
);
note = .notdef;
},
{
glyphname = exclam;
lastChange = "2016-06-11 22:37:54 +0000";
layers = (
{
layerId = "70CB0793-CC2E-4F1A-A11D-52AA668529D4";
paths = (
{
closed = 1;
nodes = (
"137 239 LINE",
"194 239 LINE",
"230 869 LINE",
"105 869 LINE"
);
},
{
closed = 1;
nodes = (
"204 -11 OFFCURVE",
"240 17 OFFCURVE",
"240 60 CURVE SMOOTH",
"240 93 OFFCURVE",
"221 121 OFFCURVE",
"178 121 CURVE SMOOTH",
"143 121 OFFCURVE",
"105 90 OFFCURVE",
"105 49 CURVE SMOOTH",
"105 11 OFFCURVE",
"135 -11 OFFCURVE",
"167 -11 CURVE SMOOTH"
);
}
);
width = 344;
}
);
note = exclam;
unicode = 0021;
},
{
glyphname = quotedbl;
lastChange = "2016-06-11 22:37:54 +0000";
layers = (
{
layerId = "70CB0793-CC2E-4F1A-A11D-52AA668529D4";
paths = (
{
closed = 1;
nodes = (
"169 472 LINE",
"231 472 LINE",
"255 870 LINE",
"145 870 LINE"
);
},
{
closed = 1;
nodes = (
"384 472 LINE",
"446 472 LINE",
"470 870 LINE",
"360 870 LINE"
);
}
);
width = 615;
}
);
note = quotedbl;
unicode = 0022;
},
{
glyphname = numbersign;
lastChange = "2016-06-11 22:37:54 +0000";
layers = (
{
layerId = "70CB0793-CC2E-4F1A-A11D-52AA668529D4";
paths = (
{
closed = 1;
nodes = (
"167 0 LINE",
"247 0 LINE",
"262 178 LINE",
"416 178 LINE",
"404 0 LINE",
"482 0 LINE",
"497 178 LINE",
"609 178 LINE",
"609 199 OFFCURVE",
"608 220 OFFCURVE",
"608 241 CURVE",
"500 241 LINE",
"516 438 LINE",
"625 438 LINE",
"625 500 LINE",
"520 500 LINE",
"532 662 LINE",
"451 662 LINE",
"438 500 LINE",
"285 500 LINE",
"297 662 LINE",
"216 662 LINE",
"203 500 LINE",
"84 500 LINE",
"84 438 LINE",
"200 438 LINE",
"184 241 LINE",
"73 241 LINE",
"73 178 LINE",
"181 178 LINE"
);
},
{
closed = 1;
nodes = (
"265 241 LINE",
"281 438 LINE",
"435 438 LINE",
"418 241 LINE"
);
}
);
width = 698;
}
);
note = numbersign;
unicode = 0023;
},
{
glyphname = dollar;
lastChange = "2016-06-11 22:37:54 +0000";
layers = (
{
layerId = "70CB0793-CC2E-4F1A-A11D-52AA668529D4";
paths = (
{
closed = 1;
nodes = (
"285 743 LINE",
"361 743 LINE",
"365 845 LINE",
"288 845 LINE"
);
},
{
closed = 1;
nodes = (
"252 -113 LINE",
"329 -113 LINE",
"333 -4 LINE",
"256 -4 LINE"
);
},
{
closed = 1;
nodes = (
"442 -11 OFFCURVE",
"560 48 OFFCURVE",
"560 194 CURVE SMOOTH",
"560 308 OFFCURVE",
"446 369 OFFCURVE",
"342 425 CURVE SMOOTH",
"257 471 OFFCURVE",
"178 518 OFFCURVE",
"178 593 CURVE SMOOTH",
"178 688 OFFCURVE",
"264 717 OFFCURVE",
"317 717 CURVE SMOOTH",
"364 717 OFFCURVE",
"411 707 OFFCURVE",
"434 686 CURVE",
"472 592 LINE",
"514 592 LINE",
"514 728 LINE",
"485 745 OFFCURVE",
"421 765 OFFCURVE",
"325 765 CURVE SMOOTH",
"228 765 OFFCURVE",
"90 714 OFFCURVE",
"90 577 CURVE SMOOTH",
"90 468 OFFCURVE",
"192 407 OFFCURVE",
"291 352 CURVE SMOOTH",
"383 301 OFFCURVE",
"470 250 OFFCURVE",
"470 167 CURVE SMOOTH",
"470 76 OFFCURVE",
"392 38 OFFCURVE",
"321 38 CURVE SMOOTH",
"263 38 OFFCURVE",
"198 49 OFFCURVE",
"159 90 CURVE",
"128 187 LINE",
"85 187 LINE",
"85 30 LINE",
"113 13 OFFCURVE",
"211 -11 OFFCURVE",
"308 -11 CURVE SMOOTH"
);
}
);
width = 620;
}
);
note = dollar;
unicode = 0024;
},
{
glyphname = percent;
lastChange = "2016-06-11 22:37:54 +0000";
layers = (
{
layerId = "70CB0793-CC2E-4F1A-A11D-52AA668529D4";
paths = (
{
closed = 1;
nodes = (
"615 130 OFFCURVE",
"587 186 OFFCURVE",
"587 260 CURVE SMOOTH",
"587 339 OFFCURVE",
"615 389 OFFCURVE",
"665 389 CURVE SMOOTH",
"713 389 OFFCURVE",
"741 336 OFFCURVE",
"741 257 CURVE SMOOTH",
"741 178 OFFCURVE",
"713 130 OFFCURVE",
"663 130 CURVE SMOOTH"
);
},
{
closed = 1;
nodes = (
"277 340 OFFCURVE",
"354 403 OFFCURVE",
"354 519 CURVE SMOOTH",
"354 618 OFFCURVE",
"310 700 OFFCURVE",
"207 697 CURVE SMOOTH",
"122 694 OFFCURVE",
"45 631 OFFCURVE",
"45 514 CURVE SMOOTH",
"45 419 OFFCURVE",
"101 336 OFFCURVE",
"193 338 CURVE SMOOTH"
);
},
{
closed = 1;
nodes = (
"151 388 OFFCURVE",
"124 444 OFFCURVE",
"124 518 CURVE SMOOTH",
"124 597 OFFCURVE",
"151 647 OFFCURVE",
"201 647 CURVE SMOOTH",
"249 647 OFFCURVE",
"277 594 OFFCURVE",
"277 515 CURVE SMOOTH",
"277 436 OFFCURVE",
"249 388 OFFCURVE",
"199 388 CURVE SMOOTH"
);
},
{
closed = 1;
nodes = (
"741 82 OFFCURVE",
"818 145 OFFCURVE",
"818 261 CURVE SMOOTH",
"818 360 OFFCURVE",
"774 442 OFFCURVE",
"671 439 CURVE SMOOTH",
"586 436 OFFCURVE",
"509 373 OFFCURVE",
"509 256 CURVE SMOOTH",
"509 161 OFFCURVE",
"565 78 OFFCURVE",
"657 80 CURVE SMOOTH"
);
},
{
closed = 1;
nodes = (
"335 0 LINE",
"602 782 LINE",
"524 782 LINE",
"258 0 LINE"
);
}
);
width = 864;
}
);
note = percent;
unicode = 0025;
},
{
glyphname = ampersand;
lastChange = "2016-06-11 22:37:54 +0000";
layers = (
{
layerId = "70CB0793-CC2E-4F1A-A11D-52AA668529D4";
paths = (
{
closed = 1;
nodes = (
"435 -16 OFFCURVE",
"526 10 OFFCURVE",
"571 63 CURVE",
"578 69 OFFCURVE",
"589 76 OFFCURVE",
"595 82 CURVE SMOOTH",
"644 133 OFFCURVE",
"657 209 OFFCURVE",
"657 265 CURVE SMOOTH",
"657 305 OFFCURVE",
"650 336 OFFCURVE",
"643 360 CURVE",
"552 360 LINE",
"557 352 OFFCURVE",
"571 311 OFFCURVE",
"571 244 CURVE SMOOTH",
"571 213 OFFCURVE",
"572 163 OFFCURVE",
"547 125 CURVE",
"523 98 LINE",
"492 53 OFFCURVE",
"436 42 OFFCURVE",
"369 42 CURVE SMOOTH",
"266 42 OFFCURVE",
"180 96 OFFCURVE",
"180 192 CURVE SMOOTH",
"180 271 OFFCURVE",
"217 303 OFFCURVE",
"292 350 CURVE",
"333 367 LINE",
"410 412 OFFCURVE",
"514 493 OFFCURVE",
"514 601 CURVE SMOOTH",
"514 685 OFFCURVE",
"465 764 OFFCURVE",
"348 764 CURVE SMOOTH",
"244 764 OFFCURVE",
"161 696 OFFCURVE",
"161 576 CURVE SMOOTH",
"161 487 OFFCURVE",
"226 411 OFFCURVE",
"269 347 CURVE SMOOTH",
"317 276 OFFCURVE",
"442 135 OFFCURVE",
"513 76 CURVE SMOOTH",
"562 35 OFFCURVE",
"610 12 OFFCURVE",
"652 5 CURVE SMOOTH",
"677 1 OFFCURVE",
"701 2 OFFCURVE",
"722 8 CURVE",
"722 49 LINE",
"672 57 OFFCURVE",
"619 92 OFFCURVE",
"561 146 CURVE SMOOTH",
"505 199 OFFCURVE",
"382 344 OFFCURVE",
"344 395 CURVE SMOOTH",
"319 429 OFFCURVE",
"243 495 OFFCURVE",
"243 608 CURVE SMOOTH",
"243 690 OFFCURVE",
"298 715 OFFCURVE",
"337 715 CURVE SMOOTH",
"416 715 OFFCURVE",
"434 636 OFFCURVE",
"434 586 CURVE SMOOTH",
"434 496 OFFCURVE",
"376 440 OFFCURVE",
"300 407 CURVE",
"286 397 OFFCURVE",
"273 394 OFFCURVE",
"259 385 CURVE",
"161 335 OFFCURVE",
"91 277 OFFCURVE",
"91 180 CURVE SMOOTH",
"91 18 OFFCURVE",
"261 -16 OFFCURVE",
"364 -16 CURVE SMOOTH"
);
}
);
width = 766;
}
);
note = ampersand;
unicode = 0026;
},
{
glyphname = quotesingle;
lastChange = "2016-06-11 22:37:54 +0000";
layers = (
{
layerId = "70CB0793-CC2E-4F1A-A11D-52AA668529D4";
paths = (
{
closed = 1;
nodes = (
"169 472 LINE",
"231 472 LINE",
"255 870 LINE",
"145 870 LINE"
);
}
);
width = 400;
}
);
note = quotesingle;
unicode = 0027;
},
{
glyphname = parenleft;
lastChange = "2016-06-11 22:37:54 +0000";
layers = (
{
layerId = "70CB0793-CC2E-4F1A-A11D-52AA668529D4";
paths = (
{
closed = 1;
nodes = (
"341 -126 LINE",
"293 -91 OFFCURVE",
"137 87 OFFCURVE",
"146 378 CURVE SMOOTH",
"154 641 OFFCURVE",
"293 796 OFFCURVE",
"334 823 CURVE",
"292 849 LINE",
"247 824 OFFCURVE",
"56 638 OFFCURVE",
"56 354 CURVE SMOOTH",
"56 29 OFFCURVE",
"247 -129 OFFCURVE",
"292 -156 CURVE"
);
}
);
width = 396;
}
);
note = parenleft;
unicode = 0028;
},
{
glyphname = parenright;
lastChange = "2016-06-11 22:37:54 +0000";
layers = (
{
layerId = "70CB0793-CC2E-4F1A-A11D-52AA668529D4";
paths = (
{
closed = 1;
nodes = (
"56 824 LINE",
"104 789 OFFCURVE",
"260 611 OFFCURVE",
"251 320 CURVE SMOOTH",
"243 57 OFFCURVE",
"103 -98 OFFCURVE",
"62 -125 CURVE",
"105 -151 LINE",
"150 -126 OFFCURVE",
"341 60 OFFCURVE",
"341 344 CURVE SMOOTH",
"341 669 OFFCURVE",
"150 827 OFFCURVE",
"105 854 CURVE"
);
}
);
width = 396;
}
);
note = parenright;
unicode = 0029;
},
{
glyphname = asterisk;
lastChange = "2016-06-11 22:37:54 +0000";
layers = (
{
layerId = "70CB0793-CC2E-4F1A-A11D-52AA668529D4";
paths = (
{
closed = 1;
nodes = (
"269 375 LINE",
"358 375 LINE",
"341 550 LINE",
"328 601 LINE",
"362 567 LINE",
"503 454 LINE",
"559 521 LINE",
"388 608 LINE",
"339 624 LINE",
"388 642 LINE",
"559 723 LINE",
"504 793 LINE",
"369 688 LINE",
"327 648 LINE",
"343 704 LINE",
"358 872 LINE",
"269 872 LINE",
"285 704 LINE",
"298 648 LINE",
"265 682 LINE",
"121 794 LINE",
"73 724 LINE",
"242 639 LINE",
"286 624 LINE",
"241 609 LINE",
"74 521 LINE",
"123 453 LINE",
"267 566 LINE",
"298 601 LINE",
"285 550 LINE"
);
}
);
width = 632;
}
);
note = asterisk;
unicode = 002A;
},
{
glyphname = plus;
lastChange = "2016-06-11 22:37:54 +0000";
layers = (
{
layerId = "70CB0793-CC2E-4F1A-A11D-52AA668529D4";
paths = (
{
closed = 1;
nodes = (
"272 157 LINE",
"348 157 LINE",
"348 274 LINE",
"343 355 LINE",
"410 352 LINE",
"533 352 LINE",
"533 427 LINE",
"410 427 LINE",
"343 421 LINE",
"348 504 LINE",
"348 615 LINE",
"272 615 LINE",
"272 504 LINE",
"275 421 LINE",
"194 427 LINE",
"87 427 LINE",
"87 352 LINE",
"194 352 LINE",
"275 355 LINE",
"272 274 LINE"
);
}
);
width = 619;
}
);
note = plus;
unicode = 002B;
},
{
glyphname = comma;
lastChange = "2016-06-11 22:37:54 +0000";
layers = (
{
layerId = "70CB0793-CC2E-4F1A-A11D-52AA668529D4";
paths = (
{
closed = 1;
nodes = (
"101 -243 LINE",
"177 -212 OFFCURVE",
"256 -132 OFFCURVE",
"256 -21 CURVE SMOOTH",
"256 32 OFFCURVE",
"227 116 OFFCURVE",
"150 136 CURVE",
"96 65 LINE",
"96 43 LINE",
"134 39 OFFCURVE",
"166 -10 OFFCURVE",
"166 -59 CURVE SMOOTH",
"166 -121 OFFCURVE",
"125 -185 OFFCURVE",
"78 -201 CURVE",
"78 -214 LINE"
);
}
);
width = 334;
}
);
note = comma;
unicode = 002C;
},
{
glyphname = hyphen;
lastChange = "2016-06-11 22:37:54 +0000";
layers = (
{
layerId = "70CB0793-CC2E-4F1A-A11D-52AA668529D4";
paths = (
{
closed = 1;
nodes = (
"87 355 LINE",
"519 355 LINE",
"519 427 LINE",
"87 427 LINE"
);
}
);
width = 605;
}
);
note = hyphen;
unicode = 002D;
},
{
glyphname = period;
lastChange = "2016-06-11 22:37:54 +0000";
layers = (
{
layerId = "70CB0793-CC2E-4F1A-A11D-52AA668529D4";
paths = (
{
closed = 1;
nodes = (
"204 -11 OFFCURVE",
"240 17 OFFCURVE",
"240 60 CURVE SMOOTH",
"240 93 OFFCURVE",
"221 121 OFFCURVE",
"178 121 CURVE SMOOTH",
"143 121 OFFCURVE",
"105 90 OFFCURVE",
"105 49 CURVE SMOOTH",
"105 11 OFFCURVE",
"135 -11 OFFCURVE",
"167 -11 CURVE SMOOTH"
);
}
);
width = 344;
}
);
note = period;
unicode = 002E;
},
{
glyphname = slash;
lastChange = "2016-06-11 22:37:54 +0000";
layers = (
{
layerId = "70CB0793-CC2E-4F1A-A11D-52AA668529D4";
paths = (
{
closed = 1;
nodes = (
"15 -177 LINE",
"104 -177 LINE",
"384 781 LINE",
"294 781 LINE"
);
}
);
width = 398;
}
);
note = slash;
unicode = 002F;
},
{
glyphname = zero;
lastChange = "2016-06-11 22:37:54 +0000";
layers = (
{
layerId = "70CB0793-CC2E-4F1A-A11D-52AA668529D4";
paths = (
{
closed = 1;
nodes = (
"466 -14 OFFCURVE",
"583 116 OFFCURVE",
"584 304 CURVE SMOOTH",
"585 476 OFFCURVE",
"523 613 OFFCURVE",
"333 611 CURVE SMOOTH",
"193 610 OFFCURVE",
"66 498 OFFCURVE",
"64 309 CURVE SMOOTH",
"62 142 OFFCURVE",
"134 -14 OFFCURVE",
"320 -14 CURVE SMOOTH"
);
},
{
closed = 1;
nodes = (
"214 40 OFFCURVE",
"164 174 OFFCURVE",
"164 313 CURVE SMOOTH",
"164 468 OFFCURVE",
"209 562 OFFCURVE",
"326 560 CURVE SMOOTH",
"436 558 OFFCURVE",
"484 446 OFFCURVE",
"484 300 CURVE SMOOTH",
"484 135 OFFCURVE",
"441 36 OFFCURVE",
"324 38 CURVE SMOOTH"
);
}
);
width = 647;
}
);
note = zero;
unicode = 0030;
},
{
glyphname = one;
lastChange = "2016-06-11 22:37:54 +0000";
layers = (
{
layerId = "70CB0793-CC2E-4F1A-A11D-52AA668529D4";
paths = (
{
closed = 1;
nodes = (
"57 0 LINE",
"424 0 LINE",
"424 42 LINE",
"276 56 LINE",
"293 34 LINE",
"294 610 LINE",
"269 617 LINE",
"246 598 OFFCURVE",
"115 539 OFFCURVE",
"56 522 CURVE",
"66 474 LINE",
"110 483 OFFCURVE",
"155 491 OFFCURVE",
"199 500 CURVE",
"199 36 LINE",
"219 57 LINE",
"57 42 LINE"
);
}
);
width = 455;
}
);
note = one;
unicode = 0031;
},
{
glyphname = two;
lastChange = "2016-06-11 22:37:54 +0000";
layers = (
{
layerId = "70CB0793-CC2E-4F1A-A11D-52AA668529D4";
paths = (
{
closed = 1;
nodes = (
"78 0 LINE",
"519 0 LINE",
"551 134 LINE",
"509 148 LINE",
"462 79 LINE",
"122 54 LINE",
"131 29 LINE",
"328 132 OFFCURVE",
"486 300 OFFCURVE",
"486 448 CURVE SMOOTH",
"486 532 OFFCURVE",
"427 617 OFFCURVE",
"292 617 CURVE SMOOTH",
"195 617 OFFCURVE",
"102 564 OFFCURVE",
"66 518 CURVE",
"89 480 LINE",
"121 508 OFFCURVE",
"193 552 OFFCURVE",
"259 552 CURVE SMOOTH",
"354 552 OFFCURVE",
"388 478 OFFCURVE",
"388 416 CURVE SMOOTH",
"388 291 OFFCURVE",
"234 146 OFFCURVE",
"64 39 CURVE"
);
}
);
width = 596;
}
);
note = two;
unicode = 0032;
},
{
glyphname = three;
lastChange = "2016-06-11 22:37:54 +0000";
layers = (
{
layerId = "70CB0793-CC2E-4F1A-A11D-52AA668529D4";
paths = (
{
closed = 1;
nodes = (
"61 -155 LINE",
"304 -196 OFFCURVE",
"471 -46 OFFCURVE",
"471 104 CURVE SMOOTH",
"471 196 OFFCURVE",
"404 273 OFFCURVE",
"265 268 CURVE",
"347 293 OFFCURVE",
"429 381 OFFCURVE",
"429 460 CURVE SMOOTH",
"429 575 OFFCURVE",
"336 620 OFFCURVE",
"244 620 CURVE SMOOTH",
"138 620 OFFCURVE",
"62 573 OFFCURVE",
"32 542 CURVE",
"58 499 LINE",
"95 527 OFFCURVE",
"138 554 OFFCURVE",
"212 554 CURVE SMOOTH",
"275 554 OFFCURVE",
"330 521 OFFCURVE",
"329 431 CURVE SMOOTH",
"328 357 OFFCURVE",
"235 302 OFFCURVE",
"127 281 CURVE",
"127 216 LINE",
"202 232 LINE",
"329 232 OFFCURVE",
"370 178 OFFCURVE",
"370 85 CURVE SMOOTH",
"370 -36 OFFCURVE",
"228 -132 OFFCURVE",
"61 -102 CURVE"
);
}
);
width = 524;
}
);
note = three;
unicode = 0033;
},
{
glyphname = four;
lastChange = "2016-06-11 22:37:54 +0000";
layers = (
{
layerId = "70CB0793-CC2E-4F1A-A11D-52AA668529D4";
paths = (
{
closed = 1;
nodes = (
"52 0 LINE",
"565 0 LINE",
"565 83 LINE",
"120 56 LINE",
"155 107 LINE",
"431 579 LINE",
"374 622 LINE",
"343 622 LINE",
"241 399 OFFCURVE",
"139 231 OFFCURVE",
"37 46 CURVE"
);
},
{
closed = 1;
nodes = (
"374 -184 LINE",
"462 -184 LINE",
"462 324 LINE",
"376 300 LINE"
);
}
);
width = 611;
}
);
note = four;
unicode = 0034;
},
{
glyphname = five;
lastChange = "2016-06-11 22:37:54 +0000";
layers = (
{
layerId = "70CB0793-CC2E-4F1A-A11D-52AA668529D4";
paths = (
{
closed = 1;
nodes = (
"318 -171 OFFCURVE",
"468 -11 OFFCURVE",
"468 126 CURVE SMOOTH",
"468 325 OFFCURVE",
"280 384 OFFCURVE",
"136 315 CURVE",
"172 523 LINE",
"405 523 LINE",
"429 613 LINE",
"374 613 LINE",
"360 604 LINE",
"101 604 LINE",
"62 276 LINE",
"80 262 LINE",
"231 313 OFFCURVE",
"368 288 OFFCURVE",
"368 115 CURVE SMOOTH",
"368 -29 OFFCURVE",
"208 -137 OFFCURVE",
"67 -120 CURVE",
"66 -165 LINE",
"83 -170 OFFCURVE",
"101 -171 OFFCURVE",
"117 -171 CURVE SMOOTH"
);
}
);
width = 526;
}
);
note = five;
unicode = 0035;
},
{
glyphname = six;
lastChange = "2016-06-11 22:37:54 +0000";
layers = (
{
layerId = "70CB0793-CC2E-4F1A-A11D-52AA668529D4";
paths = (
{
closed = 1;
nodes = (
"468 -10 OFFCURVE",
"558 134 OFFCURVE",
"558 259 CURVE SMOOTH",
"558 362 OFFCURVE",
"497 473 OFFCURVE",
"372 473 CURVE SMOOTH",
"310 473 OFFCURVE",
"243 442 OFFCURVE",
"227 418 CURVE",
"249 380 LINE",
"270 396 OFFCURVE",
"293 409 OFFCURVE",
"347 409 CURVE SMOOTH",
"416 409 OFFCURVE",
"467 343 OFFCURVE",
"467 219 CURVE SMOOTH",
"467 137 OFFCURVE",
"424 41 OFFCURVE",
"325 41 CURVE SMOOTH",
"188 41 OFFCURVE",
"158 181 OFFCURVE",
"163 326 CURVE SMOOTH",
"169 474 OFFCURVE",
"290 640 OFFCURVE",
"502 708 CURVE",
"482 749 LINE",
"285 712 OFFCURVE",
"62 526 OFFCURVE",
"62 275 CURVE SMOOTH",
"62 122 OFFCURVE",
"154 -10 OFFCURVE",
"309 -10 CURVE SMOOTH"
);
}
);
width = 610;
}
);
note = six;
unicode = 0036;
},
{
glyphname = seven;
lastChange = "2016-06-11 22:37:54 +0000";
layers = (
{
layerId = "70CB0793-CC2E-4F1A-A11D-52AA668529D4";
paths = (
{
closed = 1;
nodes = (
"276 -154 LINE",
"547 593 LINE",
"530 612 LINE",
"94 612 LINE",
"70 453 LINE",
"119 448 LINE",
"165 535 LINE",
"467 546 LINE",
"371 314 OFFCURVE",
"282 91 OFFCURVE",
"178 -120 CURVE"
);
}
);
width = 603;
}
);
note = seven;
unicode = 0037;
},
{
glyphname = eight;
lastChange = "2016-06-11 22:37:54 +0000";
layers = (
{
layerId = "70CB0793-CC2E-4F1A-A11D-52AA668529D4";
paths = (
{
closed = 1;
nodes = (
"427 -14 OFFCURVE",
"554 51 OFFCURVE",
"552 197 CURVE SMOOTH",
"550 368 OFFCURVE",
"178 429 OFFCURVE",
"178 585 CURVE SMOOTH",
"178 662 OFFCURVE",
"247 711 OFFCURVE",
"315 711 CURVE SMOOTH",
"387 711 OFFCURVE",
"444 650 OFFCURVE",
"440 558 CURVE SMOOTH",
"438 499 OFFCURVE",
"388 429 OFFCURVE",
"332 415 CURVE",
"385 384 LINE",
"467 426 OFFCURVE",
"520 516 OFFCURVE",
"520 589 CURVE SMOOTH",
"520 691 OFFCURVE",
"432 758 OFFCURVE",
"320 758 CURVE SMOOTH",
"212 758 OFFCURVE",
"101 698 OFFCURVE",
"101 569 CURVE SMOOTH",
"101 340 OFFCURVE",
"467 326 OFFCURVE",
"467 163 CURVE SMOOTH",
"467 86 OFFCURVE",
"392 36 OFFCURVE",
"324 36 CURVE SMOOTH",
"216 36 OFFCURVE",
"153 113 OFFCURVE",
"153 205 CURVE SMOOTH",
"153 276 OFFCURVE",
"212 334 OFFCURVE",
"275 359 CURVE",
"232 391 LINE",
"119 340 OFFCURVE",
"63 259 OFFCURVE",
"63 182 CURVE SMOOTH",
"63 46 OFFCURVE",
"195 -14 OFFCURVE",
"309 -14 CURVE SMOOTH"
);
}
);
width = 605;
}
);
note = eight;
unicode = 0038;
},
{
glyphname = nine;
lastChange = "2016-06-11 22:37:54 +0000";
layers = (
{
layerId = "70CB0793-CC2E-4F1A-A11D-52AA668529D4";
paths = (
{
closed = 1;
nodes = (
"134 -198 LINE",
"331 -161 OFFCURVE",
"547 61 OFFCURVE",
"547 327 CURVE SMOOTH",
"547 479 OFFCURVE",
"464 612 OFFCURVE",
"309 612 CURVE SMOOTH",
"150 612 OFFCURVE",
"60 468 OFFCURVE",
"60 343 CURVE SMOOTH",
"60 240 OFFCURVE",
"121 129 OFFCURVE",
"246 129 CURVE SMOOTH",
"308 129 OFFCURVE",
"366 156 OFFCURVE",
"391 184 CURVE",
"369 222 LINE",
"352 208 OFFCURVE",
"313 193 OFFCURVE",
"271 193 CURVE SMOOTH",
"202 193 OFFCURVE",
"150 259 OFFCURVE",
"150 383 CURVE SMOOTH",
"150 465 OFFCURVE",
"193 562 OFFCURVE",
"292 562 CURVE SMOOTH",
"429 562 OFFCURVE",
"452 421 OFFCURVE",
"447 276 CURVE SMOOTH",
"441 118 OFFCURVE",
"328 -88 OFFCURVE",
"116 -156 CURVE"
);
}
);
width = 615;
}
);
note = nine;
unicode = 0039;
},
{
glyphname = colon;
lastChange = "2016-06-11 22:37:54 +0000";
layers = (
{
layerId = "70CB0793-CC2E-4F1A-A11D-52AA668529D4";
paths = (
{
closed = 1;
nodes = (
"204 385 OFFCURVE",
"240 413 OFFCURVE",
"240 456 CURVE SMOOTH",
"240 489 OFFCURVE",
"221 516 OFFCURVE",
"178 516 CURVE SMOOTH",
"143 516 OFFCURVE",
"105 486 OFFCURVE",
"105 445 CURVE SMOOTH",
"105 407 OFFCURVE",
"135 385 OFFCURVE",
"167 385 CURVE SMOOTH"
);
},
{
closed = 1;
nodes = (
"204 -11 OFFCURVE",
"240 17 OFFCURVE",
"240 60 CURVE SMOOTH",
"240 93 OFFCURVE",
"221 121 OFFCURVE",
"178 121 CURVE SMOOTH",
"143 121 OFFCURVE",
"105 90 OFFCURVE",
"105 49 CURVE SMOOTH",
"105 11 OFFCURVE",
"135 -11 OFFCURVE",
"167 -11 CURVE SMOOTH"
);
}
);
width = 344;
}
);
note = colon;
unicode = 003A;
},
{
glyphname = semicolon;
lastChange = "2016-06-11 22:37:54 +0000";
layers = (
{
layerId = "70CB0793-CC2E-4F1A-A11D-52AA668529D4";
paths = (
{
closed = 1;
nodes = (
"120 -243 LINE",
"196 -212 OFFCURVE",
"275 -132 OFFCURVE",
"275 -21 CURVE SMOOTH",
"275 32 OFFCURVE",
"246 116 OFFCURVE",
"169 136 CURVE",
"115 65 LINE",
"115 43 LINE",
"153 39 OFFCURVE",
"185 -10 OFFCURVE",
"185 -59 CURVE SMOOTH",
"185 -121 OFFCURVE",
"144 -185 OFFCURVE",
"97 -201 CURVE",
"97 -214 LINE"
);
},
{
closed = 1;
nodes = (
"204 385 OFFCURVE",
"240 413 OFFCURVE",
"240 456 CURVE SMOOTH",
"240 489 OFFCURVE",
"221 516 OFFCURVE",
"178 516 CURVE SMOOTH",
"143 516 OFFCURVE",
"105 486 OFFCURVE",
"105 445 CURVE SMOOTH",
"105 407 OFFCURVE",
"135 385 OFFCURVE",
"167 385 CURVE SMOOTH"
);
}
);
width = 344;
}
);
note = semicolon;
unicode = 003B;
},
{
glyphname = less;
lastChange = "2016-06-11 22:37:54 +0000";
layers = (
{
layerId = "70CB0793-CC2E-4F1A-A11D-52AA668529D4";
paths = (
{
closed = 1;
nodes = (
"536 93 LINE",
"536 183 LINE",
"125 376 LINE",
"125 357 LINE",
"536 552 LINE",
"536 641 LINE",
"62 399 LINE",
"62 334 LINE"
);
}
);
width = 646;
}
);
note = less;
unicode = 003C;
},
{
glyphname = equal;
lastChange = "2016-06-11 22:37:54 +0000";
layers = (
{
layerId = "70CB0793-CC2E-4F1A-A11D-52AA668529D4";
paths = (
{
closed = 1;
nodes = (
"87 256 LINE",
"519 256 LINE",
"519 328 LINE",
"87 328 LINE"
);
},
{
closed = 1;
nodes = (
"87 446 LINE",
"519 446 LINE",
"519 518 LINE",
"87 518 LINE"
);
}
);
width = 605;
}
);
note = equal;
unicode = 003D;
},
{
glyphname = greater;
lastChange = "2016-06-11 22:37:54 +0000";
layers = (
{
layerId = "70CB0793-CC2E-4F1A-A11D-52AA668529D4";
paths = (
{
closed = 1;
nodes = (
"111 93 LINE",
"584 334 LINE",
"584 400 LINE",
"111 641 LINE",
"111 551 LINE",
"521 357 LINE",
"521 376 LINE",
"111 182 LINE"
);
}
);
width = 646;
}
);
note = greater;
unicode = 003E;
},
{
glyphname = question;
lastChange = "2016-06-11 22:37:54 +0000";
layers = (
{
layerId = "70CB0793-CC2E-4F1A-A11D-52AA668529D4";
paths = (
{
closed = 1;
nodes = (
"282 239 LINE",
"260 299 OFFCURVE",
"227 357 OFFCURVE",
"235 410 CURVE",
"255 472 OFFCURVE",
"451 506 OFFCURVE",
"451 578 CURVE",
"469 705 OFFCURVE",
"400 896 OFFCURVE",
"156 896 CURVE SMOOTH",
"117 896 OFFCURVE",
"73 887 OFFCURVE",
"63 874 CURVE",
"63 799 LINE",
"81 807 OFFCURVE",
"119 810 OFFCURVE",
"144 810 CURVE SMOOTH",
"271 810 OFFCURVE",
"386 699 OFFCURVE",
"379 571 CURVE",
"364 524 OFFCURVE",
"138 487 OFFCURVE",
"141 405 CURVE",
"145 351 OFFCURVE",
"199 262 OFFCURVE",
"230 239 CURVE"
);
},
{
closed = 1;
nodes = (
"297 -11 OFFCURVE",
"333 17 OFFCURVE",
"333 60 CURVE SMOOTH",
"333 93 OFFCURVE",
"314 121 OFFCURVE",
"271 121 CURVE SMOOTH",
"236 121 OFFCURVE",
"198 90 OFFCURVE",
"198 49 CURVE SMOOTH",
"198 11 OFFCURVE",
"228 -11 OFFCURVE",
"260 -11 CURVE SMOOTH"
);
}
);
width = 494;
}
);
note = question;
unicode = 003F;
},
{
glyphname = at;
lastChange = "2016-06-11 22:37:54 +0000";
layers = (
{
layerId = "70CB0793-CC2E-4F1A-A11D-52AA668529D4";
paths = (
{
closed = 1;
nodes = (
"583 -185 OFFCURVE",
"682 -162 OFFCURVE",
"725 -128 CURVE",
"707 -86 LINE",
"675 -102 OFFCURVE",
"596 -118 OFFCURVE",
"538 -118 CURVE SMOOTH",
"349 -118 OFFCURVE",
"187 -27 OFFCURVE",
"187 235 CURVE SMOOTH",
"187 497 OFFCURVE",
"361 638 OFFCURVE",
"555 638 CURVE SMOOTH",
"707 638 OFFCURVE",
"860 567 OFFCURVE",
"860 359 CURVE SMOOTH",
"860 201 OFFCURVE",
"759 76 OFFCURVE",
"702 76 CURVE SMOOTH",
"687 76 OFFCURVE",
"679 125 OFFCURVE",
"687 194 CURVE SMOOTH",
"697 286 OFFCURVE",
"712 422 OFFCURVE",
"728 493 CURVE",
"707 500 OFFCURVE",
"688 506 OFFCURVE",
"670 512 CURVE",
"658 514 OFFCURVE",
"652 502 OFFCURVE",
"648 490 CURVE",
"614 508 OFFCURVE",
"556 515 OFFCURVE",
"523 515 CURVE SMOOTH",
"382 515 OFFCURVE",
"301 335 OFFCURVE",
"301 210 CURVE SMOOTH",
"301 86 OFFCURVE",
"365 12 OFFCURVE",
"425 12 CURVE SMOOTH",
"507 12 OFFCURVE",
"587 142 OFFCURVE",
"626 255 CURVE",
"624 255 OFFCURVE",
"623 256 OFFCURVE",
"621 256 CURVE",
"605 171 OFFCURVE",
"602 124 OFFCURVE",
"605 95 CURVE SMOOTH",
"610 39 OFFCURVE",
"634 19 OFFCURVE",
"664 19 CURVE SMOOTH",
"772 19 OFFCURVE",
"928 128 OFFCURVE",
"928 396 CURVE SMOOTH",
"928 587 OFFCURVE",
"781 702 OFFCURVE",
"594 702 CURVE SMOOTH",
"340 702 OFFCURVE",
"115 508 OFFCURVE",
"115 203 CURVE SMOOTH",
"115 -35 OFFCURVE",
"278 -185 OFFCURVE",
"500 -185 CURVE SMOOTH"
);
},
{
closed = 1;
nodes = (
"386 94 OFFCURVE",
"378 198 OFFCURVE",
"378 247 CURVE SMOOTH",
"378 351 OFFCURVE",
"417 443 OFFCURVE",
"525 443 CURVE SMOOTH",
"556 443 OFFCURVE",
"609 432 OFFCURVE",
"629 411 CURVE",
"615 300 OFFCURVE",
"511 94 OFFCURVE",
"446 94 CURVE SMOOTH"
);
}
);
width = 1041;
}
);
note = at;
unicode = 0040;
},
{
glyphname = A;
lastChange = "2016-06-11 22:37:54 +0000";
layers = (
{
layerId = "70CB0793-CC2E-4F1A-A11D-52AA668529D4";
paths = (
{
closed = 1;
nodes = (
"1 0 LINE",
"234 0 LINE",
"234 42 LINE",
"135 60 LINE",
"145 32 LINE",
"354 656 LINE",
"400 509 LINE",
"559 34 LINE",
"574 61 LINE",
"470 42 LINE",
"470 0 LINE",
"728 0 LINE",
"728 42 LINE",
"625 61 LINE",
"659 31 LINE",
"407 758 LINE",
"325 758 LINE",
"63 35 LINE",
"99 62 LINE",
"1 42 LINE"
);
},
{
closed = 1;
nodes = (
"169 213 LINE",
"553 213 LINE",
"532 271 LINE",
"190 271 LINE"
);
}
);
width = 729;
}
);
note = A;
unicode = 0041;
},
{
glyphname = B;
lastChange = "2016-06-11 22:37:54 +0000";
layers = (
{
layerId = "70CB0793-CC2E-4F1A-A11D-52AA668529D4";
paths = (
{
closed = 1;
nodes = (
"52 0 LINE",
"176 0 LINE",
"210 -2 OFFCURVE",
"275 -7 OFFCURVE",
"331 -7 CURVE SMOOTH",
"545 -7 OFFCURVE",
"647 91 OFFCURVE",
"647 223 CURVE SMOOTH",
"647 333 OFFCURVE",
"562 407 OFFCURVE",
"455 408 CURVE",
"553 430 OFFCURVE",
"598 505 OFFCURVE",
"598 594 CURVE SMOOTH",
"598 698 OFFCURVE",
"514 764 OFFCURVE",
"357 765 CURVE SMOOTH",
"278 765 OFFCURVE",
"220 759 OFFCURVE",
"177 758 CURVE SMOOTH",
"54 758 LINE",
"54 710 LINE",
"157 700 LINE",
"134 725 LINE",
"134 31 LINE",
"159 61 LINE",
"52 42 LINE"
);
},
{
closed = 1;
nodes = (
"230 706 LINE",
"252 715 OFFCURVE",
"313 713 OFFCURVE",
"337 713 CURVE SMOOTH",
"434 713 OFFCURVE",
"508 667 OFFCURVE",
"508 576 CURVE SMOOTH",
"508 477 OFFCURVE",
"446 426 OFFCURVE",
"347 426 CURVE SMOOTH",
"314 426 OFFCURVE",
"262 423 OFFCURVE",
"229 429 CURVE"
);
},
{
closed = 1;
nodes = (
"229 364 LINE",
"264 368 OFFCURVE",
"317 366 OFFCURVE",
"362 366 CURVE SMOOTH",
"485 366 OFFCURVE",
"546 317 OFFCURVE",
"546 204 CURVE SMOOTH",
"546 88 OFFCURVE",
"460 47 OFFCURVE",
"353 47 CURVE SMOOTH",
"311 47 OFFCURVE",
"246 55 OFFCURVE",
"229 66 CURVE"
);
}
);
width = 692;
}
);
note = B;
unicode = 0042;
},
{
glyphname = C;
lastChange = "2016-06-11 22:37:54 +0000";
layers = (
{
layerId = "70CB0793-CC2E-4F1A-A11D-52AA668529D4";
paths = (
{
closed = 1;
nodes = (
"531 -14 OFFCURVE",
"594 29 OFFCURVE",
"640 31 CURVE",
"640 171 LINE",
"598 171 LINE",
"570 96 LINE",
"541 59 OFFCURVE",
"493 38 OFFCURVE",
"414 38 CURVE SMOOTH",
"236 38 OFFCURVE",
"142 199 OFFCURVE",
"142 384 CURVE SMOOTH",
"142 592 OFFCURVE",
"266 708 OFFCURVE",
"405 708 CURVE SMOOTH",
"473 708 OFFCURVE",
"513 698 OFFCURVE",
"554 670 CURVE",
"580 589 LINE",
"631 589 LINE",
"639 730 LINE",
"597 739 OFFCURVE",
"530 765 OFFCURVE",
"436 765 CURVE SMOOTH",
"228 765 OFFCURVE",
"42 606 OFFCURVE",
"42 354 CURVE SMOOTH",
"42 137 OFFCURVE",
"189 -14 OFFCURVE",
"391 -14 CURVE SMOOTH"
);
}
);
width = 688;
}
);
note = C;
unicode = 0043;
},
{
glyphname = D;
lastChange = "2016-06-11 22:37:54 +0000";
layers = (
{
layerId = "70CB0793-CC2E-4F1A-A11D-52AA668529D4";
paths = (
{
closed = 1;
nodes = (
"52 0 LINE",
"184 0 LINE SMOOTH",
"248 0 OFFCURVE",
"300 -4 OFFCURVE",
"348 -5 CURVE SMOOTH",
"564 -10 OFFCURVE",
"734 143 OFFCURVE",
"734 399 CURVE SMOOTH",
"734 627 OFFCURVE",
"619 766 OFFCURVE",
"366 765 CURVE SMOOTH",
"304 765 OFFCURVE",
"269 758 OFFCURVE",
"182 758 CURVE SMOOTH",
"54 758 LINE",
"54 710 LINE",
"159 699 LINE",
"134 725 LINE",
"134 29 LINE",
"160 61 LINE",
"52 42 LINE"
);
},
{
closed = 1;
nodes = (
"229 701 LINE",
"259 706 OFFCURVE",
"282 709 OFFCURVE",
"336 710 CURVE SMOOTH",
"519 715 OFFCURVE",
"634 605 OFFCURVE",
"634 375 CURVE SMOOTH",
"634 154 OFFCURVE",
"508 53 OFFCURVE",
"365 49 CURVE SMOOTH",
"314 48 OFFCURVE",
"271 52 OFFCURVE",
"229 64 CURVE"
);
}
);
width = 777;
}
);
note = D;
unicode = 0044;
},
{
glyphname = E;
lastChange = "2016-06-11 22:37:54 +0000";
layers = (
{
layerId = "70CB0793-CC2E-4F1A-A11D-52AA668529D4";
paths = (
{
closed = 1;
nodes = (
"50 0 LINE",
"591 0 LINE",
"613 151 LINE",
"566 163 LINE",
"517 62 LINE",
"227 53 LINE",
"227 370 LINE",
"409 367 LINE",
"423 292 LINE",
"473 292 LINE",
"473 502 LINE",
"423 502 LINE",
"409 426 LINE",
"227 422 LINE",
"227 707 LINE",
"497 701 LINE",
"519 619 LINE",
"573 619 LINE",
"559 758 LINE",
"52 758 LINE",
"52 710 LINE",
"151 700 LINE",
"132 725 LINE",
"132 31 LINE",
"163 62 LINE",
"50 42 LINE"
);
}
);
width = 644;
}
);
note = E;
unicode = 0045;
},
{
glyphname = F;
lastChange = "2016-06-11 22:37:54 +0000";
layers = (
{
layerId = "70CB0793-CC2E-4F1A-A11D-52AA668529D4";
paths = (
{
closed = 1;
nodes = (
"51 0 LINE",
"370 0 LINE",
"370 46 LINE",
"205 58 LINE",
"229 31 LINE",
"229 361 LINE",
"444 357 LINE",
"457 284 LINE",
"511 284 LINE",
"511 489 LINE",
"463 489 LINE",
"444 418 LINE",
"229 414 LINE",
"229 705 LINE",
"516 698 LINE",
"539 618 LINE",
"587 619 LINE",
"578 758 LINE",
"54 758 LINE",
"54 710 LINE",
"160 700 LINE",
"134 723 LINE",
"134 31 LINE",
"163 61 LINE",
"51 42 LINE"
);
}
);
width = 604;
}
);
note = F;
unicode = 0046;
},
{
glyphname = G;
lastChange = "2016-06-11 22:37:54 +0000";
layers = (
{
layerId = "70CB0793-CC2E-4F1A-A11D-52AA668529D4";
paths = (
{
closed = 1;
nodes = (
"499 -14 OFFCURVE",
"618 38 OFFCURVE",
"661 40 CURVE",
"661 306 LINE",
"630 285 LINE",
"721 298 LINE",
"721 346 LINE",
"447 346 LINE",
"447 298 LINE",
"597 288 LINE",
"565 308 LINE",
"565 89 LINE",
"526 47 OFFCURVE",
"460 38 OFFCURVE",
"404 38 CURVE SMOOTH",
"226 38 OFFCURVE",
"142 207 OFFCURVE",
"142 384 CURVE SMOOTH",
"142 587 OFFCURVE",
"264 706 OFFCURVE",
"403 708 CURVE SMOOTH",
"507 709 OFFCURVE",
"562 687 OFFCURVE",
"573 674 CURVE",
"598 592 LINE",
"650 592 LINE",
"658 734 LINE",
"624 742 OFFCURVE",
"556 765 OFFCURVE",
"434 765 CURVE SMOOTH",
"221 765 OFFCURVE",
"42 606 OFFCURVE",
"42 354 CURVE SMOOTH",
"42 142 OFFCURVE",
"179 -14 OFFCURVE",
"381 -14 CURVE SMOOTH"
);
}
);
width = 750;
}
);
note = G;
unicode = 0047;
},
{
glyphname = H;
lastChange = "2016-06-11 22:37:54 +0000";
layers = (
{
layerId = "70CB0793-CC2E-4F1A-A11D-52AA668529D4";
paths = (
{
closed = 1;
nodes = (
"52 0 LINE",
"313 0 LINE",
"313 42 LINE",
"201 61 LINE",
"229 39 LINE",
"229 340 LINE",
"604 340 LINE",
"604 33 LINE",
"639 62 LINE",
"520 42 LINE",
"520 0 LINE",
"783 0 LINE",
"783 42 LINE",
"666 62 LINE",
"699 33 LINE",
"699 725 LINE",
"661 698 LINE",
"777 710 LINE",
"777 758 LINE",
"523 758 LINE",
"523 710 LINE",
"646 698 LINE",
"604 724 LINE",
"604 397 LINE",
"229 397 LINE",
"229 723 LINE",
"202 699 LINE",
"309 710 LINE",
"309 758 LINE",
"54 758 LINE",
"54 710 LINE",
"161 699 LINE",
"134 722 LINE",
"134 42 LINE",
"166 62 LINE",
"52 42 LINE"
);
}
);
width = 833;
}
);
note = H;
unicode = 0048;
},
{
glyphname = I;
lastChange = "2016-06-11 22:37:54 +0000";
layers = (
{
layerId = "70CB0793-CC2E-4F1A-A11D-52AA668529D4";
paths = (
{
closed = 1;
nodes = (
"51 0 LINE",
"323 0 LINE",
"323 42 LINE",
"210 60 LINE",
"234 30 LINE",
"234 724 LINE",
"216 700 LINE",
"318 710 LINE",
"318 758 LINE",
"53 758 LINE",
"53 710 LINE",
"160 700 LINE",
"139 724 LINE",
"139 28 LINE",
"166 61 LINE",
"51 42 LINE"
);
}
);
width = 372;
}
);
note = I;
unicode = 0049;
},
{
glyphname = J;
lastChange = "2016-06-11 22:37:54 +0000";
layers = (
{
layerId = "70CB0793-CC2E-4F1A-A11D-52AA668529D4";
paths = (
{
closed = 1;
nodes = (
"-17 -190 LINE",
"86 -174 OFFCURVE",
"199 -104 OFFCURVE",
"225 24 CURVE SMOOTH",
"238 91 OFFCURVE",
"234 177 OFFCURVE",
"234 269 CURVE SMOOTH",
"234 729 LINE",
"204 699 LINE",
"313 710 LINE",
"313 758 LINE",
"58 758 LINE",
"58 710 LINE",
"171 699 LINE",
"139 729 LINE",
"139 196 LINE SMOOTH",
"139 96 OFFCURVE",
"136 28 OFFCURVE",
"116 -29 CURVE",
"91 -91 OFFCURVE",
"31 -133 OFFCURVE",
"-42 -156 CURVE"
);
}
);
width = 351;
}
);
note = J;
unicode = 004A;
},
{
glyphname = K;
lastChange = "2016-06-11 22:37:54 +0000";
layers = (
{
layerId = "70CB0793-CC2E-4F1A-A11D-52AA668529D4";
paths = (
{
closed = 1;
nodes = (
"52 0 LINE",
"319 0 LINE",
"319 42 LINE",
"210 59 LINE",
"229 28 LINE",
"229 351 LINE",
"195 241 LINE",
"619 729 LINE",
"567 699 LINE",
"675 710 LINE",
"675 758 LINE",
"431 758 LINE",
"431 742 OFFCURVE",
"432 726 OFFCURVE",
"432 710 CURVE",
"523 700 LINE",
"530 729 LINE",
"229 365 LINE",
"229 729 LINE",
"203 699 LINE",
"309 710 LINE",
"309 758 LINE",
"54 758 LINE",
"54 710 LINE",
"158 700 LINE",
"134 729 LINE",
"134 34 LINE",
"155 60 LINE",
"52 42 LINE"
);
},
{
closed = 1;
nodes = (
"705 0 LINE",
"705 42 LINE",
"626 60 LINE",
"593 60 OFFCURVE",
"418 387 OFFCURVE",
"360 445 CURVE",
"322 423 LINE",
"297 386 LINE",
"361 348 OFFCURVE",
"517 0 OFFCURVE",
"554 0 CURVE SMOOTH"
);
}
);
width = 692;
}
);
note = K;
unicode = 004B;
},
{
glyphname = L;
lastChange = "2016-06-11 22:37:54 +0000";
layers = (
{
layerId = "70CB0793-CC2E-4F1A-A11D-52AA668529D4";
paths = (
{
closed = 1;
nodes = (
"52 0 LINE",
"561 0 LINE",
"593 162 LINE",
"550 183 LINE",
"490 66 LINE",
"191 53 LINE",
"229 25 LINE",
"230 729 LINE",
"205 694 LINE",
"316 705 LINE",
"316 758 LINE",
"54 758 LINE",
"54 705 LINE",
"162 694 LINE",
"134 729 LINE",
"134 26 LINE",
"167 62 LINE",
"52 42 LINE"
);
}
);
width = 607;
}
);
note = L;
unicode = 004C;
},
{
glyphname = M;
lastChange = "2016-06-11 22:37:54 +0000";
layers = (
{
layerId = "70CB0793-CC2E-4F1A-A11D-52AA668529D4";
paths = (
{
closed = 1;
nodes = (
"38 0 LINE",
"291 0 LINE",
"291 42 LINE",
"169 61 LINE",
"196 28 LINE",
"222 520 LINE",
"227 724 LINE",
"213 724 LINE",
"235 659 OFFCURVE",
"258 592 OFFCURVE",
"280 527 CURVE SMOOTH",
"467 -7 LINE",
"500 -7 LINE",
"706 602 LINE",
"737 729 LINE",
"724 729 LINE",
"730 513 LINE",
"773 21 LINE",
"791 60 LINE",
"690 42 LINE",
"690 0 LINE",
"944 0 LINE",
"944 42 LINE",
"842 60 LINE",
"863 22 LINE",
"805 697 LINE",
"896 705 LINE",
"896 758 LINE",
"689 758 LINE",
"521 228 LINE",
"481 97 LINE",
"517 97 LINE",
"476 226 LINE",
"300 758 LINE",
"75 758 LINE",
"75 705 LINE",
"170 697 LINE",
"120 27 LINE",
"146 60 LINE",
"38 42 LINE"
);
}
);
width = 965;
}
);
note = M;
unicode = 004D;
},
{
glyphname = N;
lastChange = "2016-06-11 22:37:54 +0000";
layers = (
{
layerId = "70CB0793-CC2E-4F1A-A11D-52AA668529D4";
paths = (
{
closed = 1;
nodes = (
"51 0 LINE",
"299 0 LINE",
"299 42 LINE",
"189 59 LINE",
"204 37 LINE",
"204 685 LINE",
"184 685 LINE",
"271 508 LINE",
"593 0 LINE",
"693 0 LINE",
"693 720 LINE",
"675 695 LINE",
"774 706 LINE",
"774 758 LINE",
"543 758 LINE",
"543 706 LINE",
"642 695 LINE",
"623 720 LINE",
"623 51 LINE",
"643 51 LINE",
"554 224 LINE",
"227 758 LINE",
"54 758 LINE",
"54 705 LINE",
"158 694 LINE",
"134 717 LINE",
"134 37 LINE",
"149 59 LINE",
"51 42 LINE"
);
}
);
width = 811;
}
);
note = N;
unicode = 004E;
},
{
glyphname = O;
lastChange = "2016-06-11 22:37:54 +0000";
layers = (
{
layerId = "70CB0793-CC2E-4F1A-A11D-52AA668529D4";
paths = (
{
closed = 1;
nodes = (
"562 -10 OFFCURVE",
"711 136 OFFCURVE",
"716 385 CURVE SMOOTH",
"720 606 OFFCURVE",
"594 770 OFFCURVE",
"391 765 CURVE SMOOTH",
"203 760 OFFCURVE",
"47 616 OFFCURVE",
"42 367 CURVE SMOOTH",
"38 146 OFFCURVE",
"170 -18 OFFCURVE",
"376 -14 CURVE SMOOTH"
);
},
{
closed = 1;
nodes = (
"234 38 OFFCURVE",
"148 198 OFFCURVE",
"148 368 CURVE SMOOTH",
"148 585 OFFCURVE",
"239 713 OFFCURVE",
"383 713 CURVE SMOOTH",
"532 713 OFFCURVE",
"611 554 OFFCURVE",
"611 384 CURVE SMOOTH",
"611 167 OFFCURVE",
"528 38 OFFCURVE",
"385 38 CURVE SMOOTH"
);
}
);
width = 758;
}
);
note = O;
unicode = 004F;
},
{
glyphname = P;
lastChange = "2016-06-11 22:37:54 +0000";
layers = (
{
layerId = "70CB0793-CC2E-4F1A-A11D-52AA668529D4";
paths = (
{
closed = 1;
nodes = (
"42 0 LINE",
"360 0 LINE",
"360 42 LINE",
"201 60 LINE",
"229 29 LINE",
"229 288 LINE",
"250 291 OFFCURVE",
"279 292 OFFCURVE",
"328 291 CURVE SMOOTH",
"471 288 OFFCURVE",
"611 380 OFFCURVE",
"611 539 CURVE SMOOTH",
"611 714 OFFCURVE",
"506 765 OFFCURVE",
"356 765 CURVE SMOOTH",
"291 765 OFFCURVE",
"214 758 OFFCURVE",
"182 758 CURVE SMOOTH",
"54 758 LINE",
"54 705 LINE",
"153 695 LINE",
"134 719 LINE",
"134 29 LINE",
"154 60 LINE",
"42 42 LINE"
);
},
{
closed = 1;
nodes = (
"229 701 LINE",
"258 708 OFFCURVE",
"287 710 OFFCURVE",
"319 711 CURVE SMOOTH",
"444 715 OFFCURVE",
"514 657 OFFCURVE",
"514 537 CURVE SMOOTH",
"514 371 OFFCURVE",
"421 340 OFFCURVE",
"327 340 CURVE SMOOTH",
"298 340 OFFCURVE",
"266 341 OFFCURVE",
"229 346 CURVE"
);
}
);
width = 632;
}
);
note = P;
unicode = 0050;
},
{
glyphname = Q;
lastChange = "2016-06-11 22:37:54 +0000";
layers = (
{
layerId = "70CB0793-CC2E-4F1A-A11D-52AA668529D4";
paths = (
{
closed = 1;
nodes = (
"658 -174 OFFCURVE",
"698 -157 OFFCURVE",
"711 -137 CURVE",
"703 -77 LINE",
"686 -88 OFFCURVE",
"659 -93 OFFCURVE",
"635 -93 CURVE SMOOTH",
"566 -93 OFFCURVE",
"464 -82 OFFCURVE",
"438 5 CURVE",
"405 26 LINE",
"386 -6 LINE",
"418 -141 OFFCURVE",
"508 -174 OFFCURVE",
"603 -174 CURVE SMOOTH"
);
},
{
closed = 1;
nodes = (
"562 -10 OFFCURVE",
"711 136 OFFCURVE",
"716 385 CURVE SMOOTH",
"720 606 OFFCURVE",
"594 770 OFFCURVE",
"391 765 CURVE SMOOTH",
"203 760 OFFCURVE",
"47 616 OFFCURVE",
"42 367 CURVE SMOOTH",
"38 146 OFFCURVE",
"170 -18 OFFCURVE",
"376 -14 CURVE SMOOTH"
);
},
{
closed = 1;
nodes = (
"234 38 OFFCURVE",
"148 198 OFFCURVE",
"148 368 CURVE SMOOTH",
"148 585 OFFCURVE",
"239 713 OFFCURVE",
"383 713 CURVE SMOOTH",
"532 713 OFFCURVE",
"611 554 OFFCURVE",
"611 384 CURVE SMOOTH",
"611 167 OFFCURVE",
"528 38 OFFCURVE",
"385 38 CURVE SMOOTH"
);
}
);
width = 758;
}
);
note = Q;
unicode = 0051;
},
{
glyphname = R;
lastChange = "2016-06-11 22:37:54 +0000";
layers = (
{
layerId = "70CB0793-CC2E-4F1A-A11D-52AA668529D4";
paths = (
{
closed = 1;
nodes = (
"700 0 LINE",
"700 42 LINE",
"647 56 LINE SMOOTH",
"597 70 OFFCURVE",
"524 298 OFFCURVE",
"432 344 CURVE SMOOTH",
"411 354 OFFCURVE",
"386 351 OFFCURVE",
"354 365 CURVE",
"308 329 LINE",
"422 341 OFFCURVE",
"510 0 OFFCURVE",
"559 0 CURVE SMOOTH"
);
},
{
closed = 1;
nodes = (
"42 0 LINE",
"331 0 LINE",
"331 42 LINE",
"201 60 LINE",
"229 29 LINE",
"229 328 LINE",
"304 328 OFFCURVE",
"353 330 OFFCURVE",
"389 338 CURVE SMOOTH",
"504 365 OFFCURVE",
"585 450 OFFCURVE",
"585 563 CURVE SMOOTH",
"585 721 OFFCURVE",
"479 765 OFFCURVE",
"329 765 CURVE SMOOTH",
"264 765 OFFCURVE",
"213 758 OFFCURVE",
"182 758 CURVE SMOOTH",
"54 758 LINE",
"54 705 LINE",
"153 695 LINE",
"134 719 LINE",
"134 29 LINE",
"154 60 LINE",
"42 42 LINE"
);
},
{
closed = 1;
nodes = (
"229 705 LINE",
"254 712 OFFCURVE",
"284 712 OFFCURVE",
"316 713 CURVE SMOOTH",
"446 718 OFFCURVE",
"486 653 OFFCURVE",
"486 552 CURVE SMOOTH",
"486 430 OFFCURVE",
"420 380 OFFCURVE",
"316 380 CURVE SMOOTH",
"295 380 OFFCURVE",
"245 381 OFFCURVE",
"229 383 CURVE"
);
}
);
width = 692;
}
);
note = R;
unicode = 0052;
},
{
glyphname = S;
lastChange = "2016-06-11 22:37:54 +0000";
layers = (
{
layerId = "70CB0793-CC2E-4F1A-A11D-52AA668529D4";
paths = (
{
closed = 1;
nodes = (
"432 -11 OFFCURVE",
"550 48 OFFCURVE",
"550 194 CURVE SMOOTH",
"550 308 OFFCURVE",
"436 369 OFFCURVE",
"332 425 CURVE SMOOTH",
"247 471 OFFCURVE",
"168 518 OFFCURVE",
"168 593 CURVE SMOOTH",
"168 688 OFFCURVE",
"255 717 OFFCURVE",
"308 717 CURVE SMOOTH",
"355 717 OFFCURVE",
"401 707 OFFCURVE",
"424 686 CURVE",
"462 592 LINE",
"504 592 LINE",
"504 728 LINE",
"475 745 OFFCURVE",
"411 765 OFFCURVE",
"315 765 CURVE SMOOTH",
"218 765 OFFCURVE",
"80 714 OFFCURVE",
"80 577 CURVE SMOOTH",
"80 468 OFFCURVE",
"182 407 OFFCURVE",
"281 352 CURVE SMOOTH",
"373 301 OFFCURVE",
"460 250 OFFCURVE",
"460 167 CURVE SMOOTH",
"460 76 OFFCURVE",
"382 38 OFFCURVE",
"311 38 CURVE SMOOTH",
"253 38 OFFCURVE",
"188 49 OFFCURVE",
"149 90 CURVE",
"118 187 LINE",
"75 187 LINE",
"75 30 LINE",
"103 13 OFFCURVE",
"201 -11 OFFCURVE",
"298 -11 CURVE SMOOTH"
);
}
);
width = 600;
}
);
note = S;
unicode = 0053;
},
{
glyphname = T;
lastChange = "2016-06-11 22:37:54 +0000";
layers = (
{
layerId = "70CB0793-CC2E-4F1A-A11D-52AA668529D4";
paths = (
{
closed = 1;
nodes = (
"151 0 LINE",
"493 0 LINE",
"493 42 LINE",
"331 61 LINE",
"366 31 LINE",
"366 704 LINE",
"542 695 LINE",
"567 604 LINE",
"607 608 LINE",
"608 758 LINE",
"27 758 LINE",
"15 610 LINE",
"59 611 LINE",
"93 694 LINE",
"271 704 LINE",
"271 33 LINE",
"307 61 LINE",
"151 42 LINE"
);
}
);
width = 620;
}
);
note = T;
unicode = 0054;
},
{
glyphname = U;
lastChange = "2016-06-11 22:37:54 +0000";
layers = (
{
layerId = "70CB0793-CC2E-4F1A-A11D-52AA668529D4";
paths = (
{
closed = 1;
nodes = (
"561 -14 OFFCURVE",
"677 90 OFFCURVE",
"677 335 CURVE SMOOTH",
"677 729 LINE",
"656 699 LINE",
"754 710 LINE",
"754 758 LINE",
"515 758 LINE",
"515 710 LINE",
"637 698 LINE",
"604 729 LINE",
"604 335 LINE SMOOTH",
"604 150 OFFCURVE",
"547 37 OFFCURVE",
"410 37 CURVE SMOOTH",
"283 37 OFFCURVE",
"189 100 OFFCURVE",
"189 320 CURVE SMOOTH",
"189 729 LINE",
"162 699 LINE",
"276 710 LINE",
"276 758 LINE",
"16 758 LINE",
"16 710 LINE",
"117 699 LINE",
"94 729 LINE",
"94 594 OFFCURVE",
"93 458 OFFCURVE",
"93 323 CURVE SMOOTH",
"93 103 OFFCURVE",
"173 -14 OFFCURVE",
"394 -14 CURVE SMOOTH"
);
}
);
width = 769;
}
);
note = U;
unicode = 0055;
},
{
glyphname = V;
lastChange = "2016-06-11 22:37:54 +0000";
layers = (
{
layerId = "70CB0793-CC2E-4F1A-A11D-52AA668529D4";
paths = (
{
closed = 1;
nodes = (
"324 -10 LINE",
"397 -10 LINE",
"642 726 LINE",
"609 699 LINE",
"693 710 LINE",
"693 758 LINE",
"471 758 LINE",
"471 710 LINE",
"572 700 LINE",
"559 727 LINE",
"405 203 LINE",
"376 95 LINE",
"342 202 LINE",
"169 725 LINE",
"154 700 LINE",
"265 710 LINE",
"265 758 LINE",
"2 758 LINE",
"2 710 LINE",
"94 699 LINE",
"60 723 LINE"
);
}
);
width = 695;
}
);
note = V;
unicode = 0056;
},
{
glyphname = W;
lastChange = "2016-06-11 22:37:54 +0000";
layers = (
{
layerId = "70CB0793-CC2E-4F1A-A11D-52AA668529D4";
paths = (
{
closed = 1;
nodes = (
"305 -10 LINE",
"385 -10 LINE",
"535 524 LINE",
"513 524 LINE",
"664 -10 LINE",
"743 -10 LINE",
"958 725 LINE",
"929 700 LINE",
"1023 710 LINE",
"1023 758 LINE",
"787 758 LINE",
"787 710 LINE",
"893 700 LINE",
"879 731 LINE",
"744 208 LINE",
"708 49 LINE",
"731 49 LINE",
"695 189 LINE",
"553 738 LINE",
"532 700 LINE",
"647 710 LINE",
"647 758 LINE",
"381 758 LINE",
"381 710 LINE",
"487 700 LINE",
"452 730 LINE",
"500 577 LINE",
"498 656 LINE",
"384 193 LINE",
"344 76 LINE",
"363 76 LINE",
"324 199 LINE",
"163 730 LINE",
"146 700 LINE",
"264 710 LINE",
"264 758 LINE",
"2 758 LINE",
"2 710 LINE",
"90 699 LINE",
"56 733 LINE"
);
}
);
width = 1025;
}
);
note = W;
unicode = 0057;
},
{
glyphname = X;
lastChange = "2016-06-11 22:37:54 +0000";
layers = (
{
layerId = "70CB0793-CC2E-4F1A-A11D-52AA668529D4";
paths = (
{
closed = 1;
nodes = (
"7 0 LINE",
"275 0 LINE",
"275 42 LINE",
"161 60 LINE",
"165 26 LINE",
"347 355 LINE",
"324 352 LINE",
"521 33 LINE",
"538 61 LINE",
"415 42 LINE",
"415 0 LINE",
"696 0 LINE",
"696 42 LINE",
"578 63 LINE",
"629 34 LINE",
"386 423 LINE",
"387 381 LINE",
"621 729 LINE",
"575 700 LINE",
"674 710 LINE",
"674 758 LINE",
"441 758 LINE",
"441 710 LINE",
"547 699 LINE",
"529 725 LINE",
"351 415 LINE",
"381 411 LINE",
"197 729 LINE",
"180 699 LINE",
"299 710 LINE",
"299 758 LINE",
"25 758 LINE",
"25 710 LINE",
"127 699 LINE",
"83 726 LINE",
"314 364 LINE",
"311 394 LINE",
"80 34 LINE",
"121 61 LINE",
"7 42 LINE"
);
}
);
width = 693;
}
);
note = X;
unicode = 0058;
},
{
glyphname = Y;
lastChange = "2016-06-11 22:37:54 +0000";
layers = (
{
layerId = "70CB0793-CC2E-4F1A-A11D-52AA668529D4";
paths = (
{
closed = 1;
nodes = (
"196 0 LINE",
"496 0 LINE",
"496 42 LINE",
"368 60 LINE",
"391 40 LINE",
"391 335 LINE",
"371 271 LINE",
"608 731 LINE",
"562 692 LINE",
"654 710 LINE",
"654 758 LINE",
"429 758 LINE",
"429 710 LINE",
"531 699 LINE",
"530 737 LINE",
"372 414 LINE",
"340 341 LINE",
"360 341 LINE",
"326 413 LINE",
"153 735 LINE",
"143 699 LINE",
"246 710 LINE",
"246 758 LINE",
"6 758 LINE",
"6 710 LINE",
"96 697 LINE",
"40 738 LINE",
"317 277 LINE",
"296 335 LINE",
"296 39 LINE",
"319 60 LINE",
"196 42 LINE"
);
}
);
width = 660;
}
);
note = Y;
unicode = 0059;
},
{
glyphname = Z;
lastChange = "2016-06-11 22:37:54 +0000";
layers = (
{
layerId = "70CB0793-CC2E-4F1A-A11D-52AA668529D4";
paths = (
{
closed = 1;
nodes = (
"58 0 LINE",
"600 0 LINE",
"635 186 LINE",
"586 197 LINE",
"523 73 LINE",
"157 54 LINE",
"205 113 LINE",
"626 716 LINE",
"612 758 LINE",
"88 758 LINE",
"73 592 LINE",
"125 583 LINE",
"171 694 LINE",
"519 705 LINE",
"469 646 LINE",
"45 43 LINE"
);
}
);
width = 660;
}
);
note = Z;
unicode = 005A;
},
{
glyphname = bracketleft;
lastChange = "2016-06-11 22:37:54 +0000";
layers = (
{
layerId = "70CB0793-CC2E-4F1A-A11D-52AA668529D4";
paths = (
{
closed = 1;
nodes = (
"243 -93 OFFCURVE",
"278 -84 OFFCURVE",
"320 -72 CURVE",
"320 -58 OFFCURVE",
"319 -44 OFFCURVE",
"319 -30 CURVE",
"177 -29 LINE",
"177 785 LINE",
"319 785 LINE",
"319 799 OFFCURVE",
"320 813 OFFCURVE",
"320 827 CURVE",
"278 837 OFFCURVE",
"243 848 OFFCURVE",
"190 848 CURVE SMOOTH",
"115 848 OFFCURVE",
"98 822 OFFCURVE",
"98 726 CURVE SMOOTH",
"98 29 LINE SMOOTH",
"98 -67 OFFCURVE",
"115 -93 OFFCURVE",
"190 -93 CURVE SMOOTH"
);
}
);
width = 417;
}
);
note = bracketleft;
unicode = 005B;
},
{
glyphname = backslash;
lastChange = "2016-06-11 22:37:54 +0000";
layers = (
{
layerId = "70CB0793-CC2E-4F1A-A11D-52AA668529D4";
paths = (
{
closed = 1;
nodes = (
"104 781 LINE",
"15 781 LINE",
"294 -177 LINE",
"384 -177 LINE"
);
}
);
width = 398;
}
);
note = backslash;
unicode = 005C;
},
{
glyphname = bracketright;
lastChange = "2016-06-11 22:37:54 +0000";
layers = (
{
layerId = "70CB0793-CC2E-4F1A-A11D-52AA668529D4";
paths = (
{
closed = 1;
nodes = (
"302 -93 OFFCURVE",
"320 -67 OFFCURVE",
"320 29 CURVE SMOOTH",
"320 726 LINE SMOOTH",
"320 822 OFFCURVE",
"302 848 OFFCURVE",
"227 848 CURVE SMOOTH",
"174 848 OFFCURVE",
"140 837 OFFCURVE",
"98 827 CURVE",
"98 785 LINE",
"240 785 LINE",
"240 -29 LINE",
"98 -30 LINE",
"98 -72 LINE",
"140 -84 OFFCURVE",
"174 -93 OFFCURVE",
"227 -93 CURVE SMOOTH"
);
}
);
width = 417;
}
);
note = bracketright;
unicode = 005D;
},
{
glyphname = asciicircum;
lastChange = "2016-06-11 22:37:54 +0000";
layers = (
{
layerId = "70CB0793-CC2E-4F1A-A11D-52AA668529D4";
paths = (
{
closed = 1;
nodes = (
"87 275 LINE",
"163 275 LINE",
"317 647 LINE",
"472 275 LINE",
"558 275 LINE",
"370 748 LINE",
"274 748 LINE"
);
}
);
width = 644;
}
);
note = asciicircum;
unicode = 005E;
},
{
glyphname = underscore;
lastChange = "2016-06-11 22:37:54 +0000";
layers = (
{
layerId = "70CB0793-CC2E-4F1A-A11D-52AA668529D4";
paths = (
{
closed = 1;
nodes = (
"-10 -166 LINE",
"701 -166 LINE",
"701 -94 LINE",
"-10 -94 LINE"
);
}
);
width = 690;
}
);
note = underscore;
unicode = 005F;
},
{
glyphname = grave;
lastChange = "2016-06-11 22:37:54 +0000";
layers = (
{
layerId = "70CB0793-CC2E-4F1A-A11D-52AA668529D4";
paths = (
{
closed = 1;
nodes = (
"323 681 LINE",
"180 869 LINE",
"108 796 LINE",
"147 736 OFFCURVE",
"244 679 OFFCURVE",
"297 654 CURVE"
);
}
);
width = 431;
}
);
note = grave;
unicode = 0060;
},
{
glyphname = a;
lastChange = "2016-06-11 22:37:54 +0000";
layers = (
{
layerId = "70CB0793-CC2E-4F1A-A11D-52AA668529D4";
paths = (
{
closed = 1;
nodes = (
"322 -12 OFFCURVE",
"374 39 OFFCURVE",
"399 92 CURVE",
"368 92 LINE",
"348 72 OFFCURVE",
"303 50 OFFCURVE",
"264 50 CURVE SMOOTH",
"192 50 OFFCURVE",
"148 78 OFFCURVE",
"148 155 CURVE SMOOTH",
"148 250 OFFCURVE",
"286 274 OFFCURVE",
"369 274 CURVE",
"412 294 LINE",
"369 325 LINE",
"277 325 OFFCURVE",
"69 293 OFFCURVE",
"54 157 CURVE SMOOTH",
"44 66 OFFCURVE",
"109 -12 OFFCURVE",
"211 -12 CURVE SMOOTH"
);
},
{
closed = 1;
nodes = (
"466 -12 OFFCURVE",
"502 -3 OFFCURVE",
"524 9 CURVE",
"524 42 LINE",
"462 42 LINE",
"463 377 LINE SMOOTH",
"463 519 OFFCURVE",
"375 556 OFFCURVE",
"271 556 CURVE SMOOTH",
"221 556 OFFCURVE",
"124 538 OFFCURVE",
"75 498 CURVE",
"93 454 LINE",
"139 476 OFFCURVE",
"197 491 OFFCURVE",
"235 491 CURVE SMOOTH",
"310 491 OFFCURVE",
"369 470 OFFCURVE",
"369 367 CURVE SMOOTH",
"369 271 OFFCURVE",
"368 175 OFFCURVE",
"368 79 CURVE",
"375 79 LINE",
"374 39 LINE SMOOTH",
"374 -9 OFFCURVE",
"408 -12 OFFCURVE",
"432 -12 CURVE SMOOTH"
);
}
);
width = 559;
}
);
note = a;
unicode = 0061;
},
{
glyphname = b;
lastChange = "2016-06-11 22:37:54 +0000";
layers = (
{
layerId = "70CB0793-CC2E-4F1A-A11D-52AA668529D4";
paths = (
{
closed = 1;
nodes = (
"457 -14 OFFCURVE",
"568 128 OFFCURVE",
"568 295 CURVE SMOOTH",
"568 490 OFFCURVE",
"461 563 OFFCURVE",
"352 563 CURVE SMOOTH",
"253 563 OFFCURVE",
"200 506 OFFCURVE",
"164 473 CURVE",
"193 449 LINE",
"214 468 OFFCURVE",
"255 495 OFFCURVE",
"312 495 CURVE SMOOTH",
"394 495 OFFCURVE",
"477 435 OFFCURVE",
"475 278 CURVE SMOOTH",
"473 111 OFFCURVE",
"388 38 OFFCURVE",
"303 38 CURVE SMOOTH",
"247 38 OFFCURVE",
"203 50 OFFCURVE",
"193 77 CURVE",
"193 785 LINE",
"173 793 LINE",
"16 776 LINE",
"16 733 LINE",
"99 716 LINE",
"99 24 LINE",
"113 10 OFFCURVE",
"200 -14 OFFCURVE",
"292 -14 CURVE SMOOTH"
);
}
);
width = 617;
}
);
note = b;
unicode = 0062;
},
{
glyphname = c;
lastChange = "2016-06-11 22:37:54 +0000";
layers = (
{
layerId = "70CB0793-CC2E-4F1A-A11D-52AA668529D4";
paths = (
{
closed = 1;
nodes = (
"360 -10 OFFCURVE",
"438 9 OFFCURVE",
"476 43 CURVE",
"459 86 LINE",
"432 70 OFFCURVE",
"368 57 OFFCURVE",
"318 57 CURVE SMOOTH",
"236 57 OFFCURVE",
"140 129 OFFCURVE",
"141 306 CURVE SMOOTH",
"142 440 OFFCURVE",
"220 504 OFFCURVE",
"307 504 CURVE SMOOTH",
"330 504 OFFCURVE",
"366 498 OFFCURVE",
"387 481 CURVE",
"412 419 LINE",
"458 419 LINE",
"458 537 LINE",
"432 554 OFFCURVE",
"371 563 OFFCURVE",
"316 561 CURVE SMOOTH",
"167 555 OFFCURVE",
"50 442 OFFCURVE",
"51 263 CURVE SMOOTH",
"52 106 OFFCURVE",
"136 -10 OFFCURVE",
"286 -10 CURVE SMOOTH"
);
}
);
width = 510;
}
);
note = c;
unicode = 0063;
},
{
glyphname = d;
lastChange = "2016-06-11 22:37:54 +0000";
layers = (
{
layerId = "70CB0793-CC2E-4F1A-A11D-52AA668529D4";
paths = (
{
closed = 1;
nodes = (
"514 -16 OFFCURVE",
"561 -7 OFFCURVE",
"583 5 CURVE",
"583 42 LINE",
"517 42 LINE",
"517 298 LINE",
"517 782 LINE",
"495 793 LINE",
"319 773 LINE",
"319 730 LINE",
"423 713 LINE",
"423 298 LINE",
"423 84 LINE",
"427 84 LINE",
"427 35 LINE SMOOTH",
"427 -13 OFFCURVE",
"456 -16 OFFCURVE",
"480 -16 CURVE SMOOTH"
);
},
{
closed = 1;
nodes = (
"350 -12 OFFCURVE",
"407 25 OFFCURVE",
"427 47 CURVE",
"444 83 LINE",
"423 98 LINE",
"408 83 OFFCURVE",
"386 70 OFFCURVE",
"354 62 CURVE SMOOTH",
"338 58 OFFCURVE",
"321 55 OFFCURVE",
"300 55 CURVE SMOOTH",
"219 55 OFFCURVE",
"140 127 OFFCURVE",
"142 288 CURVE SMOOTH",
"144 457 OFFCURVE",
"246 511 OFFCURVE",
"319 511 CURVE SMOOTH",
"382 511 OFFCURVE",
"409 489 OFFCURVE",
"423 472 CURVE",
"459 502 LINE",
"423 550 LINE",
"400 558 OFFCURVE",
"365 563 OFFCURVE",
"331 563 CURVE SMOOTH",
"173 563 OFFCURVE",
"49 438 OFFCURVE",
"49 264 CURVE SMOOTH",
"49 74 OFFCURVE",
"153 -12 OFFCURVE",
"262 -12 CURVE SMOOTH"
);
}
);
width = 619;
}
);
note = d;
unicode = 0064;
},
{
glyphname = e;
lastChange = "2016-06-11 22:37:54 +0000";
layers = (
{
layerId = "70CB0793-CC2E-4F1A-A11D-52AA668529D4";
paths = (
{
closed = 1;
nodes = (
"368 -12 OFFCURVE",
"456 9 OFFCURVE",
"494 43 CURVE",
"476 84 LINE",
"449 68 OFFCURVE",
"382 55 OFFCURVE",
"332 55 CURVE SMOOTH",
"249 55 OFFCURVE",
"148 97 OFFCURVE",
"143 255 CURVE SMOOTH",
"133 441 OFFCURVE",
"209 510 OFFCURVE",
"293 510 CURVE SMOOTH",
"320 510 OFFCURVE",
"342 505 OFFCURVE",
"359 494 CURVE SMOOTH",
"409 462 OFFCURVE",
"414 390 OFFCURVE",
"410 324 CURVE",
"117 324 LINE",
"107 266 LINE",
"504 266 LINE",
"507 289 OFFCURVE",
"511 318 OFFCURVE",
"510 359 CURVE SMOOTH",
"505 488 OFFCURVE",
"434 565 OFFCURVE",
"319 562 CURVE SMOOTH",
"159 558 OFFCURVE",
"49 438 OFFCURVE",
"49 271 CURVE SMOOTH",
"49 100 OFFCURVE",
"137 -12 OFFCURVE",
"294 -12 CURVE SMOOTH"
);
}
);
width = 559;
}
);
note = e;
unicode = 0065;
},
{
glyphname = f;
lastChange = "2016-06-11 22:37:54 +0000";
layers = (
{
layerId = "70CB0793-CC2E-4F1A-A11D-52AA668529D4";
paths = (
{
closed = 1;
nodes = (
"54 0 LINE",
"358 0 LINE",
"358 42 LINE",
"225 53 LINE",
"246 28 LINE",
"246 480 LINE",
"393 480 LINE",
"393 546 LINE",
"246 546 LINE",
"246 627 LINE SMOOTH",
"246 738 OFFCURVE",
"280 749 OFFCURVE",
"333 749 CURVE SMOOTH",
"379 749 OFFCURVE",
"413 738 OFFCURVE",
"422 733 CURVE",
"422 816 LINE",
"415 819 OFFCURVE",
"396 825 OFFCURVE",
"352 825 CURVE SMOOTH",
"269 825 OFFCURVE",
"152 733 OFFCURVE",
"152 587 CURVE SMOOTH",
"152 546 LINE",
"44 518 LINE",
"44 480 LINE",
"152 480 LINE",
"152 32 LINE",
"171 54 LINE",
"54 42 LINE"
);
}
);
width = 408;
}
);
note = f;
unicode = 0066;
},
{
glyphname = g;
lastChange = "2016-06-11 22:37:54 +0000";
layers = (
{
layerId = "70CB0793-CC2E-4F1A-A11D-52AA668529D4";
paths = (
{
closed = 1;
nodes = (
"396 186 OFFCURVE",
"500 257 OFFCURVE",
"500 386 CURVE SMOOTH",
"500 516 OFFCURVE",
"406 569 OFFCURVE",
"294 567 CURVE SMOOTH",
"184 565 OFFCURVE",
"71 503 OFFCURVE",
"71 368 CURVE SMOOTH",
"71 245 OFFCURVE",
"166 186 OFFCURVE",
"282 186 CURVE SMOOTH"
);
},
{
closed = 1;
nodes = (
"574 479 LINE",
"574 553 LINE",
"515 553 LINE SMOOTH",
"435 553 OFFCURVE",
"421 516 OFFCURVE",
"421 480 CURVE"
);
},
{
closed = 1;
nodes = (
"202 238 OFFCURVE",
"165 306 OFFCURVE",
"165 387 CURVE SMOOTH",
"165 486 OFFCURVE",
"216 516 OFFCURVE",
"281 516 CURVE SMOOTH",
"364 516 OFFCURVE",
"406 470 OFFCURVE",
"406 373 CURVE SMOOTH",
"406 283 OFFCURVE",
"377 238 OFFCURVE",
"296 238 CURVE SMOOTH"
);
},
{
closed = 1;
nodes = (
"459 -259 OFFCURVE",
"555 -185 OFFCURVE",
"555 -73 CURVE SMOOTH",
"555 -11 OFFCURVE",
"545 80 OFFCURVE",
"362 80 CURVE SMOOTH",
"306 80 OFFCURVE",
"265 81 OFFCURVE",
"236 83 CURVE SMOOTH",
"190 87 OFFCURVE",
"174 106 OFFCURVE",
"174 141 CURVE SMOOTH",
"174 159 OFFCURVE",
"170 207 OFFCURVE",
"193 224 CURVE",
"156 224 LINE",
"113 189 OFFCURVE",
"90 129 OFFCURVE",
"90 104 CURVE SMOOTH",
"90 73 OFFCURVE",
"85 31 OFFCURVE",
"168 12 CURVE SMOOTH",
"194 6 OFFCURVE",
"229 3 OFFCURVE",
"274 3 CURVE SMOOTH",
"336 2 LINE SMOOTH",
"457 2 OFFCURVE",
"479 -35 OFFCURVE",
"479 -97 CURVE SMOOTH",
"479 -170 OFFCURVE",
"416 -204 OFFCURVE",
"310 -204 CURVE SMOOTH",
"226 -204 OFFCURVE",
"153 -172 OFFCURVE",
"153 -83 CURVE SMOOTH",
"153 -20 OFFCURVE",
"178 5 OFFCURVE",
"197 27 CURVE",
"160 27 LINE",
"127 12 OFFCURVE",
"62 -45 OFFCURVE",
"62 -114 CURVE SMOOTH",
"62 -226 OFFCURVE",
"181 -259 OFFCURVE",
"298 -259 CURVE SMOOTH"
);
}
);
width = 587;
}
);
note = g;
unicode = 0067;
},
{
glyphname = h;
lastChange = "2016-06-11 22:37:54 +0000";
layers = (
{
layerId = "70CB0793-CC2E-4F1A-A11D-52AA668529D4";
paths = (
{
closed = 1;
nodes = (
"61 0 LINE",
"299 0 LINE",
"299 42 LINE",
"208 55 LINE",
"228 29 LINE",
"228 298 LINE",
"228 444 LINE",
"273 476 OFFCURVE",
"327 485 OFFCURVE",
"370 485 CURVE SMOOTH",
"478 485 OFFCURVE",
"485 406 OFFCURVE",
"485 255 CURVE SMOOTH",
"485 28 LINE",
"508 55 LINE",
"403 42 LINE",
"403 0 LINE",
"652 0 LINE",
"652 42 LINE",
"553 55 LINE",
"579 28 LINE",
"579 296 LINE SMOOTH",
"580 478 OFFCURVE",
"548 556 OFFCURVE",
"416 556 CURVE SMOOTH",
"364 556 OFFCURVE",
"282 529 OFFCURVE",
"225 482 CURVE",
"227 566 LINE",
"228 782 LINE",
"205 793 LINE",
"50 773 LINE",
"50 730 LINE",
"134 713 LINE",
"134 298 LINE",
"134 30 LINE",
"161 56 LINE",
"61 42 LINE"
);
}
);
width = 685;
}
);
note = h;
unicode = 0068;
},
{
glyphname = i;
lastChange = "2016-06-11 22:37:54 +0000";
layers = (
{
layerId = "70CB0793-CC2E-4F1A-A11D-52AA668529D4";
paths = (
{
closed = 1;
nodes = (
"200 671 OFFCURVE",
"236 699 OFFCURVE",
"236 742 CURVE SMOOTH",
"236 775 OFFCURVE",
"217 803 OFFCURVE",
"174 803 CURVE SMOOTH",
"139 803 OFFCURVE",
"101 772 OFFCURVE",
"101 731 CURVE SMOOTH",
"101 693 OFFCURVE",
"131 671 OFFCURVE",
"163 671 CURVE SMOOTH"
);
},
{
closed = 1;
nodes = (
"55 0 LINE",
"307 0 LINE",
"307 42 LINE",
"201 55 LINE",
"228 29 LINE",
"228 546 LINE",
"206 556 LINE",
"70 518 LINE",
"70 487 LINE",
"138 452 LINE",
"138 30 LINE",
"158 54 LINE",
"55 42 LINE"
);
}
);
width = 333;
}
);
note = i;
unicode = 0069;
},
{
glyphname = j;
lastChange = "2016-06-11 22:38:24 +0000";
layers = (
{
layerId = "70CB0793-CC2E-4F1A-A11D-52AA668529D4";
paths = (
{
closed = 1;
nodes = (
"196 686 OFFCURVE",
"232 713 OFFCURVE",
"232 756 CURVE SMOOTH",
"232 789 OFFCURVE",
"213 817 OFFCURVE",
"170 817 CURVE SMOOTH",
"135 817 OFFCURVE",
"98 787 OFFCURVE",
"98 746 CURVE SMOOTH",
"98 708 OFFCURVE",
"127 686 OFFCURVE",
"159 686 CURVE SMOOTH"
);
},
{
closed = 1;
nodes = (
"157 -251 OFFCURVE",
"226 -160 OFFCURVE",
"226 -8 CURVE SMOOTH",
"226 546 LINE",
"204 556 LINE",
"66 517 LINE",
"66 488 LINE",
"134 452 LINE",
"134 -1 LINE SMOOTH",
"134 -137 OFFCURVE",
"112 -182 OFFCURVE",
"49 -182 CURVE SMOOTH",
"37 -182 OFFCURVE",
"7 -180 OFFCURVE",
"-4 -177 CURVE",
"-4 -244 LINE",
"1 -248 OFFCURVE",
"36 -251 OFFCURVE",
"49 -251 CURVE SMOOTH"
);
}
);
width = 317;
}
);
note = j;
unicode = 006A;
},
{
glyphname = k;
lastChange = "2016-06-11 22:37:54 +0000";
layers = (
{
layerId = "70CB0793-CC2E-4F1A-A11D-52AA668529D4";
paths = (
{
closed = 1;
nodes = (
"54 0 LINE",
"298 0 LINE",
"298 42 LINE",
"210 54 LINE",
"228 39 LINE",
"228 106 LINE",
"225 213 LINE",
"213 189 LINE",
"312 287 LINE",
"290 296 LINE",
"481 27 LINE",
"475 55 LINE",
"395 42 LINE",
"395 0 LINE",
"632 0 LINE",
"632 42 LINE",
"551 54 LINE",
"583 29 LINE",
"344 345 LINE",
"354 319 LINE",
"550 518 LINE",
"503 490 LINE",
"599 500 LINE",
"599 551 LINE",
"369 551 LINE",
"369 500 LINE",
"458 491 LINE",
"460 511 LINE",
"210 253 LINE",
"215 253 OFFCURVE",
"220 242 OFFCURVE",
"225 242 CURVE",
"228 344 LINE",
"228 782 LINE",
"208 793 LINE",
"46 773 LINE",
"46 730 LINE",
"134 713 LINE",
"134 432 LINE",
"134 34 LINE",
"152 55 LINE",
"54 42 LINE"
);
}
);
width = 622;
}
);
note = k;
unicode = 006B;
},
{
glyphname = l;
lastChange = "2016-06-11 22:37:54 +0000";
layers = (
{
layerId = "70CB0793-CC2E-4F1A-A11D-52AA668529D4";
paths = (
{
closed = 1;
nodes = (
"53 0 LINE",
"317 0 LINE",
"317 42 LINE",
"208 54 LINE",
"230 34 LINE",
"230 782 LINE",
"210 793 LINE",
"58 773 LINE",
"58 730 LINE",
"136 713 LINE",
"136 29 LINE",
"159 55 LINE",
"53 42 LINE"
);
}
);
width = 340;
}
);
note = l;
unicode = 006C;
},
{
glyphname = m;
lastChange = "2016-06-11 22:37:54 +0000";
layers = (
{
layerId = "70CB0793-CC2E-4F1A-A11D-52AA668529D4";
paths = (
{
closed = 1;
nodes = (
"744 0 LINE",
"986 0 LINE",
"986 42 LINE",
"874 56 LINE",
"904 32 LINE",
"904 323 LINE SMOOTH",
"904 491 OFFCURVE",
"863 560 OFFCURVE",
"741 556 CURVE SMOOTH",
"678 554 OFFCURVE",
"589 521 OFFCURVE",
"543 485 CURVE",
"557 440 LINE",
"600 466 OFFCURVE",
"647 483 OFFCURVE",
"692 485 CURVE SMOOTH",
"791 489 OFFCURVE",
"810 431 OFFCURVE",
"810 306 CURVE SMOOTH",
"810 32 LINE",
"834 56 LINE",
"744 42 LINE"
);
},
{
closed = 1;
nodes = (
"67 0 LINE",
"301 0 LINE",
"301 42 LINE",
"199 56 LINE",
"229 31 LINE",
"228 135 OFFCURVE",
"229 241 OFFCURVE",
"229 345 CURVE SMOOTH",
"229 434 LINE",
"278 468 OFFCURVE",
"325 483 OFFCURVE",
"360 485 CURVE SMOOTH",
"459 489 OFFCURVE",
"479 437 OFFCURVE",
"479 313 CURVE SMOOTH",
"479 30 LINE",
"509 57 LINE",
"406 42 LINE",
"406 0 LINE",
"648 0 LINE",
"648 42 LINE",
"543 56 LINE",
"573 31 LINE",
"573 328 LINE SMOOTH",
"573 374 OFFCURVE",
"568 420 OFFCURVE",
"560 451 CURVE",
"548 482 LINE SMOOTH",
"524 539 OFFCURVE",
"482 558 OFFCURVE",
"410 556 CURVE SMOOTH",
"343 554 OFFCURVE",
"259 515 OFFCURVE",
"216 477 CURVE",
"216 546 LINE",
"194 556 LINE",
"64 518 LINE",
"64 487 LINE",
"134 449 LINE",
"134 346 LINE",
"134 28 LINE",
"162 57 LINE",
"67 42 LINE"
);
}
);
width = 1010;
}
);
note = m;
unicode = 006D;
},
{
glyphname = n;
lastChange = "2016-06-11 22:37:54 +0000";
layers = (
{
layerId = "70CB0793-CC2E-4F1A-A11D-52AA668529D4";
paths = (
{
closed = 1;
nodes = (
"67 0 LINE",
"301 0 LINE",
"301 42 LINE",
"204 55 LINE",
"229 33 LINE",
"229 259 LINE",
"229 434 LINE",
"278 468 OFFCURVE",
"323 483 OFFCURVE",
"363 485 CURVE SMOOTH",
"462 489 OFFCURVE",
"481 429 OFFCURVE",
"481 310 CURVE SMOOTH",
"481 34 LINE",
"510 56 LINE",
"407 42 LINE",
"407 0 LINE",
"653 0 LINE",
"653 42 LINE",
"546 55 LINE",
"575 30 LINE",
"575 327 LINE SMOOTH",
"575 491 OFFCURVE",
"534 560 OFFCURVE",
"413 556 CURVE SMOOTH",
"346 554 OFFCURVE",
"260 515 OFFCURVE",
"216 477 CURVE",
"216 546 LINE",
"194 556 LINE",
"64 518 LINE",
"64 487 LINE",
"134 449 LINE",
"134 259 LINE",
"134 33 LINE",
"171 57 LINE",
"67 42 LINE"
);
}
);
width = 681;
}
);
note = n;
unicode = 006E;
},
{
glyphname = o;
lastChange = "2016-06-11 22:43:58 +0000";
layers = (
{
layerId = "70CB0793-CC2E-4F1A-A11D-52AA668529D4";
paths = (
{
closed = 1;
nodes = (
"447 -12 OFFCURVE",
"561 107 OFFCURVE",
"562 280 CURVE SMOOTH",
"563 437 OFFCURVE",
"485 564 OFFCURVE",
"319 562 CURVE SMOOTH",
"184 561 OFFCURVE",
"61 459 OFFCURVE",
"59 284 CURVE SMOOTH",
"57 129 OFFCURVE",
"128 -12 OFFCURVE",
"307 -12 CURVE SMOOTH"
);
},
{
closed = 1;
nodes = (
"207 45 OFFCURVE",
"159 163 OFFCURVE",
"159 289 CURVE SMOOTH",
"159 429 OFFCURVE",
"203 513 OFFCURVE",
"313 511 CURVE SMOOTH",
"417 509 OFFCURVE",
"462 406 OFFCURVE",
"462 275 CURVE SMOOTH",
"462 125 OFFCURVE",
"421 41 OFFCURVE",
"311 43 CURVE SMOOTH"
);
}
);
width = 621;
}
);
note = o;
rightMetricsKey = "=|o";
unicode = 006F;
},
{
glyphname = p;
lastChange = "2016-06-11 22:43:44 +0000";
layers = (
{
layerId = "70CB0793-CC2E-4F1A-A11D-52AA668529D4";
paths = (
{
closed = 1;
nodes = (
"61 -250 LINE",
"318 -250 LINE",
"318 -208 LINE",
"198 -195 LINE",
"223 -222 LINE",
"223 -127 LINE",
"220 4 LINE",
"251 -4 OFFCURVE",
"283 -11 OFFCURVE",
"319 -11 CURVE SMOOTH",
"484 -11 OFFCURVE",
"598 124 OFFCURVE",
"598 291 CURVE SMOOTH",
"598 491 OFFCURVE",
"492 562 OFFCURVE",
"383 562 CURVE SMOOTH",
"302 562 OFFCURVE",
"238 521 OFFCURVE",
"211 489 CURVE",
"211 546 LINE",
"189 556 LINE",
"60 518 LINE",
"60 487 LINE",
"129 449 LINE",
"129 259 LINE",
"129 -220 LINE",
"156 -193 LINE",
"61 -208 LINE"
);
},
{
closed = 1;
nodes = (
"223 259 LINE",
"222 449 LINE",
"243 468 OFFCURVE",
"282 500 OFFCURVE",
"344 500 CURVE SMOOTH",
"426 500 OFFCURVE",
"506 442 OFFCURVE",
"504 278 CURVE SMOOTH",
"502 106 OFFCURVE",
"416 40 OFFCURVE",
"331 40 CURVE SMOOTH",
"275 40 OFFCURVE",
"238 57 OFFCURVE",
"223 83 CURVE"
);
}
);
width = 647;
}
);
note = p;
rightMetricsKey = "=o";
unicode = 0070;
},
{
glyphname = q;
lastChange = "2016-06-11 22:43:50 +0000";
layers = (
{
layerId = "70CB0793-CC2E-4F1A-A11D-52AA668529D4";
paths = (
{
closed = 1;
nodes = (
"324 -250 LINE",
"584 -250 LINE",
"584 -203 LINE",
"491 -189 LINE",
"518 -212 LINE",
"518 259 LINE",
"518 547 LINE",
"499 557 LINE",
"440 545 LINE",
"418 554 OFFCURVE",
"377 563 OFFCURVE",
"338 563 CURVE SMOOTH",
"169 563 OFFCURVE",
"49 433 OFFCURVE",
"49 267 CURVE SMOOTH",
"49 23 OFFCURVE",
"192 -14 OFFCURVE",
"262 -14 CURVE SMOOTH",
"351 -14 OFFCURVE",
"405 30 OFFCURVE",
"427 52 CURVE",
"424 -23 LINE",
"424 -212 LINE",
"452 -190 LINE",
"324 -203 LINE"
);
},
{
closed = 1;
nodes = (
"201 54 OFFCURVE",
"140 133 OFFCURVE",
"142 283 CURVE SMOOTH",
"144 435 OFFCURVE",
"222 511 OFFCURVE",
"322 511 CURVE SMOOTH",
"364 511 OFFCURVE",
"402 501 OFFCURVE",
"424 472 CURVE",
"424 259 LINE",
"424 100 LINE",
"403 78 OFFCURVE",
"358 54 OFFCURVE",
"296 54 CURVE SMOOTH"
);
}
);
width = 606;
}
);
leftMetricsKey = "=o";
note = q;
unicode = 0071;
},
{
glyphname = r;
lastChange = "2016-06-11 22:37:54 +0000";
layers = (
{
layerId = "70CB0793-CC2E-4F1A-A11D-52AA668529D4";
paths = (
{
closed = 1;
nodes = (
"55 0 LINE",
"368 0 LINE",
"368 42 LINE",
"204 55 LINE",
"229 33 LINE",
"229 435 LINE",
"259 454 OFFCURVE",
"291 469 OFFCURVE",
"344 469 CURVE SMOOTH",
"389 469 OFFCURVE",
"410 461 OFFCURVE",
"431 453 CURVE",
"431 553 LINE",
"424 555 OFFCURVE",
"404 556 OFFCURVE",
"383 556 CURVE SMOOTH",
"323 556 OFFCURVE",
"240 508 OFFCURVE",
"216 471 CURVE",
"216 546 LINE",
"193 556 LINE",
"64 518 LINE",
"64 487 LINE",
"134 449 LINE",
"134 33 LINE",
"171 57 LINE",
"55 42 LINE"
);
}
);
width = 450;
}
);
note = r;
unicode = 0072;
},
{
glyphname = s;
lastChange = "2016-06-11 22:37:54 +0000";
layers = (
{
layerId = "70CB0793-CC2E-4F1A-A11D-52AA668529D4";
paths = (
{
closed = 1;
nodes = (
"371 -12 OFFCURVE",
"466 45 OFFCURVE",
"466 155 CURVE SMOOTH",
"466 246 OFFCURVE",
"384 282 OFFCURVE",
"312 315 CURVE SMOOTH",
"244 349 OFFCURVE",
"174 373 OFFCURVE",
"176 432 CURVE SMOOTH",
"177 490 OFFCURVE",
"224 514 OFFCURVE",
"286 514 CURVE SMOOTH",
"329 514 OFFCURVE",
"353 498 OFFCURVE",
"371 479 CURVE",
"392 424 LINE",
"433 424 LINE",
"433 529 LINE",
"404 546 OFFCURVE",
"346 564 OFFCURVE",
"281 562 CURVE SMOOTH",
"194 560 OFFCURVE",
"88 516 OFFCURVE",
"86 415 CURVE SMOOTH",
"85 328 OFFCURVE",
"160 282 OFFCURVE",
"237 245 CURVE SMOOTH",
"306 212 OFFCURVE",
"376 192 OFFCURVE",
"376 133 CURVE SMOOTH",
"376 69 OFFCURVE",
"324 38 OFFCURVE",
"251 41 CURVE SMOOTH",
"206 43 OFFCURVE",
"178 54 OFFCURVE",
"145 82 CURVE",
"125 142 LINE",
"82 142 LINE",
"82 30 LINE",
"131 3 OFFCURVE",
"193 -12 OFFCURVE",
"252 -12 CURVE SMOOTH"
);
}
);
width = 511;
}
);
note = s;
unicode = 0073;
},
{
glyphname = t;
lastChange = "2016-06-11 22:37:54 +0000";
layers = (
{
layerId = "70CB0793-CC2E-4F1A-A11D-52AA668529D4";
paths = (
{
closed = 1;
nodes = (
"286 -12 OFFCURVE",
"364 6 OFFCURVE",
"393 38 CURVE",
"377 81 LINE",
"361 71 OFFCURVE",
"311 57 OFFCURVE",
"278 57 CURVE SMOOTH",
"225 57 OFFCURVE",
"221 88 OFFCURVE",
"221 239 CURVE SMOOTH",
"221 485 LINE",
"385 485 LINE",
"385 546 LINE",
"221 546 LINE",
"221 677 LINE",
"173 677 LINE",
"171 660 OFFCURVE",
"152 588 OFFCURVE",
"142 566 CURVE SMOOTH",
"128 534 OFFCURVE",
"112 536 OFFCURVE",
"55 521 CURVE",
"55 485 LINE",
"129 485 LINE",
"129 128 LINE SMOOTH",
"129 29 OFFCURVE",
"170 -12 OFFCURVE",
"241 -12 CURVE SMOOTH"
);
}
);
width = 420;
}
);
note = t;
unicode = 0074;
},
{
glyphname = u;
lastChange = "2016-06-11 22:37:54 +0000";
layers = (
{
layerId = "70CB0793-CC2E-4F1A-A11D-52AA668529D4";
paths = (
{
closed = 1;
nodes = (
"325 -10 OFFCURVE",
"390 16 OFFCURVE",
"446 65 CURVE",
"446 25 LINE SMOOTH",
"446 -4 OFFCURVE",
"466 -17 OFFCURVE",
"497 -17 CURVE SMOOTH",
"528 -17 OFFCURVE",
"569 -6 OFFCURVE",
"588 4 CURVE",
"588 42 LINE",
"529 42 LINE",
"529 548 LINE",
"516 556 LINE",
"376 528 LINE",
"376 488 LINE",
"437 473 LINE",
"437 112 LINE",
"420 94 OFFCURVE",
"360 57 OFFCURVE",
"302 57 CURVE SMOOTH",
"217 57 OFFCURVE",
"197 103 OFFCURVE",
"197 211 CURVE SMOOTH",
"197 547 LINE",
"180 556 LINE",
"54 529 LINE",
"54 492 LINE",
"104 477 LINE",
"104 225 LINE SMOOTH",
"105 90 OFFCURVE",
"113 -10 OFFCURVE",
"266 -10 CURVE SMOOTH"
);
}
);
width = 630;
}
);
note = u;
unicode = 0075;
},
{
glyphname = v;
lastChange = "2016-06-11 22:37:54 +0000";
layers = (
{
layerId = "70CB0793-CC2E-4F1A-A11D-52AA668529D4";
paths = (
{
closed = 1;
nodes = (
"263 -12 LINE",
"329 -12 LINE",
"541 517 LINE",
"503 479 LINE",
"579 495 LINE",
"579 546 LINE",
"384 546 LINE",
"384 495 LINE",
"471 481 LINE",
"458 517 LINE",
"354 218 LINE",
"295 43 LINE",
"322 43 LINE",
"263 224 LINE",
"143 517 LINE",
"125 480 LINE",
"216 495 LINE",
"216 546 LINE",
"1 546 LINE",
"1 495 LINE",
"79 480 LINE",
"36 515 LINE"
);
}
);
width = 580;
}
);
note = v;
unicode = 0076;
},
{
glyphname = w;
lastChange = "2016-06-11 22:37:54 +0000";
layers = (
{
layerId = "70CB0793-CC2E-4F1A-A11D-52AA668529D4";
paths = (
{
closed = 1;
nodes = (
"217 -12 LINE",
"298 -12 LINE",
"396 360 LINE",
"425 471 LINE",
"408 471 LINE",
"427 360 LINE",
"533 -12 LINE",
"619 -12 LINE",
"772 511 LINE",
"739 479 LINE",
"825 495 LINE",
"825 546 LINE",
"628 546 LINE",
"628 495 LINE",
"716 481 LINE",
"694 508 LINE",
"612 183 LINE",
"575 40 LINE",
"597 40 LINE",
"558 187 LINE",
"463 546 LINE",
"379 546 LINE",
"287 186 LINE",
"256 37 LINE",
"276 37 LINE",
"238 187 LINE",
"138 511 LINE",
"119 480 LINE",
"214 495 LINE",
"214 546 LINE",
"1 546 LINE",
"1 495 LINE",
"78 481 LINE",
"43 508 LINE"
);
}
);
width = 826;
}
);
note = w;
unicode = 0077;
},
{
glyphname = x;
lastChange = "2016-06-11 22:37:54 +0000";
layers = (
{
layerId = "70CB0793-CC2E-4F1A-A11D-52AA668529D4";
paths = (
{
closed = 1;
nodes = (
"3 0 LINE",
"243 0 LINE",
"243 42 LINE",
"138 54 LINE",
"138 27 LINE",
"250 189 LINE",
"281 245 LINE",
"257 245 LINE",
"305 178 LINE",
"310 170 OFFCURVE",
"321 162 OFFCURVE",
"410 27 CURVE",
"410 54 LINE",
"327 42 LINE",
"327 0 LINE",
"568 0 LINE",
"568 42 LINE",
"474 56 LINE",
"519 33 LINE",
"319 291 LINE",
"319 263 LINE",
"508 511 LINE",
"463 482 LINE",
"564 495 LINE",
"564 546 LINE",
"344 546 LINE",
"344 495 LINE",
"430 486 LINE",
"430 511 LINE",
"317 344 LINE",
"288 293 LINE",
"309 293 LINE",
"274 346 LINE",
"165 507 LINE",
"165 484 LINE",
"247 495 LINE",
"247 546 LINE",
"2 546 LINE",
"2 495 LINE",
"100 482 LINE",
"53 506 LINE",
"250 250 LINE",
"251 281 LINE",
"59 29 LINE",
"101 56 LINE",
"3 42 LINE"
);
}
);
width = 570;
}
);
note = x;
unicode = 0078;
},
{
glyphname = y;
lastChange = "2016-06-11 22:37:54 +0000";
layers = (
{
layerId = "70CB0793-CC2E-4F1A-A11D-52AA668529D4";
paths = (
{
closed = 1;
nodes = (
"73 -244 LINE",
"78 -248 OFFCURVE",
"99 -251 OFFCURVE",
"112 -251 CURVE SMOOTH",
"128 -251 OFFCURVE",
"141 -250 OFFCURVE",
"155 -247 CURVE SMOOTH",
"236 -227 OFFCURVE",
"284 -149 OFFCURVE",
"335 -19 CURVE SMOOTH",
"351 21 OFFCURVE",
"383 112 OFFCURVE",
"523 519 CURVE",
"486 483 LINE",
"566 495 LINE",
"566 546 LINE",
"355 546 LINE",
"355 495 LINE",
"454 484 LINE",
"441 519 LINE",
"333 157 LINE",
"293 17 LINE",
"302 16 OFFCURVE",
"311 13 OFFCURVE",
"320 12 CURVE",
"271 157 LINE",
"150 504 LINE",
"137 482 LINE",
"227 495 LINE",
"227 546 LINE",
"1 546 LINE",
"1 495 LINE",
"77 482 LINE",
"44 506 LINE",
"248 0 LINE",
"272 0 LINE",
"272 14 LINE",
"230 -143 OFFCURVE",
"160 -171 OFFCURVE",
"112 -171 CURVE SMOOTH",
"100 -171 OFFCURVE",
"84 -169 OFFCURVE",
"73 -166 CURVE"
);
}
);
width = 561;
}
);
note = y;
unicode = 0079;
},
{
glyphname = z;
lastChange = "2016-06-11 22:37:54 +0000";
layers = (
{
layerId = "70CB0793-CC2E-4F1A-A11D-52AA668529D4";
paths = (
{
closed = 1;
nodes = (
"59 0 LINE",
"490 0 LINE",
"498 141 LINE",
"448 141 LINE",
"417 59 LINE",
"158 48 LINE",
"207 111 LINE",
"493 506 LINE",
"480 546 LINE",
"66 546 LINE",
"66 403 LINE",
"111 403 LINE",
"141 493 LINE",
"380 500 LINE",
"340 453 LINE",
"77 86 LINE",
"43 40 LINE"
);
}
);
width = 526;
}
);
note = z;
unicode = 007A;
},
{
glyphname = braceleft;
lastChange = "2016-06-11 22:37:54 +0000";
layers = (
{
layerId = "70CB0793-CC2E-4F1A-A11D-52AA668529D4";
paths = (
{
closed = 1;
nodes = (
"307 -93 OFFCURVE",
"341 -84 OFFCURVE",
"383 -72 CURVE",
"383 -29 LINE",
"241 -29 LINE",
"241 281 LINE SMOOTH",
"241 302 OFFCURVE",
"230 319 OFFCURVE",
"214 333 CURVE SMOOTH",
"191 354 OFFCURVE",
"156 369 OFFCURVE",
"121 385 CURVE",
"121 373 LINE",
"151 388 OFFCURVE",
"181 400 OFFCURVE",
"204 415 CURVE SMOOTH",
"226 430 OFFCURVE",
"241 447 OFFCURVE",
"241 474 CURVE SMOOTH",
"241 785 LINE",
"383 785 LINE",
"383 827 LINE",
"341 837 OFFCURVE",
"307 848 OFFCURVE",
"254 848 CURVE SMOOTH",
"179 848 OFFCURVE",
"161 822 OFFCURVE",
"161 726 CURVE SMOOTH",
"161 472 LINE SMOOTH",
"161 445 OFFCURVE",
"94 423 OFFCURVE",
"39 410 CURVE",
"39 349 LINE",
"95 336 OFFCURVE",
"161 309 OFFCURVE",
"161 283 CURVE SMOOTH",
"161 29 LINE SMOOTH",
"161 -67 OFFCURVE",
"179 -93 OFFCURVE",
"254 -93 CURVE SMOOTH"
);
}
);
width = 505;
}
);
note = braceleft;
unicode = 007B;
},
{
glyphname = bar;
lastChange = "2016-06-11 22:37:54 +0000";
layers = (
{
layerId = "70CB0793-CC2E-4F1A-A11D-52AA668529D4";
paths = (
{
closed = 1;
nodes = (
"175 -91 LINE",
"259 -91 LINE",
"259 869 LINE",
"175 869 LINE"
);
}
);
width = 426;
}
);
note = bar;
unicode = 007C;
},
{
glyphname = braceright;
lastChange = "2016-06-11 22:37:54 +0000";
layers = (
{
layerId = "70CB0793-CC2E-4F1A-A11D-52AA668529D4";
paths = (
{
closed = 1;
nodes = (
"289 -93 OFFCURVE",
"307 -67 OFFCURVE",
"307 29 CURVE SMOOTH",
"307 283 LINE SMOOTH",
"307 309 OFFCURVE",
"373 336 OFFCURVE",
"429 349 CURVE",
"429 410 LINE",
"374 423 OFFCURVE",
"307 445 OFFCURVE",
"307 472 CURVE SMOOTH",
"307 726 LINE SMOOTH",
"307 822 OFFCURVE",
"289 848 OFFCURVE",
"214 848 CURVE SMOOTH",
"161 848 OFFCURVE",
"126 837 OFFCURVE",
"84 827 CURVE",
"84 813 OFFCURVE",
"85 799 OFFCURVE",
"85 785 CURVE",
"227 785 LINE",
"227 474 LINE SMOOTH",
"227 447 OFFCURVE",
"242 430 OFFCURVE",
"264 415 CURVE SMOOTH",
"287 400 OFFCURVE",
"317 388 OFFCURVE",
"347 373 CURVE",
"347 385 LINE",
"312 369 OFFCURVE",
"276 354 OFFCURVE",
"253 333 CURVE SMOOTH",
"237 319 OFFCURVE",
"227 302 OFFCURVE",
"227 281 CURVE SMOOTH",
"227 -29 LINE",
"85 -29 LINE",
"85 -43 OFFCURVE",
"84 -58 OFFCURVE",
"84 -72 CURVE",
"126 -84 OFFCURVE",
"161 -93 OFFCURVE",
"214 -93 CURVE SMOOTH"
);
}
);
width = 467;
}
);
note = braceright;
unicode = 007D;
},
{
glyphname = asciitilde;
lastChange = "2016-06-11 22:37:54 +0000";
layers = (
{
layerId = "70CB0793-CC2E-4F1A-A11D-52AA668529D4";
paths = (
{
closed = 1;
nodes = (
"445 349 OFFCURVE",
"512 393 OFFCURVE",
"541 442 CURVE",
"505 485 LINE",
"481 464 OFFCURVE",
"447 435 OFFCURVE",
"402 435 CURVE SMOOTH",
"345 435 OFFCURVE",
"317 517 OFFCURVE",
"240 517 CURVE SMOOTH",
"169 517 OFFCURVE",
"102 473 OFFCURVE",
"73 424 CURVE",
"108 380 LINE",
"132 401 OFFCURVE",
"166 431 OFFCURVE",
"211 431 CURVE SMOOTH",
"269 431 OFFCURVE",
"297 349 OFFCURVE",
"374 349 CURVE SMOOTH"
);
}
);
width = 613;
}
);
note = asciitilde;
unicode = 007E;
},
{
glyphname = exclamdown;
lastChange = "2016-06-11 22:37:54 +0000";
layers = (
{
layerId = "70CB0793-CC2E-4F1A-A11D-52AA668529D4";
paths = (
{
closed = 1;
nodes = (
"105 -199 LINE",
"230 -199 LINE",
"198 450 LINE",
"141 450 LINE"
);
},
{
closed = 1;
nodes = (
"207 571 OFFCURVE",
"243 599 OFFCURVE",
"243 642 CURVE SMOOTH",
"243 675 OFFCURVE",
"224 702 OFFCURVE",
"181 702 CURVE SMOOTH",
"146 702 OFFCURVE",
"108 672 OFFCURVE",
"108 631 CURVE SMOOTH",
"108 593 OFFCURVE",
"138 571 OFFCURVE",
"170 571 CURVE SMOOTH"
);
}
);
width = 348;
}
);
note = exclamdown;
unicode = 00A1;
},
{
glyphname = cent;
lastChange = "2016-06-11 22:37:54 +0000";
layers = (
{
layerId = "70CB0793-CC2E-4F1A-A11D-52AA668529D4";
paths = (
{
closed = 1;
nodes = (
"291 511 LINE",
"351 511 LINE",
"360 665 LINE",
"299 665 LINE"
);
},
{
closed = 1;
nodes = (
"246 -105 LINE",
"306 -105 LINE",
"315 48 LINE",
"254 48 LINE"
);
},
{
closed = 1;
nodes = (
"370 -10 OFFCURVE",
"447 9 OFFCURVE",
"485 43 CURVE",
"469 86 LINE",
"442 70 OFFCURVE",
"378 57 OFFCURVE",
"328 57 CURVE SMOOTH",
"246 57 OFFCURVE",
"149 129 OFFCURVE",
"150 306 CURVE SMOOTH",
"151 440 OFFCURVE",
"229 504 OFFCURVE",
"316 504 CURVE SMOOTH",
"339 504 OFFCURVE",
"375 498 OFFCURVE",
"396 481 CURVE",
"421 419 LINE",
"468 419 LINE",
"468 537 LINE",
"442 554 OFFCURVE",
"381 563 OFFCURVE",
"326 561 CURVE SMOOTH",
"177 555 OFFCURVE",
"60 442 OFFCURVE",
"61 263 CURVE SMOOTH",
"62 106 OFFCURVE",
"146 -10 OFFCURVE",
"296 -10 CURVE SMOOTH"
);
}
);
width = 545;
}
);
note = cent;
unicode = 00A2;
},
{
glyphname = sterling;
lastChange = "2016-06-11 22:37:54 +0000";
layers = (
{
layerId = "70CB0793-CC2E-4F1A-A11D-52AA668529D4";
paths = (
{
closed = 1;
nodes = (
"134 -15 OFFCURVE",
"169 15 OFFCURVE",
"194 49 CURVE",
"237 57 OFFCURVE",
"320 -32 OFFCURVE",
"487 -17 CURVE SMOOTH",
"653 -2 OFFCURVE",
"665 121 OFFCURVE",
"657 182 CURVE SMOOTH",
"650 236 OFFCURVE",
"622 279 OFFCURVE",
"578 298 CURVE",
"533 212 LINE",
"558 193 OFFCURVE",
"568 163 OFFCURVE",
"568 139 CURVE SMOOTH",
"568 79 OFFCURVE",
"531 16 OFFCURVE",
"407 38 CURVE SMOOTH",
"345 49 OFFCURVE",
"287 88 OFFCURVE",
"243 91 CURVE",
"282 159 OFFCURVE",
"298 204 OFFCURVE",
"298 340 CURVE SMOOTH",
"298 384 OFFCURVE",
"297 439 OFFCURVE",
"297 483 CURVE SMOOTH",
"297 660 OFFCURVE",
"344 705 OFFCURVE",
"400 705 CURVE SMOOTH",
"476 705 OFFCURVE",
"528 645 OFFCURVE",
"533 636 CURVE",
"580 726 LINE",
"542 759 OFFCURVE",
"501 765 OFFCURVE",
"447 765 CURVE SMOOTH",
"301 765 OFFCURVE",
"204 628 OFFCURVE",
"204 482 CURVE SMOOTH",
"204 232 LINE SMOOTH",
"204 194 OFFCURVE",
"201 135 OFFCURVE",
"188 106 CURVE",
"99 110 OFFCURVE",
"43 65 OFFCURVE",
"43 30 CURVE SMOOTH",
"43 -9 OFFCURVE",
"73 -15 OFFCURVE",
"91 -15 CURVE SMOOTH"
);
},
{
closed = 1;
nodes = (
"116 355 LINE",
"457 355 LINE",
"457 427 LINE",
"116 427 LINE"
);
}
);
width = 703;
}
);
note = sterling;
unicode = 00A3;
},
{
glyphname = currency;
lastChange = "2016-06-11 22:37:54 +0000";
layers = (
{
layerId = "70CB0793-CC2E-4F1A-A11D-52AA668529D4";
paths = (
{
closed = 1;
nodes = (
"153 97 LINE",
"245 188 LINE",
"203 230 LINE",
"111 138 LINE"
);
},
{
closed = 1;
nodes = (
"202 443 LINE",
"243 484 LINE",
"151 577 LINE",
"110 535 LINE"
);
},
{
closed = 1;
nodes = (
"283 216 OFFCURVE",
"231 271 OFFCURVE",
"231 337 CURVE SMOOTH",
"231 403 OFFCURVE",
"283 458 OFFCURVE",
"347 458 CURVE SMOOTH",
"411 458 OFFCURVE",
"462 403 OFFCURVE",
"462 337 CURVE SMOOTH",
"462 271 OFFCURVE",
"411 216 OFFCURVE",
"347 216 CURVE SMOOTH"
);
},
{
closed = 1;
nodes = (
"450 152 OFFCURVE",
"532 234 OFFCURVE",
"532 337 CURVE SMOOTH",
"532 440 OFFCURVE",
"450 521 OFFCURVE",
"347 521 CURVE SMOOTH",
"244 521 OFFCURVE",
"161 440 OFFCURVE",
"161 337 CURVE SMOOTH",
"161 234 OFFCURVE",
"244 152 OFFCURVE",
"347 152 CURVE SMOOTH"
);
},
{
closed = 1;
nodes = (
"543 99 LINE",
"585 141 LINE",
"494 232 LINE",
"452 191 LINE"
);
},
{
closed = 1;
nodes = (
"500 437 LINE",
"591 528 LINE",
"550 570 LINE",
"458 479 LINE"
);
}
);
width = 701;
}
);
note = currency;
unicode = 00A4;
},
{
glyphname = yen;
lastChange = "2016-06-11 22:37:54 +0000";
layers = (
{
layerId = "70CB0793-CC2E-4F1A-A11D-52AA668529D4";
paths = (
{
closed = 1;
nodes = (
"202 0 LINE",
"491 0 LINE",
"491 42 LINE",
"369 60 LINE",
"392 40 LINE",
"392 398 LINE",
"372 335 LINE",
"625 731 LINE",
"582 692 LINE",
"671 710 LINE",
"671 758 LINE",
"448 758 LINE",
"448 710 LINE",
"550 699 LINE",
"542 737 LINE",
"492 655 OFFCURVE",
"442 563 OFFCURVE",
"394 480 CURVE",
"346 384 LINE",
"366 384 LINE",
"327 476 LINE",
"168 735 LINE",
"158 699 LINE",
"261 710 LINE",
"261 758 LINE",
"16 758 LINE",
"16 710 LINE",
"111 697 LINE",
"55 738 LINE",
"318 340 LINE",
"296 398 LINE",
"296 39 LINE",
"319 60 LINE",
"202 42 LINE"
);
},
{
closed = 1;
nodes = (
"89 358 LINE",
"591 358 LINE",
"591 420 LINE",
"89 420 LINE"
);
},
{
closed = 1;
nodes = (
"89 184 LINE",
"591 184 LINE",
"591 246 LINE",
"89 246 LINE"
);
}
);
width = 687;
}
);
note = yen;
unicode = 00A5;
},
{
glyphname = brokenbar;
lastChange = "2016-06-11 22:37:54 +0000";
layers = (
{
layerId = "70CB0793-CC2E-4F1A-A11D-52AA668529D4";
paths = (
{
closed = 1;
nodes = (
"175 433 LINE",
"259 433 LINE",
"259 869 LINE",
"175 869 LINE"
);
},
{
closed = 1;
nodes = (
"175 -91 LINE",
"259 -91 LINE",
"259 346 LINE",
"175 346 LINE"
);
}
);
width = 426;
}
);
note = brokenbar;
unicode = 00A6;
},
{
glyphname = section;
lastChange = "2016-06-11 22:37:54 +0000";
layers = (
{
layerId = "70CB0793-CC2E-4F1A-A11D-52AA668529D4";
paths = (
{
closed = 1;
nodes = (
"505 150 LINE",
"542 183 OFFCURVE",
"565 256 OFFCURVE",
"565 320 CURVE SMOOTH",
"565 529 OFFCURVE",
"189 517 OFFCURVE",
"189 682 CURVE SMOOTH",
"189 781 OFFCURVE",
"280 816 OFFCURVE",
"333 816 CURVE SMOOTH",
"383 816 OFFCURVE",
"432 806 OFFCURVE",
"449 787 CURVE",
"487 693 LINE",
"529 693 LINE",
"529 828 LINE",
"500 845 OFFCURVE",
"434 866 OFFCURVE",
"338 866 CURVE SMOOTH",
"241 866 OFFCURVE",
"100 803 OFFCURVE",
"100 663 CURVE SMOOTH",
"100 455 OFFCURVE",
"474 464 OFFCURVE",
"474 291 CURVE SMOOTH",
"474 254 OFFCURVE",
"461 202 OFFCURVE",
"441 182 CURVE"
);
},
{
closed = 1;
nodes = (
"83 -89 LINE",
"111 -106 OFFCURVE",
"209 -130 OFFCURVE",
"306 -130 CURVE SMOOTH",
"440 -130 OFFCURVE",
"558 -77 OFFCURVE",
"558 66 CURVE SMOOTH",
"558 275 OFFCURVE",
"182 264 OFFCURVE",
"182 429 CURVE SMOOTH",
"182 472 OFFCURVE",
"201 526 OFFCURVE",
"226 545 CURVE",
"160 570 LINE",
"120 539 OFFCURVE",
"92 471 OFFCURVE",
"92 410 CURVE SMOOTH",
"92 202 OFFCURVE",
"467 210 OFFCURVE",
"467 37 CURVE SMOOTH",
"467 -50 OFFCURVE",
"386 -79 OFFCURVE",
"319 -79 CURVE SMOOTH",
"261 -79 OFFCURVE",
"201 -75 OFFCURVE",
"157 -26 CURVE",
"125 68 LINE",
"83 68 LINE"
);
}
);
width = 647;
}
);
note = section;
unicode = 00A7;
},
{
glyphname = dieresis;
lastChange = "2016-06-11 22:37:54 +0000";
layers = (
{
layerId = "70CB0793-CC2E-4F1A-A11D-52AA668529D4";
paths = (
{
closed = 1;
nodes = (
"404 675 OFFCURVE",
"440 701 OFFCURVE",
"440 744 CURVE SMOOTH",
"440 777 OFFCURVE",
"421 804 OFFCURVE",
"378 804 CURVE SMOOTH",
"343 804 OFFCURVE",
"307 774 OFFCURVE",
"307 733 CURVE SMOOTH",
"307 695 OFFCURVE",
"335 675 OFFCURVE",
"367 675 CURVE SMOOTH"
);
},
{
closed = 1;
nodes = (
"177 675 OFFCURVE",
"213 701 OFFCURVE",
"213 744 CURVE SMOOTH",
"213 777 OFFCURVE",
"194 804 OFFCURVE",
"151 804 CURVE SMOOTH",
"116 804 OFFCURVE",
"79 774 OFFCURVE",
"79 733 CURVE SMOOTH",
"79 695 OFFCURVE",
"108 675 OFFCURVE",
"140 675 CURVE SMOOTH"
);
}
);
width = 518;
}
);
note = dieresis;
unicode = 00A8;
},
{
glyphname = copyright;
lastChange = "2016-06-11 22:37:54 +0000";
layers = (
{
layerId = "70CB0793-CC2E-4F1A-A11D-52AA668529D4";
paths = (
{
closed = 1;
nodes = (
"306 166 OFFCURVE",
"150 330 OFFCURVE",
"150 522 CURVE SMOOTH",
"150 716 OFFCURVE",
"306 879 OFFCURVE",
"499 879 CURVE SMOOTH",
"691 879 OFFCURVE",
"846 716 OFFCURVE",
"846 522 CURVE SMOOTH",
"846 330 OFFCURVE",
"691 166 OFFCURVE",
"499 166 CURVE SMOOTH"
);
},
{
closed = 1;
nodes = (
"724 107 OFFCURVE",
"910 298 OFFCURVE",
"910 522 CURVE SMOOTH",
"910 748 OFFCURVE",
"724 938 OFFCURVE",
"499 938 CURVE SMOOTH",
"273 938 OFFCURVE",
"87 748 OFFCURVE",
"87 522 CURVE SMOOTH",
"87 298 OFFCURVE",
"273 107 OFFCURVE",
"499 107 CURVE SMOOTH"
);
},
{
closed = 1;
nodes = (
"572 285 OFFCURVE",
"633 313 OFFCURVE",
"661 345 CURVE",
"647 380 LINE",
"631 365 OFFCURVE",
"579 352 OFFCURVE",
"538 352 CURVE SMOOTH",
"445 352 OFFCURVE",
"375 429 OFFCURVE",
"375 538 CURVE SMOOTH",
"375 641 OFFCURVE",
"417 715 OFFCURVE",
"494 715 CURVE SMOOTH",
"548 715 OFFCURVE",
"561 709 OFFCURVE",
"576 699 CURVE",
"600 637 LINE",
"656 637 LINE",
"656 740 LINE",
"632 770 OFFCURVE",
"538 770 OFFCURVE",
"503 768 CURVE SMOOTH",
"401 761 OFFCURVE",
"285 655 OFFCURVE",
"285 518 CURVE SMOOTH",
"285 383 OFFCURVE",
"359 285 OFFCURVE",
"503 285 CURVE SMOOTH"
);
}
);
width = 996;
}
);
note = copyright;
unicode = 00A9;
},
{
glyphname = ordfeminine;
lastChange = "2016-06-11 22:37:54 +0000";
layers = (
{
layerId = "70CB0793-CC2E-4F1A-A11D-52AA668529D4";
paths = (
{
closed = 1;
nodes = (
"375 356 OFFCURVE",
"415 366 OFFCURVE",
"432 373 CURVE",
"432 410 LINE",
"389 410 LINE",
"390 633 LINE SMOOTH",
"390 760 OFFCURVE",
"322 778 OFFCURVE",
"228 778 CURVE SMOOTH",
"165 778 OFFCURVE",
"90 757 OFFCURVE",
"61 731 CURVE",
"80 688 LINE",
"103 706 OFFCURVE",
"150 718 OFFCURVE",
"200 718 CURVE SMOOTH",
"261 718 OFFCURVE",
"305 710 OFFCURVE",
"305 627 CURVE SMOOTH",
"304 437 LINE",
"307 437 LINE",
"307 402 LINE SMOOTH",
"307 362 OFFCURVE",
"327 356 OFFCURVE",
"351 356 CURVE SMOOTH"
);
},
{
closed = 1;
nodes = (
"248 359 OFFCURVE",
"292 396 OFFCURVE",
"312 414 CURVE",
"333 452 LINE",
"304 450 LINE",
"280 428 OFFCURVE",
"229 417 OFFCURVE",
"195 417 CURVE SMOOTH",
"160 417 OFFCURVE",
"130 443 OFFCURVE",
"130 492 CURVE SMOOTH",
"130 553 OFFCURVE",
"203 570 OFFCURVE",
"305 570 CURVE",
"346 584 LINE",
"305 615 LINE",
"168 615 OFFCURVE",
"39 594 OFFCURVE",
"39 476 CURVE SMOOTH",
"39 394 OFFCURVE",
"115 359 OFFCURVE",
"158 359 CURVE SMOOTH"
);
}
);
width = 470;
}
);
note = ordfeminine;
unicode = 00AA;
},
{
glyphname = guillemotleft;
lastChange = "2016-06-11 22:37:54 +0000";
layers = (
{
layerId = "70CB0793-CC2E-4F1A-A11D-52AA668529D4";
paths = (
{
closed = 1;
nodes = (
"120 258 LINE",
"436 80 LINE",
"461 124 LINE",
"186 317 LINE",
"186 282 LINE",
"461 483 LINE",
"436 525 LINE",
"120 338 LINE"
);
},
{
closed = 1;
nodes = (
"465 258 LINE",
"782 80 LINE",
"807 124 LINE",
"531 317 LINE",
"531 282 LINE",
"807 483 LINE",
"782 525 LINE",
"465 338 LINE"
);
}
);
width = 926;
}
);
note = guillemotleft;
unicode = 00AB;
},
{
glyphname = logicalnot;
lastChange = "2016-06-11 22:37:54 +0000";
layers = (
{
layerId = "70CB0793-CC2E-4F1A-A11D-52AA668529D4";
paths = (
{
closed = 1;
nodes = (
"435 167 LINE",
"515 167 LINE",
"515 426 LINE",
"87 426 LINE",
"87 363 LINE",
"435 363 LINE"
);
}
);
width = 601;
}
);
note = logicalnot;
unicode = 00AC;
},
{
glyphname = registered;
lastChange = "2016-06-11 22:37:54 +0000";
layers = (
{
layerId = "70CB0793-CC2E-4F1A-A11D-52AA668529D4";
paths = (
{
closed = 1;
nodes = (
"306 166 OFFCURVE",
"150 330 OFFCURVE",
"150 522 CURVE SMOOTH",
"150 716 OFFCURVE",
"306 879 OFFCURVE",
"499 879 CURVE SMOOTH",
"691 879 OFFCURVE",
"846 716 OFFCURVE",
"846 522 CURVE SMOOTH",
"846 330 OFFCURVE",
"691 166 OFFCURVE",
"499 166 CURVE SMOOTH"
);
},
{
closed = 1;
nodes = (
"306 290 LINE",
"482 290 LINE",
"482 332 LINE",
"438 342 LINE",
"438 493 LINE",
"474 493 LINE",
"571 452 OFFCURVE",
"553 290 OFFCURVE",
"644 290 CURVE SMOOTH",
"721 290 LINE",
"721 335 LINE",
"642 335 OFFCURVE",
"644 453 OFFCURVE",
"557 502 CURVE",
"662 521 OFFCURVE",
"684 589 OFFCURVE",
"684 647 CURVE",
"682 722 OFFCURVE",
"624 762 OFFCURVE",
"513 762 CURVE SMOOTH",
"431 761 OFFCURVE",
"423 759 OFFCURVE",
"384 760 CURVE SMOOTH",
"306 760 LINE",
"306 712 LINE",
"351 701 LINE",
"351 345 LINE",
"306 332 LINE"
);
},
{
closed = 1;
nodes = (
"438 708 LINE",
"465 714 OFFCURVE",
"473 713 OFFCURVE",
"495 713 CURVE SMOOTH",
"555 713 OFFCURVE",
"596 687 OFFCURVE",
"596 625 CURVE SMOOTH",
"596 578 OFFCURVE",
"558 537 OFFCURVE",
"503 537 CURVE SMOOTH",
"474 537 OFFCURVE",
"458 537 OFFCURVE",
"438 541 CURVE"
);
},
{
closed = 1;
nodes = (
"724 107 OFFCURVE",
"910 298 OFFCURVE",
"910 522 CURVE SMOOTH",
"910 748 OFFCURVE",
"724 938 OFFCURVE",
"499 938 CURVE SMOOTH",
"273 938 OFFCURVE",
"87 748 OFFCURVE",
"87 522 CURVE SMOOTH",
"87 298 OFFCURVE",
"273 107 OFFCURVE",
"499 107 CURVE SMOOTH"
);
}
);
width = 996;
}
);
note = registered;
unicode = 00AE;
},
{
glyphname = macron;
lastChange = "2016-06-11 22:37:54 +0000";
layers = (
{
layerId = "70CB0793-CC2E-4F1A-A11D-52AA668529D4";
paths = (
{
closed = 1;
nodes = (
"95 705 LINE",
"354 705 LINE",
"354 777 LINE",
"95 777 LINE"
);
}
);
width = 432;
}
);
note = macron;
unicode = 00AF;
},
{
glyphname = degree;
lastChange = "2016-06-11 22:37:54 +0000";
layers = (
{
layerId = "70CB0793-CC2E-4F1A-A11D-52AA668529D4";
paths = (
{
closed = 1;
nodes = (
"251 469 OFFCURVE",
"321 540 OFFCURVE",
"321 624 CURVE SMOOTH",
"321 708 OFFCURVE",
"251 778 OFFCURVE",
"165 778 CURVE SMOOTH",
"80 778 OFFCURVE",
"10 708 OFFCURVE",
"10 624 CURVE SMOOTH",
"10 540 OFFCURVE",
"80 469 OFFCURVE",
"165 469 CURVE SMOOTH"
);
},
{
closed = 1;
nodes = (
"110 525 OFFCURVE",
"67 570 OFFCURVE",
"67 624 CURVE SMOOTH",
"67 680 OFFCURVE",
"108 723 OFFCURVE",
"165 723 CURVE SMOOTH",
"220 723 OFFCURVE",
"263 678 OFFCURVE",
"263 624 CURVE SMOOTH",
"263 567 OFFCURVE",
"222 525 OFFCURVE",
"165 525 CURVE SMOOTH"
);
}
);
width = 330;
}
);
note = degree;
unicode = 00B0;
},
{
glyphname = plusminus;
lastChange = "2016-06-11 22:37:54 +0000";
layers = (
{
layerId = "70CB0793-CC2E-4F1A-A11D-52AA668529D4";
paths = (
{
closed = 1;
nodes = (
"93 15 LINE",
"525 15 LINE",
"525 86 LINE",
"93 86 LINE"
);
},
{
closed = 1;
nodes = (
"272 157 LINE",
"348 157 LINE",
"348 274 LINE",
"343 355 LINE",
"410 352 LINE",
"533 352 LINE",
"533 427 LINE",
"410 427 LINE",
"343 421 LINE",
"348 504 LINE",
"348 615 LINE",
"272 615 LINE",
"272 504 LINE",
"275 421 LINE",
"194 427 LINE",
"87 427 LINE",
"87 352 LINE",
"194 352 LINE",
"275 355 LINE",
"272 274 LINE"
);
}
);
width = 619;
}
);
note = plusminus;
unicode = 00B1;
},
{
glyphname = twosuperior;
lastChange = "2016-06-11 22:37:54 +0000";
layers = (
{
layerId = "70CB0793-CC2E-4F1A-A11D-52AA668529D4";
paths = (
{
closed = 1;
nodes = (
"91 352 LINE",
"516 352 LINE",
"543 477 LINE",
"493 497 LINE",
"435 429 LINE",
"129 407 LINE",
"133 385 LINE",
"329 487 OFFCURVE",
"485 573 OFFCURVE",
"485 709 CURVE SMOOTH",
"485 757 OFFCURVE",
"451 844 OFFCURVE",
"292 844 CURVE SMOOTH",
"190 844 OFFCURVE",
"101 783 OFFCURVE",
"70 734 CURVE",
"106 691 LINE",
"145 741 OFFCURVE",
"215 771 OFFCURVE",
"271 771 CURVE SMOOTH",
"327 771 OFFCURVE",
"378 748 OFFCURVE",
"378 678 CURVE SMOOTH",
"378 579 OFFCURVE",
"144 446 OFFCURVE",
"70 408 CURVE"
);
}
);
width = 613;
}
);
note = twosuperior;
unicode = 00B2;
},
{
glyphname = threesuperior;
lastChange = "2016-06-11 22:37:54 +0000";
layers = (
{
layerId = "70CB0793-CC2E-4F1A-A11D-52AA668529D4";
paths = (
{
closed = 1;
nodes = (
"110 329 LINE",
"157 307 OFFCURVE",
"220 296 OFFCURVE",
"259 296 CURVE SMOOTH",
"402 296 OFFCURVE",
"485 366 OFFCURVE",
"485 458 CURVE SMOOTH",
"485 502 OFFCURVE",
"453 593 OFFCURVE",
"336 587 CURVE",
"410 614 OFFCURVE",
"447 658 OFFCURVE",
"447 717 CURVE SMOOTH",
"447 787 OFFCURVE",
"378 849 OFFCURVE",
"259 836 CURVE SMOOTH",
"194 829 OFFCURVE",
"122 797 OFFCURVE",
"92 774 CURVE",
"116 730 LINE",
"148 753 OFFCURVE",
"210 773 OFFCURVE",
"259 775 CURVE SMOOTH",
"297 776 OFFCURVE",
"348 760 OFFCURVE",
"349 720 CURVE SMOOTH",
"349 708 OFFCURVE",
"349 695 OFFCURVE",
"345 684 CURVE",
"327 640 OFFCURVE",
"294 607 OFFCURVE",
"188 586 CURVE",
"188 527 LINE",
"284 547 LINE",
"343 546 OFFCURVE",
"389 519 OFFCURVE",
"389 462 CURVE SMOOTH",
"389 404 OFFCURVE",
"343 358 OFFCURVE",
"247 357 CURVE SMOOTH",
"206 357 OFFCURVE",
"148 368 OFFCURVE",
"110 383 CURVE"
);
}
);
width = 559;
}
);
note = threesuperior;
unicode = 00B3;
},
{
glyphname = acute;
lastChange = "2016-06-11 22:37:54 +0000";
layers = (
{
layerId = "70CB0793-CC2E-4F1A-A11D-52AA668529D4";
paths = (
{
closed = 1;
nodes = (
"134 654 LINE",
"187 679 OFFCURVE",
"284 736 OFFCURVE",
"323 796 CURVE",
"252 869 LINE",
"108 681 LINE"
);
}
);
width = 431;
}
);
note = acute;
unicode = 00B4;
},
{
glyphname = mu;
lastChange = "2016-06-11 22:37:54 +0000";
layers = (
{
layerId = "70CB0793-CC2E-4F1A-A11D-52AA668529D4";
paths = (
{
closed = 1;
nodes = (
"350 -10 OFFCURVE",
"415 14 OFFCURVE",
"471 65 CURVE",
"471 25 LINE SMOOTH",
"471 -4 OFFCURVE",
"490 -17 OFFCURVE",
"521 -17 CURVE SMOOTH",
"552 -17 OFFCURVE",
"593 -6 OFFCURVE",
"612 4 CURVE",
"612 42 LINE",
"554 42 LINE",
"554 548 LINE",
"540 556 LINE",
"400 528 LINE",
"400 488 LINE",
"461 473 LINE",
"461 112 LINE",
"444 94 OFFCURVE",
"385 57 OFFCURVE",
"327 57 CURVE SMOOTH",
"242 57 OFFCURVE",
"221 103 OFFCURVE",
"221 211 CURVE SMOOTH",
"221 547 LINE",
"204 556 LINE",
"79 529 LINE",
"79 492 LINE",
"129 477 LINE",
"129 225 LINE SMOOTH",
"130 90 OFFCURVE",
"138 -10 OFFCURVE",
"291 -10 CURVE SMOOTH"
);
},
{
closed = 1;
nodes = (
"129 -182 LINE",
"221 -182 LINE",
"221 55 LINE",
"129 225 LINE"
);
}
);
width = 690;
}
);
note = mu;
unicode = 00B5;
},
{
glyphname = paragraph;
lastChange = "2016-06-11 22:37:54 +0000";
layers = (
{
layerId = "70CB0793-CC2E-4F1A-A11D-52AA668529D4";
paths = (
{
closed = 1;
nodes = (
"167 0 LINE",
"346 0 LINE",
"346 693 LINE",
"441 693 LINE",
"442 0 LINE",
"597 0 LINE",
"597 42 LINE",
"525 56 LINE",
"525 693 LINE",
"609 709 LINE",
"609 758 LINE",
"525 758 LINE SMOOTH",
"470 759 OFFCURVE",
"354 768 OFFCURVE",
"310 768 CURVE SMOOTH",
"137 768 OFFCURVE",
"58 677 OFFCURVE",
"58 550 CURVE SMOOTH",
"58 398 OFFCURVE",
"126 330 OFFCURVE",
"265 330 CURVE",
"265 56 LINE",
"167 42 LINE"
);
}
);
width = 657;
}
);
note = paragraph;
unicode = 00B6;
},
{
glyphname = periodcentered;
lastChange = "2016-06-11 22:37:54 +0000";
layers = (
{
layerId = "70CB0793-CC2E-4F1A-A11D-52AA668529D4";
paths = (
{
closed = 1;
nodes = (
"204 348 OFFCURVE",
"240 375 OFFCURVE",
"240 418 CURVE SMOOTH",
"240 451 OFFCURVE",
"221 479 OFFCURVE",
"178 479 CURVE SMOOTH",
"143 479 OFFCURVE",
"105 449 OFFCURVE",
"105 408 CURVE SMOOTH",
"105 370 OFFCURVE",
"135 348 OFFCURVE",
"167 348 CURVE SMOOTH"
);
}
);
width = 344;
}
);
note = periodcentered;
unicode = 00B7;
},
{
glyphname = cedilla;
lastChange = "2016-06-11 22:37:54 +0000";
layers = (
{
layerId = "70CB0793-CC2E-4F1A-A11D-52AA668529D4";
paths = (
{
closed = 1;
nodes = (
"85 -252 OFFCURVE",
"105 -260 OFFCURVE",
"162 -257 CURVE SMOOTH",
"233 -254 OFFCURVE",
"285 -217 OFFCURVE",
"285 -153 CURVE SMOOTH",
"285 -111 OFFCURVE",
"251 -61 OFFCURVE",
"161 -61 CURVE",
"159 -41 OFFCURVE",
"161 -16 OFFCURVE",
"163 0 CURVE",
"106 0 LINE",
"95 -40 OFFCURVE",
"89 -72 OFFCURVE",
"89 -104 CURVE",
"91 -104 OFFCURVE",
"106 -102 OFFCURVE",
"113 -102 CURVE SMOOTH",
"166 -102 OFFCURVE",
"189 -123 OFFCURVE",
"189 -151 CURVE SMOOTH",
"189 -200 OFFCURVE",
"157 -205 OFFCURVE",
"121 -205 CURVE SMOOTH",
"109 -205 OFFCURVE",
"81 -202 OFFCURVE",
"66 -198 CURVE",
"66 -215 OFFCURVE",
"65 -230 OFFCURVE",
"65 -247 CURVE"
);
}
);
width = 300;
}
);
note = cedilla;
unicode = 00B8;
},
{
glyphname = onesuperior;
lastChange = "2016-06-11 22:37:54 +0000";
layers = (
{
layerId = "70CB0793-CC2E-4F1A-A11D-52AA668529D4";
paths = (
{
closed = 1;
nodes = (
"105 351 LINE",
"458 351 LINE",
"458 393 LINE",
"315 407 LINE",
"332 385 LINE",
"333 834 LINE",
"308 842 LINE",
"285 823 OFFCURVE",
"154 764 OFFCURVE",
"95 747 CURVE",
"105 699 LINE",
"149 708 OFFCURVE",
"194 716 OFFCURVE",
"238 725 CURVE",
"238 387 LINE",
"258 408 LINE",
"105 393 LINE"
);
}
);
width = 529;
}
);
note = onesuperior;
unicode = 00B9;
},
{
glyphname = ordmasculine;
lastChange = "2016-06-11 22:37:54 +0000";
layers = (
{
layerId = "70CB0793-CC2E-4F1A-A11D-52AA668529D4";
paths = (
{
closed = 1;
nodes = (
"326 359 OFFCURVE",
"442 417 OFFCURVE",
"443 564 CURVE SMOOTH",
"444 694 OFFCURVE",
"370 778 OFFCURVE",
"249 778 CURVE SMOOTH",
"158 778 OFFCURVE",
"46 717 OFFCURVE",
"44 569 CURVE SMOOTH",
"42 434 OFFCURVE",
"130 359 OFFCURVE",
"239 359 CURVE SMOOTH"
);
},
{
closed = 1;
nodes = (
"184 409 OFFCURVE",
"140 472 OFFCURVE",
"140 574 CURVE SMOOTH",
"140 682 OFFCURVE",
"180 727 OFFCURVE",
"244 728 CURVE SMOOTH",
"308 729 OFFCURVE",
"347 660 OFFCURVE",
"347 559 CURVE SMOOTH",
"347 436 OFFCURVE",
"307 409 OFFCURVE",
"237 409 CURVE SMOOTH"
);
}
);
width = 487;
}
);
note = ordmasculine;
unicode = 00BA;
},
{
glyphname = guillemotright;
lastChange = "2016-06-11 22:37:54 +0000";
layers = (
{
layerId = "70CB0793-CC2E-4F1A-A11D-52AA668529D4";
paths = (
{
closed = 1;
nodes = (
"461 347 LINE",
"145 525 LINE",
"120 480 LINE",
"395 287 LINE",
"395 322 LINE",
"120 121 LINE",
"145 80 LINE",
"461 266 LINE"
);
},
{
closed = 1;
nodes = (
"807 347 LINE",
"491 525 LINE",
"466 480 LINE",
"741 287 LINE",
"741 322 LINE",
"466 121 LINE",
"491 80 LINE",
"807 266 LINE"
);
}
);
width = 926;
}
);
note = guillemotright;
unicode = 00BB;
},
{
glyphname = onequarter;
lastChange = "2016-06-11 22:37:54 +0000";
layers = (
{
layerId = "70CB0793-CC2E-4F1A-A11D-52AA668529D4";
paths = (
{
closed = 1;
nodes = (
"389 -146 LINE",
"453 -167 LINE",
"831 897 LINE",
"767 918 LINE"
);
},
{
closed = 1;
nodes = (
"714 92 LINE",
"1192 92 LINE",
"1190 175 LINE",
"771 142 LINE",
"806 189 LINE",
"1056 494 LINE",
"1002 544 LINE",
"969 543 LINE",
"688 138 LINE"
);
},
{
closed = 1;
nodes = (
"969 -86 LINE",
"1057 -86 LINE",
"1057 291 LINE",
"971 281 LINE"
);
},
{
closed = 1;
nodes = (
"120 351 LINE",
"473 351 LINE",
"473 393 LINE",
"330 407 LINE",
"347 385 LINE",
"348 834 LINE",
"323 842 LINE",
"300 823 OFFCURVE",
"169 764 OFFCURVE",
"110 747 CURVE",
"120 699 LINE",
"164 708 OFFCURVE",
"208 716 OFFCURVE",
"252 725 CURVE",
"252 387 LINE",
"273 408 LINE",
"120 393 LINE"
);
}
);
width = 1282;
}
);
note = onequarter;
unicode = 00BC;
},
{
glyphname = onehalf;
lastChange = "2016-06-11 22:37:54 +0000";
layers = (
{
layerId = "70CB0793-CC2E-4F1A-A11D-52AA668529D4";
paths = (
{
closed = 1;
nodes = (
"389 -152 LINE",
"453 -167 LINE",
"831 900 LINE",
"767 918 LINE"
);
},
{
closed = 1;
nodes = (
"120 351 LINE",
"473 351 LINE",
"473 393 LINE",
"330 407 LINE",
"347 385 LINE",
"348 834 LINE",
"323 842 LINE",
"300 823 OFFCURVE",
"169 764 OFFCURVE",
"110 747 CURVE",
"120 699 LINE",
"164 708 OFFCURVE",
"208 716 OFFCURVE",
"252 725 CURVE",
"252 387 LINE",
"273 408 LINE",
"120 393 LINE"
);
},
{
closed = 1;
nodes = (
"736 -1 LINE",
"1160 -1 LINE",
"1188 124 LINE",
"1137 145 LINE",
"1079 76 LINE",
"774 54 LINE",
"778 33 LINE",
"974 135 OFFCURVE",
"1130 221 OFFCURVE",
"1130 357 CURVE SMOOTH",
"1130 405 OFFCURVE",
"1096 492 OFFCURVE",
"937 492 CURVE SMOOTH",
"835 492 OFFCURVE",
"745 430 OFFCURVE",
"714 381 CURVE",
"750 339 LINE",
"789 389 OFFCURVE",
"859 419 OFFCURVE",
"915 419 CURVE SMOOTH",
"971 419 OFFCURVE",
"1022 395 OFFCURVE",
"1022 325 CURVE SMOOTH",
"1022 226 OFFCURVE",
"789 94 OFFCURVE",
"715 56 CURVE"
);
}
);
width = 1282;
}
);
note = onehalf;
unicode = 00BD;
},
{
glyphname = threequarters;
lastChange = "2016-06-11 22:37:54 +0000";
layers = (
{
layerId = "70CB0793-CC2E-4F1A-A11D-52AA668529D4";
paths = (
{
closed = 1;
nodes = (
"714 92 LINE",
"1192 92 LINE",
"1190 175 LINE",
"771 142 LINE",
"806 189 LINE",
"1056 494 LINE",
"1002 544 LINE",
"969 543 LINE",
"688 138 LINE"
);
},
{
closed = 1;
nodes = (
"969 -86 LINE",
"1057 -86 LINE",
"1057 291 LINE",
"971 281 LINE"
);
},
{
closed = 1;
nodes = (
"389 -152 LINE",
"453 -167 LINE",
"831 900 LINE",
"767 918 LINE"
);
},
{
closed = 1;
nodes = (
"110 329 LINE",
"157 307 OFFCURVE",
"220 296 OFFCURVE",
"259 296 CURVE SMOOTH",
"402 296 OFFCURVE",
"485 366 OFFCURVE",
"485 458 CURVE SMOOTH",
"485 502 OFFCURVE",
"453 593 OFFCURVE",
"336 587 CURVE",
"410 614 OFFCURVE",
"447 658 OFFCURVE",
"447 717 CURVE SMOOTH",
"447 787 OFFCURVE",
"378 849 OFFCURVE",
"259 836 CURVE SMOOTH",
"194 829 OFFCURVE",
"122 797 OFFCURVE",
"92 774 CURVE",
"116 730 LINE",
"148 753 OFFCURVE",
"210 773 OFFCURVE",
"259 775 CURVE SMOOTH",
"297 776 OFFCURVE",
"348 760 OFFCURVE",
"349 720 CURVE SMOOTH",
"349 708 OFFCURVE",
"349 695 OFFCURVE",
"345 684 CURVE",
"327 640 OFFCURVE",
"294 607 OFFCURVE",
"188 586 CURVE",
"188 527 LINE",
"284 547 LINE",
"343 546 OFFCURVE",
"389 519 OFFCURVE",
"389 462 CURVE SMOOTH",
"389 404 OFFCURVE",
"343 358 OFFCURVE",
"247 357 CURVE SMOOTH",
"206 357 OFFCURVE",
"148 368 OFFCURVE",
"110 383 CURVE"
);
}
);
width = 1282;
}
);
note = threequarters;
unicode = 00BE;
},
{
glyphname = questiondown;
lastChange = "2016-06-11 22:37:54 +0000";
layers = (
{
layerId = "70CB0793-CC2E-4F1A-A11D-52AA668529D4";
paths = (
{
closed = 1;
nodes = (
"377 -204 OFFCURVE",
"421 -194 OFFCURVE",
"431 -181 CURVE",
"431 -107 LINE",
"413 -115 OFFCURVE",
"375 -118 OFFCURVE",
"350 -118 CURVE SMOOTH",
"223 -118 OFFCURVE",
"108 -6 OFFCURVE",
"115 122 CURVE",
"130 169 OFFCURVE",
"357 205 OFFCURVE",
"354 287 CURVE",
"350 341 OFFCURVE",
"295 430 OFFCURVE",
"264 453 CURVE",
"212 453 LINE",
"234 393 OFFCURVE",
"267 336 OFFCURVE",
"259 283 CURVE",
"239 221 OFFCURVE",
"43 187 OFFCURVE",
"43 115 CURVE",
"25 -12 OFFCURVE",
"94 -204 OFFCURVE",
"338 -204 CURVE SMOOTH"
);
},
{
closed = 1;
nodes = (
"251 572 OFFCURVE",
"288 600 OFFCURVE",
"288 643 CURVE SMOOTH",
"288 676 OFFCURVE",
"269 703 OFFCURVE",
"226 703 CURVE SMOOTH",
"191 703 OFFCURVE",
"153 673 OFFCURVE",
"153 632 CURVE SMOOTH",
"153 594 OFFCURVE",
"182 572 OFFCURVE",
"214 572 CURVE SMOOTH"
);
}
);
width = 494;
}
);
note = questiondown;
unicode = 00BF;
},
{
glyphname = Agrave;
lastChange = "2016-06-11 22:37:54 +0000";
layers = (
{
layerId = "70CB0793-CC2E-4F1A-A11D-52AA668529D4";
paths = (
{
closed = 1;
nodes = (
"1 0 LINE",
"234 0 LINE",
"234 42 LINE",
"135 60 LINE",
"145 32 LINE",
"354 656 LINE",
"400 509 LINE",
"559 34 LINE",
"574 61 LINE",
"470 42 LINE",
"470 0 LINE",
"728 0 LINE",
"728 42 LINE",
"625 61 LINE",
"659 31 LINE",
"407 758 LINE",
"325 758 LINE",
"63 35 LINE",
"99 62 LINE",
"1 42 LINE"
);
},
{
closed = 1;
nodes = (
"169 213 LINE",
"553 213 LINE",
"532 271 LINE",
"190 271 LINE"
);
},
{
closed = 1;
nodes = (
"397 811 LINE",
"248 938 LINE",
"176 865 LINE",
"237 826 OFFCURVE",
"310 796 OFFCURVE",
"371 785 CURVE"
);
}
);
width = 729;
}
);
note = Agrave;
unicode = 00C0;
},
{
glyphname = Aacute;
lastChange = "2016-06-11 22:37:54 +0000";
layers = (
{
layerId = "70CB0793-CC2E-4F1A-A11D-52AA668529D4";
paths = (
{
closed = 1;
nodes = (
"1 0 LINE",
"234 0 LINE",
"234 42 LINE",
"135 60 LINE",
"145 32 LINE",
"354 656 LINE",
"400 509 LINE",
"559 34 LINE",
"574 61 LINE",
"470 42 LINE",
"470 0 LINE",
"728 0 LINE",
"728 42 LINE",
"625 61 LINE",
"659 31 LINE",
"407 758 LINE",
"325 758 LINE",
"63 35 LINE",
"99 62 LINE",
"1 42 LINE"
);
},
{
closed = 1;
nodes = (
"169 213 LINE",
"553 213 LINE",
"532 271 LINE",
"190 271 LINE"
);
},
{
closed = 1;
nodes = (
"361 785 LINE",
"422 796 OFFCURVE",
"495 826 OFFCURVE",
"556 865 CURVE",
"485 938 LINE",
"335 811 LINE"
);
}
);
width = 729;
}
);
note = Aacute;
unicode = 00C1;
},
{
glyphname = Acircumflex;
lastChange = "2016-06-11 22:37:54 +0000";
layers = (
{
layerId = "70CB0793-CC2E-4F1A-A11D-52AA668529D4";
paths = (
{
closed = 1;
nodes = (
"1 0 LINE",
"234 0 LINE",
"234 42 LINE",
"135 60 LINE",
"145 32 LINE",
"354 656 LINE",
"400 509 LINE",
"559 34 LINE",
"574 61 LINE",
"470 42 LINE",
"470 0 LINE",
"728 0 LINE",
"728 42 LINE",
"625 61 LINE",
"659 31 LINE",
"407 758 LINE",
"325 758 LINE",
"63 35 LINE",
"99 62 LINE",
"1 42 LINE"
);
},
{
closed = 1;
nodes = (
"169 213 LINE",
"553 213 LINE",
"532 271 LINE",
"190 271 LINE"
);
},
{
closed = 1;
nodes = (
"234 789 LINE",
"366 871 LINE",
"495 789 LINE",
"537 813 LINE",
"412 938 LINE",
"319 938 LINE",
"196 812 LINE"
);
}
);
width = 729;
}
);
note = Acircumflex;
unicode = 00C2;
},
{
glyphname = Atilde;
lastChange = "2016-06-11 22:37:54 +0000";
layers = (
{
layerId = "70CB0793-CC2E-4F1A-A11D-52AA668529D4";
paths = (
{
closed = 1;
nodes = (
"1 0 LINE",
"234 0 LINE",
"234 42 LINE",
"135 60 LINE",
"145 32 LINE",
"354 656 LINE",
"400 509 LINE",
"559 34 LINE",
"574 61 LINE",
"470 42 LINE",
"470 0 LINE",
"728 0 LINE",
"728 42 LINE",
"625 61 LINE",
"659 31 LINE",
"407 758 LINE",
"325 758 LINE",
"63 35 LINE",
"99 62 LINE",
"1 42 LINE"
);
},
{
closed = 1;
nodes = (
"169 213 LINE",
"553 213 LINE",
"532 271 LINE",
"190 271 LINE"
);
},
{
closed = 1;
nodes = (
"197 819 LINE",
"217 839 OFFCURVE",
"253 860 OFFCURVE",
"287 860 CURVE SMOOTH",
"335 860 OFFCURVE",
"350 796 OFFCURVE",
"414 796 CURVE SMOOTH",
"465 796 OFFCURVE",
"525 835 OFFCURVE",
"549 880 CURVE",
"524 916 LINE",
"503 895 OFFCURVE",
"472 876 OFFCURVE",
"434 876 CURVE SMOOTH",
"387 876 OFFCURVE",
"371 938 OFFCURVE",
"307 938 CURVE SMOOTH",
"256 938 OFFCURVE",
"195 899 OFFCURVE",
"171 854 CURVE"
);
}
);
width = 729;
}
);
note = Atilde;
unicode = 00C3;
},
{
glyphname = Adieresis;
lastChange = "2016-06-11 22:37:54 +0000";
layers = (
{
layerId = "70CB0793-CC2E-4F1A-A11D-52AA668529D4";
paths = (
{
closed = 1;
nodes = (
"1 0 LINE",
"234 0 LINE",
"234 42 LINE",
"135 60 LINE",
"145 32 LINE",
"354 656 LINE",
"400 509 LINE",
"559 34 LINE",
"574 61 LINE",
"470 42 LINE",
"470 0 LINE",
"728 0 LINE",
"728 42 LINE",
"625 61 LINE",
"659 31 LINE",
"407 758 LINE",
"325 758 LINE",
"63 35 LINE",
"99 62 LINE",
"1 42 LINE"
);
},
{
closed = 1;
nodes = (
"169 213 LINE",
"553 213 LINE",
"532 271 LINE",
"190 271 LINE"
);
},
{
closed = 1;
nodes = (
"282 806 OFFCURVE",
"318 834 OFFCURVE",
"318 877 CURVE SMOOTH",
"318 910 OFFCURVE",
"299 938 OFFCURVE",
"256 938 CURVE SMOOTH",
"221 938 OFFCURVE",
"184 907 OFFCURVE",
"184 866 CURVE SMOOTH",
"184 828 OFFCURVE",
"213 806 OFFCURVE",
"245 806 CURVE SMOOTH"
);
},
{
closed = 1;
nodes = (
"510 806 OFFCURVE",
"546 834 OFFCURVE",
"546 877 CURVE SMOOTH",
"546 910 OFFCURVE",
"527 938 OFFCURVE",
"484 938 CURVE SMOOTH",
"449 938 OFFCURVE",
"411 907 OFFCURVE",
"411 866 CURVE SMOOTH",
"411 828 OFFCURVE",
"441 806 OFFCURVE",
"473 806 CURVE SMOOTH"
);
}
);
width = 729;
}
);
note = Adieresis;
unicode = 00C4;
},
{
glyphname = Aring;
lastChange = "2016-06-11 22:37:54 +0000";
layers = (
{
layerId = "70CB0793-CC2E-4F1A-A11D-52AA668529D4";
paths = (
{
closed = 1;
nodes = (
"1 0 LINE",
"234 0 LINE",
"234 42 LINE",
"135 60 LINE",
"145 32 LINE",
"354 656 LINE",
"400 509 LINE",
"559 34 LINE",
"574 61 LINE",
"470 42 LINE",
"470 0 LINE",
"728 0 LINE",
"728 42 LINE",
"625 61 LINE",
"659 31 LINE",
"407 758 LINE",
"325 758 LINE",
"63 35 LINE",
"99 62 LINE",
"1 42 LINE"
);
},
{
closed = 1;
nodes = (
"169 213 LINE",
"553 213 LINE",
"532 271 LINE",
"190 271 LINE"
);
},
{
closed = 1;
nodes = (
"432 707 OFFCURVE",
"488 757 OFFCURVE",
"488 822 CURVE SMOOTH",
"488 887 OFFCURVE",
"432 938 OFFCURVE",
"365 938 CURVE SMOOTH",
"298 938 OFFCURVE",
"242 887 OFFCURVE",
"242 822 CURVE SMOOTH",
"242 757 OFFCURVE",
"298 707 OFFCURVE",
"365 707 CURVE SMOOTH"
);
},
{
closed = 1;
nodes = (
"329 759 OFFCURVE",
"300 785 OFFCURVE",
"300 821 CURVE SMOOTH",
"300 856 OFFCURVE",
"329 883 OFFCURVE",
"365 883 CURVE SMOOTH",
"401 883 OFFCURVE",
"430 856 OFFCURVE",
"430 821 CURVE SMOOTH",
"430 785 OFFCURVE",
"401 759 OFFCURVE",
"365 759 CURVE SMOOTH"
);
}
);
width = 729;
}
);
note = Aring;
unicode = 00C5;
},
{
glyphname = AE;
lastChange = "2016-06-11 22:37:54 +0000";
layers = (
{
layerId = "70CB0793-CC2E-4F1A-A11D-52AA668529D4";
paths = (
{
closed = 1;
nodes = (
"622 0 LINE",
"895 0 LINE",
"917 142 LINE",
"874 163 LINE",
"825 62 LINE",
"639 53 LINE",
"526 371 LINE",
"747 368 LINE",
"761 298 LINE",
"806 298 LINE",
"806 503 LINE",
"761 503 LINE",
"747 427 LINE",
"529 423 LINE",
"463 707 LINE",
"772 701 LINE",
"794 618 LINE",
"843 619 LINE",
"829 758 LINE",
"458 758 LINE",
"427 725 LINE"
);
},
{
closed = 1;
nodes = (
"1 0 LINE",
"234 0 LINE",
"234 42 LINE",
"133 60 LINE",
"143 32 LINE",
"383 672 LINE",
"400 579 LINE",
"568 34 LINE",
"583 61 LINE",
"481 42 LINE",
"481 0 LINE",
"749 0 LINE",
"749 37 LINE",
"641 35 LINE",
"675 31 LINE",
"458 758 LINE",
"355 758 LINE",
"62 35 LINE",
"97 62 LINE",
"1 42 LINE"
);
},
{
closed = 1;
nodes = (
"166 223 LINE",
"531 223 LINE",
"528 280 LINE",
"171 280 LINE"
);
}
);
width = 947;
}
);
note = AE;
unicode = 00C6;
},
{
glyphname = Ccedilla;
lastChange = "2016-06-11 22:37:54 +0000";
layers = (
{
layerId = "70CB0793-CC2E-4F1A-A11D-52AA668529D4";
paths = (
{
closed = 1;
nodes = (
"531 -14 OFFCURVE",
"594 29 OFFCURVE",
"640 31 CURVE",
"640 171 LINE",
"598 171 LINE",
"570 96 LINE",
"541 59 OFFCURVE",
"493 38 OFFCURVE",
"414 38 CURVE SMOOTH",
"236 38 OFFCURVE",
"142 199 OFFCURVE",
"142 384 CURVE SMOOTH",
"142 592 OFFCURVE",
"266 708 OFFCURVE",
"405 708 CURVE SMOOTH",
"473 708 OFFCURVE",
"513 698 OFFCURVE",
"554 670 CURVE",
"580 589 LINE",
"631 589 LINE",
"639 730 LINE",
"597 739 OFFCURVE",
"530 765 OFFCURVE",
"436 765 CURVE SMOOTH",
"228 765 OFFCURVE",
"42 606 OFFCURVE",
"42 354 CURVE SMOOTH",
"42 137 OFFCURVE",
"189 -14 OFFCURVE",
"391 -14 CURVE SMOOTH"
);
},
{
closed = 1;
nodes = (
"319 -247 LINE",
"339 -252 OFFCURVE",
"358 -260 OFFCURVE",
"415 -257 CURVE SMOOTH",
"486 -254 OFFCURVE",
"539 -217 OFFCURVE",
"539 -153 CURVE SMOOTH",
"539 -111 OFFCURVE",
"504 -61 OFFCURVE",
"414 -61 CURVE",
"412 -41 OFFCURVE",
"414 -16 OFFCURVE",
"416 0 CURVE",
"360 0 LINE",
"349 -40 OFFCURVE",
"342 -72 OFFCURVE",
"342 -104 CURVE",
"344 -104 OFFCURVE",
"359 -102 OFFCURVE",
"366 -102 CURVE SMOOTH",
"419 -102 OFFCURVE",
"443 -123 OFFCURVE",
"443 -151 CURVE SMOOTH",
"443 -200 OFFCURVE",
"411 -205 OFFCURVE",
"375 -205 CURVE SMOOTH",
"363 -205 OFFCURVE",
"334 -202 OFFCURVE",
"319 -198 CURVE"
);
}
);
width = 688;
}
);
note = Ccedilla;
unicode = 00C7;
},
{
glyphname = Egrave;
lastChange = "2016-06-11 22:37:54 +0000";
layers = (
{
layerId = "70CB0793-CC2E-4F1A-A11D-52AA668529D4";
paths = (
{
closed = 1;
nodes = (
"50 0 LINE",
"591 0 LINE",
"613 151 LINE",
"566 163 LINE",
"517 62 LINE",
"227 53 LINE",
"227 370 LINE",
"409 367 LINE",
"423 292 LINE",
"473 292 LINE",
"473 502 LINE",
"423 502 LINE",
"409 426 LINE",
"227 422 LINE",
"227 707 LINE",
"497 701 LINE",
"519 619 LINE",
"573 619 LINE",
"559 758 LINE",
"52 758 LINE",
"52 710 LINE",
"151 700 LINE",
"132 725 LINE",
"132 31 LINE",
"163 62 LINE",
"50 42 LINE"
);
},
{
closed = 1;
nodes = (
"386 811 LINE",
"237 938 LINE",
"166 865 LINE",
"227 826 OFFCURVE",
"299 796 OFFCURVE",
"360 785 CURVE"
);
}
);
width = 644;
}
);
note = Egrave;
unicode = 00C8;
},
{
glyphname = Eacute;
lastChange = "2016-06-11 22:37:54 +0000";
layers = (
{
layerId = "70CB0793-CC2E-4F1A-A11D-52AA668529D4";
paths = (
{
closed = 1;
nodes = (
"50 0 LINE",
"591 0 LINE",
"613 151 LINE",
"566 163 LINE",
"517 62 LINE",
"227 53 LINE",
"227 370 LINE",
"409 367 LINE",
"423 292 LINE",
"473 292 LINE",
"473 502 LINE",
"423 502 LINE",
"409 426 LINE",
"227 422 LINE",
"227 707 LINE",
"497 701 LINE",
"519 619 LINE",
"573 619 LINE",
"559 758 LINE",
"52 758 LINE",
"52 710 LINE",
"151 700 LINE",
"132 725 LINE",
"132 31 LINE",
"163 62 LINE",
"50 42 LINE"
);
},
{
closed = 1;
nodes = (
"351 785 LINE",
"412 796 OFFCURVE",
"484 826 OFFCURVE",
"545 865 CURVE",
"474 938 LINE",
"325 811 LINE"
);
}
);
width = 644;
}
);
note = Eacute;
unicode = 00C9;
},
{
glyphname = Ecircumflex;
lastChange = "2016-06-11 22:37:54 +0000";
layers = (
{
layerId = "70CB0793-CC2E-4F1A-A11D-52AA668529D4";
paths = (
{
closed = 1;
nodes = (
"50 0 LINE",
"591 0 LINE",
"613 151 LINE",
"566 163 LINE",
"517 62 LINE",
"227 53 LINE",
"227 370 LINE",
"409 367 LINE",
"423 292 LINE",
"473 292 LINE",
"473 502 LINE",
"423 502 LINE",
"409 426 LINE",
"227 422 LINE",
"227 707 LINE",
"497 701 LINE",
"519 619 LINE",
"573 619 LINE",
"559 758 LINE",
"52 758 LINE",
"52 710 LINE",
"151 700 LINE",
"132 725 LINE",
"132 31 LINE",
"163 62 LINE",
"50 42 LINE"
);
},
{
closed = 1;
nodes = (
"223 789 LINE",
"355 871 LINE",
"484 789 LINE",
"526 813 LINE",
"401 938 LINE",
"309 938 LINE",
"185 812 LINE"
);
}
);
width = 644;
}
);
note = Ecircumflex;
unicode = 00CA;
},
{
glyphname = Edieresis;
lastChange = "2016-06-11 22:37:54 +0000";
layers = (
{
layerId = "70CB0793-CC2E-4F1A-A11D-52AA668529D4";
paths = (
{
closed = 1;
nodes = (
"50 0 LINE",
"591 0 LINE",
"613 151 LINE",
"566 163 LINE",
"517 62 LINE",
"227 53 LINE",
"227 370 LINE",
"409 367 LINE",
"423 292 LINE",
"473 292 LINE",
"473 502 LINE",
"423 502 LINE",
"409 426 LINE",
"227 422 LINE",
"227 707 LINE",
"497 701 LINE",
"519 619 LINE",
"573 619 LINE",
"559 758 LINE",
"52 758 LINE",
"52 710 LINE",
"151 700 LINE",
"132 725 LINE",
"132 31 LINE",
"163 62 LINE",
"50 42 LINE"
);
},
{
closed = 1;
nodes = (
"271 806 OFFCURVE",
"308 834 OFFCURVE",
"308 877 CURVE SMOOTH",
"308 910 OFFCURVE",
"289 938 OFFCURVE",
"246 938 CURVE SMOOTH",
"211 938 OFFCURVE",
"173 907 OFFCURVE",
"173 866 CURVE SMOOTH",
"173 828 OFFCURVE",
"202 806 OFFCURVE",
"234 806 CURVE SMOOTH"
);
},
{
closed = 1;
nodes = (
"499 806 OFFCURVE",
"535 834 OFFCURVE",
"535 877 CURVE SMOOTH",
"535 910 OFFCURVE",
"516 938 OFFCURVE",
"473 938 CURVE SMOOTH",
"438 938 OFFCURVE",
"400 907 OFFCURVE",
"400 866 CURVE SMOOTH",
"400 828 OFFCURVE",
"430 806 OFFCURVE",
"462 806 CURVE SMOOTH"
);
}
);
width = 644;
}
);
note = Edieresis;
unicode = 00CB;
},
{
glyphname = Igrave;
lastChange = "2016-06-11 22:37:54 +0000";
layers = (
{
layerId = "70CB0793-CC2E-4F1A-A11D-52AA668529D4";
paths = (
{
closed = 1;
nodes = (
"51 0 LINE",
"323 0 LINE",
"323 42 LINE",
"210 60 LINE",
"234 30 LINE",
"234 724 LINE",
"216 700 LINE",
"318 710 LINE",
"318 758 LINE",
"53 758 LINE",
"53 710 LINE",
"160 700 LINE",
"139 724 LINE",
"139 28 LINE",
"166 61 LINE",
"51 42 LINE"
);
},
{
closed = 1;
nodes = (
"219 811 LINE",
"70 938 LINE",
"-1 865 LINE",
"60 826 OFFCURVE",
"132 796 OFFCURVE",
"193 785 CURVE"
);
}
);
width = 372;
}
);
note = Igrave;
unicode = 00CC;
},
{
glyphname = Iacute;
lastChange = "2016-06-11 22:37:54 +0000";
layers = (
{
layerId = "70CB0793-CC2E-4F1A-A11D-52AA668529D4";
paths = (
{
closed = 1;
nodes = (
"51 0 LINE",
"323 0 LINE",
"323 42 LINE",
"210 60 LINE",
"234 30 LINE",
"234 724 LINE",
"216 700 LINE",
"318 710 LINE",
"318 758 LINE",
"53 758 LINE",
"53 710 LINE",
"160 700 LINE",
"139 724 LINE",
"139 28 LINE",
"166 61 LINE",
"51 42 LINE"
);
},
{
closed = 1;
nodes = (
"184 785 LINE",
"245 796 OFFCURVE",
"317 826 OFFCURVE",
"378 865 CURVE",
"307 938 LINE",
"158 811 LINE"
);
}
);
width = 372;
}
);
note = Iacute;
unicode = 00CD;
},
{
glyphname = Icircumflex;
lastChange = "2016-06-11 22:37:54 +0000";
layers = (
{
layerId = "70CB0793-CC2E-4F1A-A11D-52AA668529D4";
paths = (
{
closed = 1;
nodes = (
"51 0 LINE",
"323 0 LINE",
"323 42 LINE",
"210 60 LINE",
"234 30 LINE",
"234 724 LINE",
"216 700 LINE",
"318 710 LINE",
"318 758 LINE",
"53 758 LINE",
"53 710 LINE",
"160 700 LINE",
"139 724 LINE",
"139 28 LINE",
"166 61 LINE",
"51 42 LINE"
);
},
{
closed = 1;
nodes = (
"56 789 LINE",
"188 871 LINE",
"317 789 LINE",
"359 813 LINE",
"234 938 LINE",
"142 938 LINE",
"18 812 LINE"
);
}
);
width = 372;
}
);
note = Icircumflex;
unicode = 00CE;
},
{
glyphname = Idieresis;
lastChange = "2016-06-11 22:37:54 +0000";
layers = (
{
layerId = "70CB0793-CC2E-4F1A-A11D-52AA668529D4";
paths = (
{
closed = 1;
nodes = (
"51 0 LINE",
"323 0 LINE",
"323 42 LINE",
"210 60 LINE",
"234 30 LINE",
"234 724 LINE",
"216 700 LINE",
"318 710 LINE",
"318 758 LINE",
"53 758 LINE",
"53 710 LINE",
"160 700 LINE",
"139 724 LINE",
"139 28 LINE",
"166 61 LINE",
"51 42 LINE"
);
},
{
closed = 1;
nodes = (
"104 806 OFFCURVE",
"141 834 OFFCURVE",
"141 877 CURVE SMOOTH",
"141 910 OFFCURVE",
"122 938 OFFCURVE",
"79 938 CURVE SMOOTH",
"44 938 OFFCURVE",
"6 907 OFFCURVE",
"6 866 CURVE SMOOTH",
"6 828 OFFCURVE",
"35 806 OFFCURVE",
"67 806 CURVE SMOOTH"
);
},
{
closed = 1;
nodes = (
"332 806 OFFCURVE",
"368 834 OFFCURVE",
"368 877 CURVE SMOOTH",
"368 910 OFFCURVE",
"349 938 OFFCURVE",
"306 938 CURVE SMOOTH",
"271 938 OFFCURVE",
"233 907 OFFCURVE",
"233 866 CURVE SMOOTH",
"233 828 OFFCURVE",
"263 806 OFFCURVE",
"295 806 CURVE SMOOTH"
);
}
);
width = 372;
}
);
note = Idieresis;
unicode = 00CF;
},
{
glyphname = Eth;
lastChange = "2016-06-11 22:37:54 +0000";
layers = (
{
layerId = "70CB0793-CC2E-4F1A-A11D-52AA668529D4";
paths = (
{
closed = 1;
nodes = (
"48 354 LINE",
"355 354 LINE",
"355 425 LINE",
"48 425 LINE"
);
},
{
closed = 1;
nodes = (
"52 0 LINE",
"184 0 LINE SMOOTH",
"248 0 OFFCURVE",
"300 -4 OFFCURVE",
"348 -5 CURVE SMOOTH",
"564 -10 OFFCURVE",
"734 143 OFFCURVE",
"734 399 CURVE SMOOTH",
"734 627 OFFCURVE",
"619 766 OFFCURVE",
"366 765 CURVE SMOOTH",
"304 765 OFFCURVE",
"269 758 OFFCURVE",
"182 758 CURVE SMOOTH",
"54 758 LINE",
"54 710 LINE",
"159 699 LINE",
"134 725 LINE",
"134 29 LINE",
"160 61 LINE",
"52 42 LINE"
);
},
{
closed = 1;
nodes = (
"229 701 LINE",
"259 706 OFFCURVE",
"282 709 OFFCURVE",
"336 710 CURVE SMOOTH",
"519 715 OFFCURVE",
"634 605 OFFCURVE",
"634 375 CURVE SMOOTH",
"634 154 OFFCURVE",
"508 53 OFFCURVE",
"365 49 CURVE SMOOTH",
"314 48 OFFCURVE",
"271 52 OFFCURVE",
"229 64 CURVE"
);
}
);
width = 777;
}
);
note = Eth;
unicode = 00D0;
},
{
glyphname = Ntilde;
lastChange = "2016-06-11 22:37:54 +0000";
layers = (
{
layerId = "70CB0793-CC2E-4F1A-A11D-52AA668529D4";
paths = (
{
closed = 1;
nodes = (
"51 0 LINE",
"299 0 LINE",
"299 42 LINE",
"189 59 LINE",
"204 37 LINE",
"204 685 LINE",
"184 685 LINE",
"271 508 LINE",
"593 0 LINE",
"693 0 LINE",
"693 720 LINE",
"675 695 LINE",
"774 706 LINE",
"774 758 LINE",
"543 758 LINE",
"543 706 LINE",
"642 695 LINE",
"623 720 LINE",
"623 51 LINE",
"643 51 LINE",
"554 224 LINE",
"227 758 LINE",
"54 758 LINE",
"54 705 LINE",
"158 694 LINE",
"134 717 LINE",
"134 37 LINE",
"149 59 LINE",
"51 42 LINE"
);
},
{
closed = 1;
nodes = (
"237 819 LINE",
"257 839 OFFCURVE",
"293 860 OFFCURVE",
"327 860 CURVE SMOOTH",
"375 860 OFFCURVE",
"390 796 OFFCURVE",
"454 796 CURVE SMOOTH",
"505 796 OFFCURVE",
"565 835 OFFCURVE",
"589 880 CURVE",
"564 916 LINE",
"543 895 OFFCURVE",
"512 876 OFFCURVE",
"474 876 CURVE SMOOTH",
"427 876 OFFCURVE",
"411 938 OFFCURVE",
"347 938 CURVE SMOOTH",
"296 938 OFFCURVE",
"235 899 OFFCURVE",
"211 854 CURVE"
);
}
);
width = 811;
}
);
note = Ntilde;
unicode = 00D1;
},
{
glyphname = Ograve;
lastChange = "2016-06-11 22:37:54 +0000";
layers = (
{
layerId = "70CB0793-CC2E-4F1A-A11D-52AA668529D4";
paths = (
{
closed = 1;
nodes = (
"562 -10 OFFCURVE",
"711 136 OFFCURVE",
"716 385 CURVE SMOOTH",
"720 606 OFFCURVE",
"594 770 OFFCURVE",
"391 765 CURVE SMOOTH",
"203 760 OFFCURVE",
"47 616 OFFCURVE",
"42 367 CURVE SMOOTH",
"38 146 OFFCURVE",
"170 -18 OFFCURVE",
"376 -14 CURVE SMOOTH"
);
},
{
closed = 1;
nodes = (
"234 38 OFFCURVE",
"148 198 OFFCURVE",
"148 368 CURVE SMOOTH",
"148 585 OFFCURVE",
"239 713 OFFCURVE",
"383 713 CURVE SMOOTH",
"532 713 OFFCURVE",
"611 554 OFFCURVE",
"611 384 CURVE SMOOTH",
"611 167 OFFCURVE",
"528 38 OFFCURVE",
"385 38 CURVE SMOOTH"
);
},
{
closed = 1;
nodes = (
"416 811 LINE",
"266 938 LINE",
"195 865 LINE",
"256 826 OFFCURVE",
"329 796 OFFCURVE",
"390 785 CURVE"
);
}
);
width = 758;
}
);
note = Ograve;
unicode = 00D2;
},
{
glyphname = Oacute;
lastChange = "2016-06-11 22:37:54 +0000";
layers = (
{
layerId = "70CB0793-CC2E-4F1A-A11D-52AA668529D4";
paths = (
{
closed = 1;
nodes = (
"562 -10 OFFCURVE",
"711 136 OFFCURVE",
"716 385 CURVE SMOOTH",
"720 606 OFFCURVE",
"594 770 OFFCURVE",
"391 765 CURVE SMOOTH",
"203 760 OFFCURVE",
"47 616 OFFCURVE",
"42 367 CURVE SMOOTH",
"38 146 OFFCURVE",
"170 -18 OFFCURVE",
"376 -14 CURVE SMOOTH"
);
},
{
closed = 1;
nodes = (
"234 38 OFFCURVE",
"148 198 OFFCURVE",
"148 368 CURVE SMOOTH",
"148 585 OFFCURVE",
"239 713 OFFCURVE",
"383 713 CURVE SMOOTH",
"532 713 OFFCURVE",
"611 554 OFFCURVE",
"611 384 CURVE SMOOTH",
"611 167 OFFCURVE",
"528 38 OFFCURVE",
"385 38 CURVE SMOOTH"
);
},
{
closed = 1;
nodes = (
"380 785 LINE",
"441 796 OFFCURVE",
"514 826 OFFCURVE",
"575 865 CURVE",
"503 938 LINE",
"354 811 LINE"
);
}
);
width = 758;
}
);
note = Oacute;
unicode = 00D3;
},
{
glyphname = Ocircumflex;
lastChange = "2016-06-11 22:37:54 +0000";
layers = (
{
layerId = "70CB0793-CC2E-4F1A-A11D-52AA668529D4";
paths = (
{
closed = 1;
nodes = (
"562 -10 OFFCURVE",
"711 136 OFFCURVE",
"716 385 CURVE SMOOTH",
"720 606 OFFCURVE",
"594 770 OFFCURVE",
"391 765 CURVE SMOOTH",
"203 760 OFFCURVE",
"47 616 OFFCURVE",
"42 367 CURVE SMOOTH",
"38 146 OFFCURVE",
"170 -18 OFFCURVE",
"376 -14 CURVE SMOOTH"
);
},
{
closed = 1;
nodes = (
"234 38 OFFCURVE",
"148 198 OFFCURVE",
"148 368 CURVE SMOOTH",
"148 585 OFFCURVE",
"239 713 OFFCURVE",
"383 713 CURVE SMOOTH",
"532 713 OFFCURVE",
"611 554 OFFCURVE",
"611 384 CURVE SMOOTH",
"611 167 OFFCURVE",
"528 38 OFFCURVE",
"385 38 CURVE SMOOTH"
);
},
{
closed = 1;
nodes = (
"252 789 LINE",
"384 871 LINE",
"513 789 LINE",
"556 813 LINE",
"430 938 LINE",
"338 938 LINE",
"214 812 LINE"
);
}
);
width = 758;
}
);
note = Ocircumflex;
unicode = 00D4;
},
{
glyphname = Otilde;
lastChange = "2016-06-11 22:37:54 +0000";
layers = (
{
layerId = "70CB0793-CC2E-4F1A-A11D-52AA668529D4";
paths = (
{
closed = 1;
nodes = (
"562 -10 OFFCURVE",
"711 136 OFFCURVE",
"716 385 CURVE SMOOTH",
"720 606 OFFCURVE",
"594 770 OFFCURVE",
"391 765 CURVE SMOOTH",
"203 760 OFFCURVE",
"47 616 OFFCURVE",
"42 367 CURVE SMOOTH",
"38 146 OFFCURVE",
"170 -18 OFFCURVE",
"376 -14 CURVE SMOOTH"
);
},
{
closed = 1;
nodes = (
"234 38 OFFCURVE",
"148 198 OFFCURVE",
"148 368 CURVE SMOOTH",
"148 585 OFFCURVE",
"239 713 OFFCURVE",
"383 713 CURVE SMOOTH",
"532 713 OFFCURVE",
"611 554 OFFCURVE",
"611 384 CURVE SMOOTH",
"611 167 OFFCURVE",
"528 38 OFFCURVE",
"385 38 CURVE SMOOTH"
);
},
{
closed = 1;
nodes = (
"215 819 LINE",
"235 839 OFFCURVE",
"272 860 OFFCURVE",
"306 860 CURVE SMOOTH",
"354 860 OFFCURVE",
"369 796 OFFCURVE",
"433 796 CURVE SMOOTH",
"484 796 OFFCURVE",
"544 835 OFFCURVE",
"568 880 CURVE",
"542 916 LINE",
"521 895 OFFCURVE",
"490 876 OFFCURVE",
"452 876 CURVE SMOOTH",
"405 876 OFFCURVE",
"389 938 OFFCURVE",
"325 938 CURVE SMOOTH",
"274 938 OFFCURVE",
"214 899 OFFCURVE",
"190 854 CURVE"
);
}
);
width = 758;
}
);
note = Otilde;
unicode = 00D5;
},
{
glyphname = Odieresis;
lastChange = "2016-06-11 22:37:54 +0000";
layers = (
{
layerId = "70CB0793-CC2E-4F1A-A11D-52AA668529D4";
paths = (
{
closed = 1;
nodes = (
"562 -10 OFFCURVE",
"711 136 OFFCURVE",
"716 385 CURVE SMOOTH",
"720 606 OFFCURVE",
"594 770 OFFCURVE",
"391 765 CURVE SMOOTH",
"203 760 OFFCURVE",
"47 616 OFFCURVE",
"42 367 CURVE SMOOTH",
"38 146 OFFCURVE",
"170 -18 OFFCURVE",
"376 -14 CURVE SMOOTH"
);
},
{
closed = 1;
nodes = (
"234 38 OFFCURVE",
"148 198 OFFCURVE",
"148 368 CURVE SMOOTH",
"148 585 OFFCURVE",
"239 713 OFFCURVE",
"383 713 CURVE SMOOTH",
"532 713 OFFCURVE",
"611 554 OFFCURVE",
"611 384 CURVE SMOOTH",
"611 167 OFFCURVE",
"528 38 OFFCURVE",
"385 38 CURVE SMOOTH"
);
},
{
closed = 1;
nodes = (
"301 806 OFFCURVE",
"337 834 OFFCURVE",
"337 877 CURVE SMOOTH",
"337 910 OFFCURVE",
"318 938 OFFCURVE",
"275 938 CURVE SMOOTH",
"240 938 OFFCURVE",
"202 907 OFFCURVE",
"202 866 CURVE SMOOTH",
"202 828 OFFCURVE",
"232 806 OFFCURVE",
"264 806 CURVE SMOOTH"
);
},
{
closed = 1;
nodes = (
"528 806 OFFCURVE",
"564 834 OFFCURVE",
"564 877 CURVE SMOOTH",
"564 910 OFFCURVE",
"545 938 OFFCURVE",
"502 938 CURVE SMOOTH",
"467 938 OFFCURVE",
"430 907 OFFCURVE",
"430 866 CURVE SMOOTH",
"430 828 OFFCURVE",
"459 806 OFFCURVE",
"491 806 CURVE SMOOTH"
);
}
);
width = 758;
}
);
note = Odieresis;
unicode = 00D6;
},
{
glyphname = multiply;
lastChange = "2016-06-11 22:37:54 +0000";
layers = (
{
layerId = "70CB0793-CC2E-4F1A-A11D-52AA668529D4";
paths = (
{
closed = 1;
nodes = (
"87 229 LINE",
"144 168 LINE",
"303 339 LINE",
"461 168 LINE",
"519 229 LINE",
"352 388 LINE",
"519 548 LINE",
"461 608 LINE",
"303 437 LINE",
"144 608 LINE",
"87 548 LINE",
"254 388 LINE"
);
}
);
width = 605;
}
);
note = multiply;
unicode = 00D7;
},
{
glyphname = Oslash;
lastChange = "2016-06-11 22:37:54 +0000";
layers = (
{
layerId = "70CB0793-CC2E-4F1A-A11D-52AA668529D4";
paths = (
{
closed = 1;
nodes = (
"258 -97 LINE",
"299 22 LINE",
"309 46 LINE",
"526 683 LINE",
"542 724 LINE",
"572 810 LINE",
"531 827 LINE",
"497 728 LINE",
"489 709 LINE",
"262 50 LINE",
"250 23 LINE",
"215 -81 LINE"
);
},
{
closed = 1;
nodes = (
"562 -10 OFFCURVE",
"711 136 OFFCURVE",
"716 385 CURVE SMOOTH",
"720 606 OFFCURVE",
"594 770 OFFCURVE",
"391 765 CURVE SMOOTH",
"203 760 OFFCURVE",
"47 616 OFFCURVE",
"42 367 CURVE SMOOTH",
"38 146 OFFCURVE",
"170 -18 OFFCURVE",
"376 -14 CURVE SMOOTH"
);
},
{
closed = 1;
nodes = (
"234 38 OFFCURVE",
"148 198 OFFCURVE",
"148 368 CURVE SMOOTH",
"148 585 OFFCURVE",
"239 713 OFFCURVE",
"383 713 CURVE SMOOTH",
"532 713 OFFCURVE",
"611 554 OFFCURVE",
"611 384 CURVE SMOOTH",
"611 167 OFFCURVE",
"528 38 OFFCURVE",
"385 38 CURVE SMOOTH"
);
}
);
width = 758;
}
);
note = Oslash;
unicode = 00D8;
},
{
glyphname = Ugrave;
lastChange = "2016-06-11 22:37:54 +0000";
layers = (
{
layerId = "70CB0793-CC2E-4F1A-A11D-52AA668529D4";
paths = (
{
closed = 1;
nodes = (
"561 -14 OFFCURVE",
"677 90 OFFCURVE",
"677 335 CURVE SMOOTH",
"677 729 LINE",
"656 699 LINE",
"754 710 LINE",
"754 758 LINE",
"515 758 LINE",
"515 710 LINE",
"637 698 LINE",
"604 729 LINE",
"604 335 LINE SMOOTH",
"604 150 OFFCURVE",
"547 37 OFFCURVE",
"410 37 CURVE SMOOTH",
"283 37 OFFCURVE",
"189 100 OFFCURVE",
"189 320 CURVE SMOOTH",
"189 729 LINE",
"162 699 LINE",
"276 710 LINE",
"276 758 LINE",
"16 758 LINE",
"16 710 LINE",
"117 699 LINE",
"94 729 LINE",
"94 594 OFFCURVE",
"93 458 OFFCURVE",
"93 323 CURVE SMOOTH",
"93 103 OFFCURVE",
"173 -14 OFFCURVE",
"394 -14 CURVE SMOOTH"
);
},
{
closed = 1;
nodes = (
"433 811 LINE",
"283 938 LINE",
"212 865 LINE",
"273 826 OFFCURVE",
"346 796 OFFCURVE",
"407 785 CURVE"
);
}
);
width = 769;
}
);
note = Ugrave;
unicode = 00D9;
},
{
glyphname = Uacute;
lastChange = "2016-06-11 22:37:54 +0000";
layers = (
{
layerId = "70CB0793-CC2E-4F1A-A11D-52AA668529D4";
paths = (
{
closed = 1;
nodes = (
"561 -14 OFFCURVE",
"677 90 OFFCURVE",
"677 335 CURVE SMOOTH",
"677 729 LINE",
"656 699 LINE",
"754 710 LINE",
"754 758 LINE",
"515 758 LINE",
"515 710 LINE",
"637 698 LINE",
"604 729 LINE",
"604 335 LINE SMOOTH",
"604 150 OFFCURVE",
"547 37 OFFCURVE",
"410 37 CURVE SMOOTH",
"283 37 OFFCURVE",
"189 100 OFFCURVE",
"189 320 CURVE SMOOTH",
"189 729 LINE",
"162 699 LINE",
"276 710 LINE",
"276 758 LINE",
"16 758 LINE",
"16 710 LINE",
"117 699 LINE",
"94 729 LINE",
"94 594 OFFCURVE",
"93 458 OFFCURVE",
"93 323 CURVE SMOOTH",
"93 103 OFFCURVE",
"173 -14 OFFCURVE",
"394 -14 CURVE SMOOTH"
);
},
{
closed = 1;
nodes = (
"397 785 LINE",
"458 796 OFFCURVE",
"531 826 OFFCURVE",
"592 865 CURVE",
"521 938 LINE",
"371 811 LINE"
);
}
);
width = 769;
}
);
note = Uacute;
unicode = 00DA;
},
{
glyphname = Ucircumflex;
lastChange = "2016-06-11 22:37:54 +0000";
layers = (
{
layerId = "70CB0793-CC2E-4F1A-A11D-52AA668529D4";
paths = (
{
closed = 1;
nodes = (
"561 -14 OFFCURVE",
"677 90 OFFCURVE",
"677 335 CURVE SMOOTH",
"677 729 LINE",
"656 699 LINE",
"754 710 LINE",
"754 758 LINE",
"515 758 LINE",
"515 710 LINE",
"637 698 LINE",
"604 729 LINE",
"604 335 LINE SMOOTH",
"604 150 OFFCURVE",
"547 37 OFFCURVE",
"410 37 CURVE SMOOTH",
"283 37 OFFCURVE",
"189 100 OFFCURVE",
"189 320 CURVE SMOOTH",
"189 729 LINE",
"162 699 LINE",
"276 710 LINE",
"276 758 LINE",
"16 758 LINE",
"16 710 LINE",
"117 699 LINE",
"94 729 LINE",
"94 594 OFFCURVE",
"93 458 OFFCURVE",
"93 323 CURVE SMOOTH",
"93 103 OFFCURVE",
"173 -14 OFFCURVE",
"394 -14 CURVE SMOOTH"
);
},
{
closed = 1;
nodes = (
"270 789 LINE",
"401 871 LINE",
"530 789 LINE",
"573 813 LINE",
"447 938 LINE",
"355 938 LINE",
"231 812 LINE"
);
}
);
width = 769;
}
);
note = Ucircumflex;
unicode = 00DB;
},
{
glyphname = Udieresis;
lastChange = "2016-06-11 22:37:54 +0000";
layers = (
{
layerId = "70CB0793-CC2E-4F1A-A11D-52AA668529D4";
paths = (
{
closed = 1;
nodes = (
"561 -14 OFFCURVE",
"677 90 OFFCURVE",
"677 335 CURVE SMOOTH",
"677 729 LINE",
"656 699 LINE",
"754 710 LINE",
"754 758 LINE",
"515 758 LINE",
"515 710 LINE",
"637 698 LINE",
"604 729 LINE",
"604 335 LINE SMOOTH",
"604 150 OFFCURVE",
"547 37 OFFCURVE",
"410 37 CURVE SMOOTH",
"283 37 OFFCURVE",
"189 100 OFFCURVE",
"189 320 CURVE SMOOTH",
"189 729 LINE",
"162 699 LINE",
"276 710 LINE",
"276 758 LINE",
"16 758 LINE",
"16 710 LINE",
"117 699 LINE",
"94 729 LINE",
"94 594 OFFCURVE",
"93 458 OFFCURVE",
"93 323 CURVE SMOOTH",
"93 103 OFFCURVE",
"173 -14 OFFCURVE",
"394 -14 CURVE SMOOTH"
);
},
{
closed = 1;
nodes = (
"318 806 OFFCURVE",
"354 834 OFFCURVE",
"354 877 CURVE SMOOTH",
"354 910 OFFCURVE",
"335 938 OFFCURVE",
"292 938 CURVE SMOOTH",
"257 938 OFFCURVE",
"219 907 OFFCURVE",
"219 866 CURVE SMOOTH",
"219 828 OFFCURVE",
"249 806 OFFCURVE",
"281 806 CURVE SMOOTH"
);
},
{
closed = 1;
nodes = (
"545 806 OFFCURVE",
"582 834 OFFCURVE",
"582 877 CURVE SMOOTH",
"582 910 OFFCURVE",
"563 938 OFFCURVE",
"520 938 CURVE SMOOTH",
"485 938 OFFCURVE",
"447 907 OFFCURVE",
"447 866 CURVE SMOOTH",
"447 828 OFFCURVE",
"476 806 OFFCURVE",
"508 806 CURVE SMOOTH"
);
}
);
width = 769;
}
);
note = Udieresis;
unicode = 00DC;
},
{
glyphname = Yacute;
lastChange = "2016-06-11 22:37:54 +0000";
layers = (
{
layerId = "70CB0793-CC2E-4F1A-A11D-52AA668529D4";
paths = (
{
closed = 1;
nodes = (
"196 0 LINE",
"496 0 LINE",
"496 42 LINE",
"368 60 LINE",
"391 40 LINE",
"391 335 LINE",
"371 271 LINE",
"608 731 LINE",
"562 692 LINE",
"654 710 LINE",
"654 758 LINE",
"429 758 LINE",
"429 710 LINE",
"531 699 LINE",
"530 737 LINE",
"372 414 LINE",
"340 341 LINE",
"360 341 LINE",
"326 413 LINE",
"153 735 LINE",
"143 699 LINE",
"246 710 LINE",
"246 758 LINE",
"6 758 LINE",
"6 710 LINE",
"96 697 LINE",
"40 738 LINE",
"317 277 LINE",
"296 335 LINE",
"296 39 LINE",
"319 60 LINE",
"196 42 LINE"
);
},
{
closed = 1;
nodes = (
"342 785 LINE",
"403 796 OFFCURVE",
"476 826 OFFCURVE",
"537 865 CURVE",
"466 938 LINE",
"316 811 LINE"
);
}
);
width = 660;
}
);
note = Yacute;
unicode = 00DD;
},
{
glyphname = Thorn;
lastChange = "2016-06-11 22:37:54 +0000";
layers = (
{
layerId = "70CB0793-CC2E-4F1A-A11D-52AA668529D4";
paths = (
{
closed = 1;
nodes = (
"42 0 LINE",
"360 0 LINE",
"360 42 LINE",
"201 60 LINE",
"229 29 LINE",
"229 161 LINE",
"250 160 OFFCURVE",
"279 160 OFFCURVE",
"328 159 CURVE SMOOTH",
"471 156 OFFCURVE",
"611 243 OFFCURVE",
"611 402 CURVE SMOOTH",
"611 543 OFFCURVE",
"506 612 OFFCURVE",
"356 612 CURVE SMOOTH",
"300 612 OFFCURVE",
"235 600 OFFCURVE",
"198 598 CURVE",
"229 574 LINE",
"229 724 LINE",
"212 700 LINE",
"314 710 LINE",
"314 758 LINE",
"49 758 LINE",
"49 710 LINE",
"156 700 LINE",
"134 724 LINE",
"134 29 LINE",
"154 60 LINE",
"42 42 LINE"
);
},
{
closed = 1;
nodes = (
"229 544 LINE",
"258 551 OFFCURVE",
"287 557 OFFCURVE",
"319 558 CURVE SMOOTH",
"444 563 OFFCURVE",
"514 501 OFFCURVE",
"514 400 CURVE SMOOTH",
"514 244 OFFCURVE",
"421 208 OFFCURVE",
"327 208 CURVE SMOOTH",
"298 208 OFFCURVE",
"266 209 OFFCURVE",
"229 214 CURVE"
);
}
);
width = 632;
}
);
note = Thorn;
unicode = 00DE;
},
{
glyphname = germandbls;
lastChange = "2016-06-11 22:37:54 +0000";
layers = (
{
layerId = "70CB0793-CC2E-4F1A-A11D-52AA668529D4";
paths = (
{
closed = 1;
nodes = (
"33 0 LINE",
"204 0 LINE",
"204 429 LINE SMOOTH",
"204 647 OFFCURVE",
"241 717 OFFCURVE",
"348 717 CURVE SMOOTH",
"413 717 OFFCURVE",
"442 663 OFFCURVE",
"442 598 CURVE SMOOTH",
"442 502 OFFCURVE",
"339 423 OFFCURVE",
"339 356 CURVE SMOOTH",
"339 234 OFFCURVE",
"549 237 OFFCURVE",
"549 135 CURVE SMOOTH",
"549 63 OFFCURVE",
"497 44 OFFCURVE",
"444 44 CURVE SMOOTH",
"406 44 OFFCURVE",
"354 70 OFFCURVE",
"329 83 CURVE",
"329 -1 LINE",
"368 -10 OFFCURVE",
"409 -10 OFFCURVE",
"437 -10 CURVE SMOOTH",
"544 -10 OFFCURVE",
"639 37 OFFCURVE",
"639 151 CURVE SMOOTH",
"639 307 OFFCURVE",
"429 292 OFFCURVE",
"429 393 CURVE SMOOTH",
"429 483 OFFCURVE",
"526 511 OFFCURVE",
"526 631 CURVE SMOOTH",
"526 743 OFFCURVE",
"449 775 OFFCURVE",
"374 775 CURVE SMOOTH",
"237 775 OFFCURVE",
"111 668 OFFCURVE",
"111 429 CURVE SMOOTH",
"111 57 LINE",
"33 42 LINE"
);
}
);
width = 651;
}
);
note = germandbls;
unicode = 00DF;
},
{
glyphname = agrave;
lastChange = "2016-06-11 22:37:54 +0000";
layers = (
{
layerId = "70CB0793-CC2E-4F1A-A11D-52AA668529D4";
paths = (
{
closed = 1;
nodes = (
"322 -12 OFFCURVE",
"374 39 OFFCURVE",
"399 92 CURVE",
"368 92 LINE",
"348 72 OFFCURVE",
"303 50 OFFCURVE",
"264 50 CURVE SMOOTH",
"192 50 OFFCURVE",
"148 78 OFFCURVE",
"148 155 CURVE SMOOTH",
"148 250 OFFCURVE",
"286 274 OFFCURVE",
"369 274 CURVE",
"412 294 LINE",
"369 325 LINE",
"277 325 OFFCURVE",
"69 293 OFFCURVE",
"54 157 CURVE SMOOTH",
"44 66 OFFCURVE",
"109 -12 OFFCURVE",
"211 -12 CURVE SMOOTH"
);
},
{
closed = 1;
nodes = (
"466 -12 OFFCURVE",
"502 -3 OFFCURVE",
"524 9 CURVE",
"524 42 LINE",
"462 42 LINE",
"463 377 LINE SMOOTH",
"463 519 OFFCURVE",
"375 556 OFFCURVE",
"271 556 CURVE SMOOTH",
"221 556 OFFCURVE",
"124 538 OFFCURVE",
"75 498 CURVE",
"93 454 LINE",
"139 476 OFFCURVE",
"197 491 OFFCURVE",
"235 491 CURVE SMOOTH",
"310 491 OFFCURVE",
"369 470 OFFCURVE",
"369 367 CURVE SMOOTH",
"369 271 OFFCURVE",
"368 175 OFFCURVE",
"368 79 CURVE",
"375 79 LINE",
"374 39 LINE SMOOTH",
"374 -9 OFFCURVE",
"408 -12 OFFCURVE",
"432 -12 CURVE SMOOTH"
);
},
{
closed = 1;
nodes = (
"370 681 LINE",
"226 869 LINE",
"155 796 LINE",
"194 736 OFFCURVE",
"291 679 OFFCURVE",
"344 654 CURVE"
);
}
);
width = 559;
}
);
note = agrave;
unicode = 00E0;
},
{
glyphname = aacute;
lastChange = "2016-06-11 22:37:54 +0000";
layers = (
{
layerId = "70CB0793-CC2E-4F1A-A11D-52AA668529D4";
paths = (
{
closed = 1;
nodes = (
"322 -12 OFFCURVE",
"374 39 OFFCURVE",
"399 92 CURVE",
"368 92 LINE",
"348 72 OFFCURVE",
"303 50 OFFCURVE",
"264 50 CURVE SMOOTH",
"192 50 OFFCURVE",
"148 78 OFFCURVE",
"148 155 CURVE SMOOTH",
"148 250 OFFCURVE",
"286 274 OFFCURVE",
"369 274 CURVE",
"412 294 LINE",
"369 325 LINE",
"277 325 OFFCURVE",
"69 293 OFFCURVE",
"54 157 CURVE SMOOTH",
"44 66 OFFCURVE",
"109 -12 OFFCURVE",
"211 -12 CURVE SMOOTH"
);
},
{
closed = 1;
nodes = (
"466 -12 OFFCURVE",
"502 -3 OFFCURVE",
"524 9 CURVE",
"524 42 LINE",
"462 42 LINE",
"463 377 LINE SMOOTH",
"463 519 OFFCURVE",
"375 556 OFFCURVE",
"271 556 CURVE SMOOTH",
"221 556 OFFCURVE",
"124 538 OFFCURVE",
"75 498 CURVE",
"93 454 LINE",
"139 476 OFFCURVE",
"197 491 OFFCURVE",
"235 491 CURVE SMOOTH",
"310 491 OFFCURVE",
"369 470 OFFCURVE",
"369 367 CURVE SMOOTH",
"369 271 OFFCURVE",
"368 175 OFFCURVE",
"368 79 CURVE",
"375 79 LINE",
"374 39 LINE SMOOTH",
"374 -9 OFFCURVE",
"408 -12 OFFCURVE",
"432 -12 CURVE SMOOTH"
);
},
{
closed = 1;
nodes = (
"238 654 LINE",
"291 679 OFFCURVE",
"388 736 OFFCURVE",
"427 796 CURVE",
"356 869 LINE",
"212 681 LINE"
);
}
);
width = 559;
}
);
note = aacute;
unicode = 00E1;
},
{
glyphname = acircumflex;
lastChange = "2016-06-11 22:37:54 +0000";
layers = (
{
layerId = "70CB0793-CC2E-4F1A-A11D-52AA668529D4";
paths = (
{
closed = 1;
nodes = (
"322 -12 OFFCURVE",
"374 39 OFFCURVE",
"399 92 CURVE",
"368 92 LINE",
"348 72 OFFCURVE",
"303 50 OFFCURVE",
"264 50 CURVE SMOOTH",
"192 50 OFFCURVE",
"148 78 OFFCURVE",
"148 155 CURVE SMOOTH",
"148 250 OFFCURVE",
"286 274 OFFCURVE",
"369 274 CURVE",
"412 294 LINE",
"369 325 LINE",
"277 325 OFFCURVE",
"69 293 OFFCURVE",
"54 157 CURVE SMOOTH",
"44 66 OFFCURVE",
"109 -12 OFFCURVE",
"211 -12 CURVE SMOOTH"
);
},
{
closed = 1;
nodes = (
"466 -12 OFFCURVE",
"502 -3 OFFCURVE",
"524 9 CURVE",
"524 42 LINE",
"462 42 LINE",
"463 377 LINE SMOOTH",
"463 519 OFFCURVE",
"375 556 OFFCURVE",
"271 556 CURVE SMOOTH",
"221 556 OFFCURVE",
"124 538 OFFCURVE",
"75 498 CURVE",
"93 454 LINE",
"139 476 OFFCURVE",
"197 491 OFFCURVE",
"235 491 CURVE SMOOTH",
"310 491 OFFCURVE",
"369 470 OFFCURVE",
"369 367 CURVE SMOOTH",
"369 271 OFFCURVE",
"368 175 OFFCURVE",
"368 79 CURVE",
"375 79 LINE",
"374 39 LINE SMOOTH",
"374 -9 OFFCURVE",
"408 -12 OFFCURVE",
"432 -12 CURVE SMOOTH"
);
},
{
closed = 1;
nodes = (
"141 652 LINE",
"283 783 LINE",
"416 652 LINE",
"458 675 LINE",
"330 867 LINE",
"237 867 LINE",
"104 674 LINE"
);
}
);
width = 559;
}
);
note = acircumflex;
unicode = 00E2;
},
{
glyphname = atilde;
lastChange = "2016-06-11 22:37:54 +0000";
layers = (
{
layerId = "70CB0793-CC2E-4F1A-A11D-52AA668529D4";
paths = (
{
closed = 1;
nodes = (
"322 -12 OFFCURVE",
"374 39 OFFCURVE",
"399 92 CURVE",
"368 92 LINE",
"348 72 OFFCURVE",
"303 50 OFFCURVE",
"264 50 CURVE SMOOTH",
"192 50 OFFCURVE",
"148 78 OFFCURVE",
"148 155 CURVE SMOOTH",
"148 250 OFFCURVE",
"286 274 OFFCURVE",
"369 274 CURVE",
"412 294 LINE",
"369 325 LINE",
"277 325 OFFCURVE",
"69 293 OFFCURVE",
"54 157 CURVE SMOOTH",
"44 66 OFFCURVE",
"109 -12 OFFCURVE",
"211 -12 CURVE SMOOTH"
);
},
{
closed = 1;
nodes = (
"466 -12 OFFCURVE",
"502 -3 OFFCURVE",
"524 9 CURVE",
"524 42 LINE",
"462 42 LINE",
"463 377 LINE SMOOTH",
"463 519 OFFCURVE",
"375 556 OFFCURVE",
"271 556 CURVE SMOOTH",
"221 556 OFFCURVE",
"124 538 OFFCURVE",
"75 498 CURVE",
"93 454 LINE",
"139 476 OFFCURVE",
"197 491 OFFCURVE",
"235 491 CURVE SMOOTH",
"310 491 OFFCURVE",
"369 470 OFFCURVE",
"369 367 CURVE SMOOTH",
"369 271 OFFCURVE",
"368 175 OFFCURVE",
"368 79 CURVE",
"375 79 LINE",
"374 39 LINE SMOOTH",
"374 -9 OFFCURVE",
"408 -12 OFFCURVE",
"432 -12 CURVE SMOOTH"
);
},
{
closed = 1;
nodes = (
"114 692 LINE",
"134 712 OFFCURVE",
"166 738 OFFCURVE",
"204 738 CURVE SMOOTH",
"252 738 OFFCURVE",
"267 672 OFFCURVE",
"331 672 CURVE SMOOTH",
"382 672 OFFCURVE",
"442 713 OFFCURVE",
"466 758 CURVE",
"441 793 LINE",
"420 772 OFFCURVE",
"389 747 OFFCURVE",
"351 747 CURVE SMOOTH",
"304 747 OFFCURVE",
"288 813 OFFCURVE",
"224 813 CURVE SMOOTH",
"173 813 OFFCURVE",
"112 773 OFFCURVE",
"88 728 CURVE"
);
}
);
width = 559;
}
);
note = atilde;
unicode = 00E3;
},
{
glyphname = adieresis;
lastChange = "2016-06-11 22:37:54 +0000";
layers = (
{
layerId = "70CB0793-CC2E-4F1A-A11D-52AA668529D4";
paths = (
{
closed = 1;
nodes = (
"322 -12 OFFCURVE",
"374 39 OFFCURVE",
"399 92 CURVE",
"368 92 LINE",
"348 72 OFFCURVE",
"303 50 OFFCURVE",
"264 50 CURVE SMOOTH",
"192 50 OFFCURVE",
"148 78 OFFCURVE",
"148 155 CURVE SMOOTH",
"148 250 OFFCURVE",
"286 274 OFFCURVE",
"369 274 CURVE",
"412 294 LINE",
"369 325 LINE",
"277 325 OFFCURVE",
"69 293 OFFCURVE",
"54 157 CURVE SMOOTH",
"44 66 OFFCURVE",
"109 -12 OFFCURVE",
"211 -12 CURVE SMOOTH"
);
},
{
closed = 1;
nodes = (
"466 -12 OFFCURVE",
"502 -3 OFFCURVE",
"524 9 CURVE",
"524 42 LINE",
"462 42 LINE",
"463 377 LINE SMOOTH",
"463 519 OFFCURVE",
"375 556 OFFCURVE",
"271 556 CURVE SMOOTH",
"221 556 OFFCURVE",
"124 538 OFFCURVE",
"75 498 CURVE",
"93 454 LINE",
"139 476 OFFCURVE",
"197 491 OFFCURVE",
"235 491 CURVE SMOOTH",
"310 491 OFFCURVE",
"369 470 OFFCURVE",
"369 367 CURVE SMOOTH",
"369 271 OFFCURVE",
"368 175 OFFCURVE",
"368 79 CURVE",
"375 79 LINE",
"374 39 LINE SMOOTH",
"374 -9 OFFCURVE",
"408 -12 OFFCURVE",
"432 -12 CURVE SMOOTH"
);
},
{
closed = 1;
nodes = (
"428 675 OFFCURVE",
"464 701 OFFCURVE",
"464 744 CURVE SMOOTH",
"464 777 OFFCURVE",
"445 804 OFFCURVE",
"402 804 CURVE SMOOTH",
"367 804 OFFCURVE",
"330 774 OFFCURVE",
"330 733 CURVE SMOOTH",
"330 695 OFFCURVE",
"359 675 OFFCURVE",
"391 675 CURVE SMOOTH"
);
},
{
closed = 1;
nodes = (
"200 675 OFFCURVE",
"236 701 OFFCURVE",
"236 744 CURVE SMOOTH",
"236 777 OFFCURVE",
"217 804 OFFCURVE",
"174 804 CURVE SMOOTH",
"139 804 OFFCURVE",
"103 774 OFFCURVE",
"103 733 CURVE SMOOTH",
"103 695 OFFCURVE",
"131 675 OFFCURVE",
"163 675 CURVE SMOOTH"
);
}
);
width = 559;
}
);
note = adieresis;
unicode = 00E4;
},
{
glyphname = aring;
lastChange = "2016-06-11 22:37:54 +0000";
layers = (
{
layerId = "70CB0793-CC2E-4F1A-A11D-52AA668529D4";
paths = (
{
closed = 1;
nodes = (
"322 -12 OFFCURVE",
"374 39 OFFCURVE",
"399 92 CURVE",
"368 92 LINE",
"348 72 OFFCURVE",
"303 50 OFFCURVE",
"264 50 CURVE SMOOTH",
"192 50 OFFCURVE",
"148 78 OFFCURVE",
"148 155 CURVE SMOOTH",
"148 250 OFFCURVE",
"286 274 OFFCURVE",
"369 274 CURVE",
"412 294 LINE",
"369 325 LINE",
"277 325 OFFCURVE",
"69 293 OFFCURVE",
"54 157 CURVE SMOOTH",
"44 66 OFFCURVE",
"109 -12 OFFCURVE",
"211 -12 CURVE SMOOTH"
);
},
{
closed = 1;
nodes = (
"466 -12 OFFCURVE",
"502 -3 OFFCURVE",
"524 9 CURVE",
"524 42 LINE",
"462 42 LINE",
"463 377 LINE SMOOTH",
"463 519 OFFCURVE",
"375 556 OFFCURVE",
"271 556 CURVE SMOOTH",
"221 556 OFFCURVE",
"124 538 OFFCURVE",
"75 498 CURVE",
"93 454 LINE",
"139 476 OFFCURVE",
"197 491 OFFCURVE",
"235 491 CURVE SMOOTH",
"310 491 OFFCURVE",
"369 470 OFFCURVE",
"369 367 CURVE SMOOTH",
"369 271 OFFCURVE",
"368 175 OFFCURVE",
"368 79 CURVE",
"375 79 LINE",
"374 39 LINE SMOOTH",
"374 -9 OFFCURVE",
"408 -12 OFFCURVE",
"432 -12 CURVE SMOOTH"
);
},
{
closed = 1;
nodes = (
"335 645 OFFCURVE",
"391 697 OFFCURVE",
"391 762 CURVE SMOOTH",
"391 827 OFFCURVE",
"335 880 OFFCURVE",
"268 880 CURVE SMOOTH",
"201 880 OFFCURVE",
"145 827 OFFCURVE",
"145 762 CURVE SMOOTH",
"145 697 OFFCURVE",
"201 645 OFFCURVE",
"268 645 CURVE SMOOTH"
);
},
{
closed = 1;
nodes = (
"232 696 OFFCURVE",
"203 725 OFFCURVE",
"203 761 CURVE SMOOTH",
"203 796 OFFCURVE",
"232 826 OFFCURVE",
"268 826 CURVE SMOOTH",
"304 826 OFFCURVE",
"333 796 OFFCURVE",
"333 761 CURVE SMOOTH",
"333 725 OFFCURVE",
"304 696 OFFCURVE",
"268 696 CURVE SMOOTH"
);
}
);
width = 559;
}
);
note = aring;
unicode = 00E5;
},
{
glyphname = ae;
lastChange = "2016-06-11 22:37:54 +0000";
layers = (
{
layerId = "70CB0793-CC2E-4F1A-A11D-52AA668529D4";
paths = (
{
closed = 1;
nodes = (
"192 50 OFFCURVE",
"148 78 OFFCURVE",
"148 155 CURVE SMOOTH",
"148 250 OFFCURVE",
"286 274 OFFCURVE",
"369 274 CURVE",
"369 213 OFFCURVE",
"368 153 OFFCURVE",
"368 92 CURVE",
"348 72 OFFCURVE",
"303 50 OFFCURVE",
"264 50 CURVE SMOOTH"
);
},
{
closed = 1;
nodes = (
"306 -12 OFFCURVE",
"384 26 OFFCURVE",
"422 78 CURVE",
"464 21 OFFCURVE",
"528 -12 OFFCURVE",
"614 -12 CURVE SMOOTH",
"688 -12 OFFCURVE",
"781 9 OFFCURVE",
"819 43 CURVE",
"801 84 LINE",
"774 68 OFFCURVE",
"701 55 OFFCURVE",
"651 55 CURVE SMOOTH",
"568 55 OFFCURVE",
"464 97 OFFCURVE",
"462 266 CURVE",
"824 266 LINE",
"827 289 OFFCURVE",
"831 318 OFFCURVE",
"830 359 CURVE SMOOTH",
"825 488 OFFCURVE",
"754 565 OFFCURVE",
"639 562 CURVE SMOOTH",
"558 560 OFFCURVE",
"490 529 OFFCURVE",
"442 477 CURVE",
"410 538 OFFCURVE",
"344 556 OFFCURVE",
"271 556 CURVE SMOOTH",
"221 556 OFFCURVE",
"124 538 OFFCURVE",
"75 498 CURVE",
"93 454 LINE",
"139 476 OFFCURVE",
"197 491 OFFCURVE",
"235 491 CURVE SMOOTH",
"310 491 OFFCURVE",
"369 470 OFFCURVE",
"369 367 CURVE SMOOTH",
"369 325 LINE",
"277 325 OFFCURVE",
"69 293 OFFCURVE",
"54 157 CURVE SMOOTH",
"44 66 OFFCURVE",
"109 -12 OFFCURVE",
"211 -12 CURVE SMOOTH"
);
},
{
closed = 1;
nodes = (
"463 324 LINE",
"473 458 OFFCURVE",
"540 510 OFFCURVE",
"613 510 CURVE SMOOTH",
"640 510 OFFCURVE",
"662 505 OFFCURVE",
"679 494 CURVE SMOOTH",
"729 462 OFFCURVE",
"734 390 OFFCURVE",
"730 324 CURVE"
);
}
);
width = 878;
}
);
note = ae;
unicode = 00E6;
},
{
glyphname = ccedilla;
lastChange = "2016-06-11 22:37:54 +0000";
layers = (
{
layerId = "70CB0793-CC2E-4F1A-A11D-52AA668529D4";
paths = (
{
closed = 1;
nodes = (
"360 -10 OFFCURVE",
"438 9 OFFCURVE",
"476 43 CURVE",
"459 86 LINE",
"432 70 OFFCURVE",
"368 57 OFFCURVE",
"318 57 CURVE SMOOTH",
"236 57 OFFCURVE",
"140 129 OFFCURVE",
"141 306 CURVE SMOOTH",
"142 440 OFFCURVE",
"220 504 OFFCURVE",
"307 504 CURVE SMOOTH",
"330 504 OFFCURVE",
"366 498 OFFCURVE",
"387 481 CURVE",
"412 419 LINE",
"458 419 LINE",
"458 537 LINE",
"432 554 OFFCURVE",
"371 563 OFFCURVE",
"316 561 CURVE SMOOTH",
"167 555 OFFCURVE",
"50 442 OFFCURVE",
"51 263 CURVE SMOOTH",
"52 106 OFFCURVE",
"136 -10 OFFCURVE",
"286 -10 CURVE SMOOTH"
);
},
{
closed = 1;
nodes = (
"214 -247 LINE",
"234 -252 OFFCURVE",
"253 -260 OFFCURVE",
"310 -257 CURVE SMOOTH",
"381 -254 OFFCURVE",
"434 -217 OFFCURVE",
"434 -153 CURVE SMOOTH",
"434 -111 OFFCURVE",
"399 -61 OFFCURVE",
"309 -61 CURVE",
"307 -41 OFFCURVE",
"309 -16 OFFCURVE",
"311 0 CURVE",
"255 0 LINE",
"244 -40 OFFCURVE",
"237 -72 OFFCURVE",
"237 -104 CURVE",
"239 -104 OFFCURVE",
"254 -102 OFFCURVE",
"261 -102 CURVE SMOOTH",
"314 -102 OFFCURVE",
"338 -123 OFFCURVE",
"338 -151 CURVE SMOOTH",
"338 -200 OFFCURVE",
"306 -205 OFFCURVE",
"270 -205 CURVE SMOOTH",
"258 -205 OFFCURVE",
"229 -202 OFFCURVE",
"214 -198 CURVE"
);
}
);
width = 510;
}
);
note = ccedilla;
unicode = 00E7;
},
{
glyphname = egrave;
lastChange = "2016-06-11 22:37:54 +0000";
layers = (
{
layerId = "70CB0793-CC2E-4F1A-A11D-52AA668529D4";
paths = (
{
closed = 1;
nodes = (
"368 -12 OFFCURVE",
"456 9 OFFCURVE",
"494 43 CURVE",
"476 84 LINE",
"449 68 OFFCURVE",
"382 55 OFFCURVE",
"332 55 CURVE SMOOTH",
"249 55 OFFCURVE",
"148 97 OFFCURVE",
"143 255 CURVE SMOOTH",
"133 441 OFFCURVE",
"209 510 OFFCURVE",
"293 510 CURVE SMOOTH",
"320 510 OFFCURVE",
"342 505 OFFCURVE",
"359 494 CURVE SMOOTH",
"409 462 OFFCURVE",
"414 390 OFFCURVE",
"410 324 CURVE",
"117 324 LINE",
"107 266 LINE",
"504 266 LINE",
"507 289 OFFCURVE",
"511 318 OFFCURVE",
"510 359 CURVE SMOOTH",
"505 488 OFFCURVE",
"434 565 OFFCURVE",
"319 562 CURVE SMOOTH",
"159 558 OFFCURVE",
"49 438 OFFCURVE",
"49 271 CURVE SMOOTH",
"49 100 OFFCURVE",
"137 -12 OFFCURVE",
"294 -12 CURVE SMOOTH"
);
},
{
closed = 1;
nodes = (
"385 681 LINE",
"242 869 LINE",
"170 796 LINE",
"209 736 OFFCURVE",
"306 679 OFFCURVE",
"359 654 CURVE"
);
}
);
width = 559;
}
);
note = egrave;
unicode = 00E8;
},
{
glyphname = eacute;
lastChange = "2016-06-11 22:37:54 +0000";
layers = (
{
layerId = "70CB0793-CC2E-4F1A-A11D-52AA668529D4";
paths = (
{
closed = 1;
nodes = (
"368 -12 OFFCURVE",
"456 9 OFFCURVE",
"494 43 CURVE",
"476 84 LINE",
"449 68 OFFCURVE",
"382 55 OFFCURVE",
"332 55 CURVE SMOOTH",
"249 55 OFFCURVE",
"148 97 OFFCURVE",
"143 255 CURVE SMOOTH",
"133 441 OFFCURVE",
"209 510 OFFCURVE",
"293 510 CURVE SMOOTH",
"320 510 OFFCURVE",
"342 505 OFFCURVE",
"359 494 CURVE SMOOTH",
"409 462 OFFCURVE",
"414 390 OFFCURVE",
"410 324 CURVE",
"117 324 LINE",
"107 266 LINE",
"504 266 LINE",
"507 289 OFFCURVE",
"511 318 OFFCURVE",
"510 359 CURVE SMOOTH",
"505 488 OFFCURVE",
"434 565 OFFCURVE",
"319 562 CURVE SMOOTH",
"159 558 OFFCURVE",
"49 438 OFFCURVE",
"49 271 CURVE SMOOTH",
"49 100 OFFCURVE",
"137 -12 OFFCURVE",
"294 -12 CURVE SMOOTH"
);
},
{
closed = 1;
nodes = (
"254 654 LINE",
"307 679 OFFCURVE",
"404 736 OFFCURVE",
"443 796 CURVE",
"372 869 LINE",
"228 681 LINE"
);
}
);
width = 559;
}
);
note = eacute;
unicode = 00E9;
},
{
glyphname = ecircumflex;
lastChange = "2016-06-11 22:37:54 +0000";
layers = (
{
layerId = "70CB0793-CC2E-4F1A-A11D-52AA668529D4";
paths = (
{
closed = 1;
nodes = (
"368 -12 OFFCURVE",
"456 9 OFFCURVE",
"494 43 CURVE",
"476 84 LINE",
"449 68 OFFCURVE",
"382 55 OFFCURVE",
"332 55 CURVE SMOOTH",
"249 55 OFFCURVE",
"148 97 OFFCURVE",
"143 255 CURVE SMOOTH",
"133 441 OFFCURVE",
"209 510 OFFCURVE",
"293 510 CURVE SMOOTH",
"320 510 OFFCURVE",
"342 505 OFFCURVE",
"359 494 CURVE SMOOTH",
"409 462 OFFCURVE",
"414 390 OFFCURVE",
"410 324 CURVE",
"117 324 LINE",
"107 266 LINE",
"504 266 LINE",
"507 289 OFFCURVE",
"511 318 OFFCURVE",
"510 359 CURVE SMOOTH",
"505 488 OFFCURVE",
"434 565 OFFCURVE",
"319 562 CURVE SMOOTH",
"159 558 OFFCURVE",
"49 438 OFFCURVE",
"49 271 CURVE SMOOTH",
"49 100 OFFCURVE",
"137 -12 OFFCURVE",
"294 -12 CURVE SMOOTH"
);
},
{
closed = 1;
nodes = (
"156 652 LINE",
"299 783 LINE",
"432 652 LINE",
"473 675 LINE",
"345 867 LINE",
"253 867 LINE",
"120 674 LINE"
);
}
);
width = 559;
}
);
note = ecircumflex;
unicode = 00EA;
},
{
glyphname = edieresis;
lastChange = "2016-06-11 22:37:54 +0000";
layers = (
{
layerId = "70CB0793-CC2E-4F1A-A11D-52AA668529D4";
paths = (
{
closed = 1;
nodes = (
"368 -12 OFFCURVE",
"456 9 OFFCURVE",
"494 43 CURVE",
"476 84 LINE",
"449 68 OFFCURVE",
"382 55 OFFCURVE",
"332 55 CURVE SMOOTH",
"249 55 OFFCURVE",
"148 97 OFFCURVE",
"143 255 CURVE SMOOTH",
"133 441 OFFCURVE",
"209 510 OFFCURVE",
"293 510 CURVE SMOOTH",
"320 510 OFFCURVE",
"342 505 OFFCURVE",
"359 494 CURVE SMOOTH",
"409 462 OFFCURVE",
"414 390 OFFCURVE",
"410 324 CURVE",
"117 324 LINE",
"107 266 LINE",
"504 266 LINE",
"507 289 OFFCURVE",
"511 318 OFFCURVE",
"510 359 CURVE SMOOTH",
"505 488 OFFCURVE",
"434 565 OFFCURVE",
"319 562 CURVE SMOOTH",
"159 558 OFFCURVE",
"49 438 OFFCURVE",
"49 271 CURVE SMOOTH",
"49 100 OFFCURVE",
"137 -12 OFFCURVE",
"294 -12 CURVE SMOOTH"
);
},
{
closed = 1;
nodes = (
"443 675 OFFCURVE",
"479 701 OFFCURVE",
"479 744 CURVE SMOOTH",
"479 777 OFFCURVE",
"460 804 OFFCURVE",
"417 804 CURVE SMOOTH",
"382 804 OFFCURVE",
"346 774 OFFCURVE",
"346 733 CURVE SMOOTH",
"346 695 OFFCURVE",
"374 675 OFFCURVE",
"406 675 CURVE SMOOTH"
);
},
{
closed = 1;
nodes = (
"216 675 OFFCURVE",
"252 701 OFFCURVE",
"252 744 CURVE SMOOTH",
"252 777 OFFCURVE",
"233 804 OFFCURVE",
"190 804 CURVE SMOOTH",
"155 804 OFFCURVE",
"118 774 OFFCURVE",
"118 733 CURVE SMOOTH",
"118 695 OFFCURVE",
"147 675 OFFCURVE",
"179 675 CURVE SMOOTH"
);
}
);
width = 559;
}
);
note = edieresis;
unicode = 00EB;
},
{
glyphname = igrave;
lastChange = "2016-06-11 22:37:54 +0000";
layers = (
{
layerId = "70CB0793-CC2E-4F1A-A11D-52AA668529D4";
paths = (
{
closed = 1;
nodes = (
"55 0 LINE",
"307 0 LINE",
"307 42 LINE",
"201 55 LINE",
"228 29 LINE",
"228 546 LINE",
"206 556 LINE",
"70 518 LINE",
"70 487 LINE",
"138 452 LINE",
"138 30 LINE",
"158 54 LINE",
"55 42 LINE"
);
},
{
closed = 1;
nodes = (
"260 681 LINE",
"116 869 LINE",
"45 796 LINE",
"84 736 OFFCURVE",
"181 679 OFFCURVE",
"234 654 CURVE"
);
}
);
width = 333;
}
);
note = igrave;
unicode = 00EC;
},
{
glyphname = iacute;
lastChange = "2016-06-11 22:37:54 +0000";
layers = (
{
layerId = "70CB0793-CC2E-4F1A-A11D-52AA668529D4";
paths = (
{
closed = 1;
nodes = (
"55 0 LINE",
"307 0 LINE",
"307 42 LINE",
"201 55 LINE",
"228 29 LINE",
"228 546 LINE",
"206 556 LINE",
"70 518 LINE",
"70 487 LINE",
"138 452 LINE",
"138 30 LINE",
"158 54 LINE",
"55 42 LINE"
);
},
{
closed = 1;
nodes = (
"128 654 LINE",
"181 679 OFFCURVE",
"278 736 OFFCURVE",
"317 796 CURVE",
"246 869 LINE",
"103 681 LINE"
);
}
);
width = 333;
}
);
note = iacute;
unicode = 00ED;
},
{
glyphname = icircumflex;
lastChange = "2016-06-11 22:37:54 +0000";
layers = (
{
layerId = "70CB0793-CC2E-4F1A-A11D-52AA668529D4";
paths = (
{
closed = 1;
nodes = (
"55 0 LINE",
"307 0 LINE",
"307 42 LINE",
"201 55 LINE",
"228 29 LINE",
"228 546 LINE",
"206 556 LINE",
"70 518 LINE",
"70 487 LINE",
"138 452 LINE",
"138 30 LINE",
"158 54 LINE",
"55 42 LINE"
);
},
{
closed = 1;
nodes = (
"31 652 LINE",
"173 783 LINE",
"306 652 LINE",
"348 675 LINE",
"220 867 LINE",
"127 867 LINE",
"-6 674 LINE"
);
}
);
width = 333;
}
);
note = icircumflex;
unicode = 00EE;
},
{
glyphname = idieresis;
lastChange = "2016-06-11 22:37:54 +0000";
layers = (
{
layerId = "70CB0793-CC2E-4F1A-A11D-52AA668529D4";
paths = (
{
closed = 1;
nodes = (
"55 0 LINE",
"307 0 LINE",
"307 42 LINE",
"201 55 LINE",
"228 29 LINE",
"228 546 LINE",
"206 556 LINE",
"70 518 LINE",
"70 487 LINE",
"138 452 LINE",
"138 30 LINE",
"158 54 LINE",
"55 42 LINE"
);
},
{
closed = 1;
nodes = (
"318 675 OFFCURVE",
"354 701 OFFCURVE",
"354 744 CURVE SMOOTH",
"354 777 OFFCURVE",
"335 804 OFFCURVE",
"292 804 CURVE SMOOTH",
"257 804 OFFCURVE",
"220 774 OFFCURVE",
"220 733 CURVE SMOOTH",
"220 695 OFFCURVE",
"249 675 OFFCURVE",
"281 675 CURVE SMOOTH"
);
},
{
closed = 1;
nodes = (
"90 675 OFFCURVE",
"126 701 OFFCURVE",
"126 744 CURVE SMOOTH",
"126 777 OFFCURVE",
"107 804 OFFCURVE",
"64 804 CURVE SMOOTH",
"29 804 OFFCURVE",
"-7 774 OFFCURVE",
"-7 733 CURVE SMOOTH",
"-7 695 OFFCURVE",
"21 675 OFFCURVE",
"53 675 CURVE SMOOTH"
);
}
);
width = 333;
}
);
note = idieresis;
unicode = 00EF;
},
{
glyphname = eth;
lastChange = "2016-06-11 22:37:54 +0000";
layers = (
{
layerId = "70CB0793-CC2E-4F1A-A11D-52AA668529D4";
paths = (
{
closed = 1;
nodes = (
"438 -11 OFFCURVE",
"552 96 OFFCURVE",
"552 302 CURVE SMOOTH",
"552 509 OFFCURVE",
"439 733 OFFCURVE",
"169 823 CURVE",
"157 770 LINE",
"265 734 OFFCURVE",
"431 593 OFFCURVE",
"454 409 CURVE",
"464 417 LINE",
"447 463 OFFCURVE",
"360 504 OFFCURVE",
"301 504 CURVE SMOOTH",
"164 504 OFFCURVE",
"49 415 OFFCURVE",
"49 245 CURVE SMOOTH",
"49 92 OFFCURVE",
"149 -16 OFFCURVE",
"300 -13 CURVE SMOOTH"
);
},
{
closed = 1;
nodes = (
"204 38 OFFCURVE",
"151 139 OFFCURVE",
"151 250 CURVE SMOOTH",
"151 373 OFFCURVE",
"195 451 OFFCURVE",
"300 451 CURVE SMOOTH",
"396 451 OFFCURVE",
"439 369 OFFCURVE",
"448 326 CURVE SMOOTH",
"452 307 OFFCURVE",
"451 275 OFFCURVE",
"451 269 CURVE SMOOTH",
"451 154 OFFCURVE",
"397 38 OFFCURVE",
"308 38 CURVE SMOOTH"
);
},
{
closed = 1;
nodes = (
"213 614 LINE",
"314 701 LINE",
"325 715 LINE",
"353 739 OFFCURVE",
"424 800 OFFCURVE",
"424 800 CURVE",
"374 842 LINE",
"374 842 OFFCURVE",
"300 778 OFFCURVE",
"276 757 CURVE",
"268 745 LINE",
"165 652 LINE"
);
}
);
width = 601;
}
);
note = eth;
unicode = 00F0;
},
{
glyphname = ntilde;
lastChange = "2016-06-11 22:37:54 +0000";
layers = (
{
layerId = "70CB0793-CC2E-4F1A-A11D-52AA668529D4";
paths = (
{
closed = 1;
nodes = (
"67 0 LINE",
"301 0 LINE",
"301 42 LINE",
"204 55 LINE",
"229 33 LINE",
"229 259 LINE",
"229 434 LINE",
"278 468 OFFCURVE",
"323 483 OFFCURVE",
"363 485 CURVE SMOOTH",
"462 489 OFFCURVE",
"481 429 OFFCURVE",
"481 310 CURVE SMOOTH",
"481 34 LINE",
"510 56 LINE",
"407 42 LINE",
"407 0 LINE",
"653 0 LINE",
"653 42 LINE",
"546 55 LINE",
"575 30 LINE",
"575 327 LINE SMOOTH",
"575 491 OFFCURVE",
"534 560 OFFCURVE",
"413 556 CURVE SMOOTH",
"346 554 OFFCURVE",
"260 515 OFFCURVE",
"216 477 CURVE",
"216 546 LINE",
"194 556 LINE",
"64 518 LINE",
"64 487 LINE",
"134 449 LINE",
"134 259 LINE",
"134 33 LINE",
"171 57 LINE",
"67 42 LINE"
);
},
{
closed = 1;
nodes = (
"198 692 LINE",
"218 712 OFFCURVE",
"250 738 OFFCURVE",
"288 738 CURVE SMOOTH",
"336 738 OFFCURVE",
"351 672 OFFCURVE",
"415 672 CURVE SMOOTH",
"466 672 OFFCURVE",
"526 713 OFFCURVE",
"550 758 CURVE",
"525 793 LINE",
"504 772 OFFCURVE",
"473 747 OFFCURVE",
"435 747 CURVE SMOOTH",
"388 747 OFFCURVE",
"372 813 OFFCURVE",
"308 813 CURVE SMOOTH",
"257 813 OFFCURVE",
"196 773 OFFCURVE",
"172 728 CURVE"
);
}
);
width = 681;
}
);
note = ntilde;
unicode = 00F1;
},
{
glyphname = ograve;
lastChange = "2016-06-11 22:37:54 +0000";
layers = (
{
layerId = "70CB0793-CC2E-4F1A-A11D-52AA668529D4";
paths = (
{
closed = 1;
nodes = (
"437 -12 OFFCURVE",
"551 107 OFFCURVE",
"552 280 CURVE SMOOTH",
"553 437 OFFCURVE",
"475 564 OFFCURVE",
"309 562 CURVE SMOOTH",
"174 561 OFFCURVE",
"51 459 OFFCURVE",
"49 284 CURVE SMOOTH",
"47 129 OFFCURVE",
"118 -12 OFFCURVE",
"297 -12 CURVE SMOOTH"
);
},
{
closed = 1;
nodes = (
"197 45 OFFCURVE",
"149 163 OFFCURVE",
"149 289 CURVE SMOOTH",
"149 429 OFFCURVE",
"193 513 OFFCURVE",
"303 511 CURVE SMOOTH",
"407 509 OFFCURVE",
"452 406 OFFCURVE",
"452 275 CURVE SMOOTH",
"452 125 OFFCURVE",
"411 41 OFFCURVE",
"301 43 CURVE SMOOTH"
);
},
{
closed = 1;
nodes = (
"395 681 LINE",
"251 869 LINE",
"180 796 LINE",
"219 736 OFFCURVE",
"316 679 OFFCURVE",
"369 654 CURVE"
);
}
);
width = 601;
}
);
note = ograve;
unicode = 00F2;
},
{
glyphname = oacute;
lastChange = "2016-06-11 22:37:54 +0000";
layers = (
{
layerId = "70CB0793-CC2E-4F1A-A11D-52AA668529D4";
paths = (
{
closed = 1;
nodes = (
"437 -12 OFFCURVE",
"551 107 OFFCURVE",
"552 280 CURVE SMOOTH",
"553 437 OFFCURVE",
"475 564 OFFCURVE",
"309 562 CURVE SMOOTH",
"174 561 OFFCURVE",
"51 459 OFFCURVE",
"49 284 CURVE SMOOTH",
"47 129 OFFCURVE",
"118 -12 OFFCURVE",
"297 -12 CURVE SMOOTH"
);
},
{
closed = 1;
nodes = (
"197 45 OFFCURVE",
"149 163 OFFCURVE",
"149 289 CURVE SMOOTH",
"149 429 OFFCURVE",
"193 513 OFFCURVE",
"303 511 CURVE SMOOTH",
"407 509 OFFCURVE",
"452 406 OFFCURVE",
"452 275 CURVE SMOOTH",
"452 125 OFFCURVE",
"411 41 OFFCURVE",
"301 43 CURVE SMOOTH"
);
},
{
closed = 1;
nodes = (
"263 654 LINE",
"316 679 OFFCURVE",
"413 736 OFFCURVE",
"452 796 CURVE",
"381 869 LINE",
"237 681 LINE"
);
}
);
width = 601;
}
);
note = oacute;
unicode = 00F3;
},
{
glyphname = ocircumflex;
lastChange = "2016-06-11 22:37:54 +0000";
layers = (
{
layerId = "70CB0793-CC2E-4F1A-A11D-52AA668529D4";
paths = (
{
closed = 1;
nodes = (
"437 -12 OFFCURVE",
"551 107 OFFCURVE",
"552 280 CURVE SMOOTH",
"553 437 OFFCURVE",
"475 564 OFFCURVE",
"309 562 CURVE SMOOTH",
"174 561 OFFCURVE",
"51 459 OFFCURVE",
"49 284 CURVE SMOOTH",
"47 129 OFFCURVE",
"118 -12 OFFCURVE",
"297 -12 CURVE SMOOTH"
);
},
{
closed = 1;
nodes = (
"197 45 OFFCURVE",
"149 163 OFFCURVE",
"149 289 CURVE SMOOTH",
"149 429 OFFCURVE",
"193 513 OFFCURVE",
"303 511 CURVE SMOOTH",
"407 509 OFFCURVE",
"452 406 OFFCURVE",
"452 275 CURVE SMOOTH",
"452 125 OFFCURVE",
"411 41 OFFCURVE",
"301 43 CURVE SMOOTH"
);
},
{
closed = 1;
nodes = (
"166 652 LINE",
"308 783 LINE",
"441 652 LINE",
"482 675 LINE",
"354 867 LINE",
"262 867 LINE",
"129 674 LINE"
);
}
);
width = 601;
}
);
note = ocircumflex;
unicode = 00F4;
},
{
glyphname = otilde;
lastChange = "2016-06-11 22:37:54 +0000";
layers = (
{
layerId = "70CB0793-CC2E-4F1A-A11D-52AA668529D4";
paths = (
{
closed = 1;
nodes = (
"437 -12 OFFCURVE",
"551 107 OFFCURVE",
"552 280 CURVE SMOOTH",
"553 437 OFFCURVE",
"475 564 OFFCURVE",
"309 562 CURVE SMOOTH",
"174 561 OFFCURVE",
"51 459 OFFCURVE",
"49 284 CURVE SMOOTH",
"47 129 OFFCURVE",
"118 -12 OFFCURVE",
"297 -12 CURVE SMOOTH"
);
},
{
closed = 1;
nodes = (
"197 45 OFFCURVE",
"149 163 OFFCURVE",
"149 289 CURVE SMOOTH",
"149 429 OFFCURVE",
"193 513 OFFCURVE",
"303 511 CURVE SMOOTH",
"407 509 OFFCURVE",
"452 406 OFFCURVE",
"452 275 CURVE SMOOTH",
"452 125 OFFCURVE",
"411 41 OFFCURVE",
"301 43 CURVE SMOOTH"
);
},
{
closed = 1;
nodes = (
"139 692 LINE",
"159 712 OFFCURVE",
"191 738 OFFCURVE",
"229 738 CURVE SMOOTH",
"277 738 OFFCURVE",
"292 672 OFFCURVE",
"356 672 CURVE SMOOTH",
"407 672 OFFCURVE",
"467 713 OFFCURVE",
"491 758 CURVE",
"466 793 LINE",
"445 772 OFFCURVE",
"413 747 OFFCURVE",
"375 747 CURVE SMOOTH",
"328 747 OFFCURVE",
"313 813 OFFCURVE",
"249 813 CURVE SMOOTH",
"198 813 OFFCURVE",
"137 773 OFFCURVE",
"113 728 CURVE"
);
}
);
width = 601;
}
);
note = otilde;
unicode = 00F5;
},
{
glyphname = odieresis;
lastChange = "2016-06-11 22:37:54 +0000";
layers = (
{
layerId = "70CB0793-CC2E-4F1A-A11D-52AA668529D4";
paths = (
{
closed = 1;
nodes = (
"437 -12 OFFCURVE",
"551 107 OFFCURVE",
"552 280 CURVE SMOOTH",
"553 437 OFFCURVE",
"475 564 OFFCURVE",
"309 562 CURVE SMOOTH",
"174 561 OFFCURVE",
"51 459 OFFCURVE",
"49 284 CURVE SMOOTH",
"47 129 OFFCURVE",
"118 -12 OFFCURVE",
"297 -12 CURVE SMOOTH"
);
},
{
closed = 1;
nodes = (
"197 45 OFFCURVE",
"149 163 OFFCURVE",
"149 289 CURVE SMOOTH",
"149 429 OFFCURVE",
"193 513 OFFCURVE",
"303 511 CURVE SMOOTH",
"407 509 OFFCURVE",
"452 406 OFFCURVE",
"452 275 CURVE SMOOTH",
"452 125 OFFCURVE",
"411 41 OFFCURVE",
"301 43 CURVE SMOOTH"
);
},
{
closed = 1;
nodes = (
"453 675 OFFCURVE",
"489 701 OFFCURVE",
"489 744 CURVE SMOOTH",
"489 777 OFFCURVE",
"470 804 OFFCURVE",
"427 804 CURVE SMOOTH",
"392 804 OFFCURVE",
"355 774 OFFCURVE",
"355 733 CURVE SMOOTH",
"355 695 OFFCURVE",
"384 675 OFFCURVE",
"416 675 CURVE SMOOTH"
);
},
{
closed = 1;
nodes = (
"225 675 OFFCURVE",
"261 701 OFFCURVE",
"261 744 CURVE SMOOTH",
"261 777 OFFCURVE",
"242 804 OFFCURVE",
"199 804 CURVE SMOOTH",
"164 804 OFFCURVE",
"127 774 OFFCURVE",
"127 733 CURVE SMOOTH",
"127 695 OFFCURVE",
"156 675 OFFCURVE",
"188 675 CURVE SMOOTH"
);
}
);
width = 601;
}
);
note = odieresis;
unicode = 00F6;
},
{
glyphname = divide;
lastChange = "2016-06-11 22:37:54 +0000";
layers = (
{
layerId = "70CB0793-CC2E-4F1A-A11D-52AA668529D4";
paths = (
{
closed = 1;
nodes = (
"345 514 OFFCURVE",
"381 541 OFFCURVE",
"381 584 CURVE SMOOTH",
"381 617 OFFCURVE",
"362 645 OFFCURVE",
"319 645 CURVE SMOOTH",
"284 645 OFFCURVE",
"247 615 OFFCURVE",
"247 574 CURVE SMOOTH",
"247 536 OFFCURVE",
"276 514 OFFCURVE",
"308 514 CURVE SMOOTH"
);
},
{
closed = 1;
nodes = (
"345 134 OFFCURVE",
"381 162 OFFCURVE",
"381 205 CURVE SMOOTH",
"381 238 OFFCURVE",
"362 266 OFFCURVE",
"319 266 CURVE SMOOTH",
"284 266 OFFCURVE",
"247 235 OFFCURVE",
"247 194 CURVE SMOOTH",
"247 156 OFFCURVE",
"276 134 OFFCURVE",
"308 134 CURVE SMOOTH"
);
},
{
closed = 1;
nodes = (
"87 355 LINE",
"539 355 LINE",
"539 427 LINE",
"87 427 LINE"
);
}
);
width = 625;
}
);
note = divide;
unicode = 00F7;
},
{
glyphname = oslash;
lastChange = "2016-06-11 22:37:54 +0000";
layers = (
{
layerId = "70CB0793-CC2E-4F1A-A11D-52AA668529D4";
paths = (
{
closed = 1;
nodes = (
"201 -95 LINE",
"238 15 LINE",
"247 36 LINE",
"402 498 LINE",
"412 518 LINE",
"446 621 LINE",
"406 636 LINE",
"370 529 LINE",
"361 511 LINE",
"203 42 LINE",
"195 25 LINE",
"160 -79 LINE"
);
},
{
closed = 1;
nodes = (
"437 -12 OFFCURVE",
"551 107 OFFCURVE",
"552 280 CURVE SMOOTH",
"553 437 OFFCURVE",
"475 564 OFFCURVE",
"309 562 CURVE SMOOTH",
"174 561 OFFCURVE",
"51 459 OFFCURVE",
"49 284 CURVE SMOOTH",
"47 129 OFFCURVE",
"118 -12 OFFCURVE",
"297 -12 CURVE SMOOTH"
);
},
{
closed = 1;
nodes = (
"197 45 OFFCURVE",
"149 163 OFFCURVE",
"149 289 CURVE SMOOTH",
"149 429 OFFCURVE",
"193 513 OFFCURVE",
"303 511 CURVE SMOOTH",
"407 509 OFFCURVE",
"452 406 OFFCURVE",
"452 275 CURVE SMOOTH",
"452 125 OFFCURVE",
"411 41 OFFCURVE",
"301 43 CURVE SMOOTH"
);
}
);
width = 601;
}
);
note = oslash;
unicode = 00F8;
},
{
glyphname = ugrave;
lastChange = "2016-06-11 22:37:54 +0000";
layers = (
{
layerId = "70CB0793-CC2E-4F1A-A11D-52AA668529D4";
paths = (
{
closed = 1;
nodes = (
"325 -10 OFFCURVE",
"390 16 OFFCURVE",
"446 65 CURVE",
"446 25 LINE SMOOTH",
"446 -4 OFFCURVE",
"466 -17 OFFCURVE",
"497 -17 CURVE SMOOTH",
"528 -17 OFFCURVE",
"569 -6 OFFCURVE",
"588 4 CURVE",
"588 42 LINE",
"529 42 LINE",
"529 548 LINE",
"516 556 LINE",
"376 528 LINE",
"376 488 LINE",
"437 473 LINE",
"437 112 LINE",
"420 94 OFFCURVE",
"360 57 OFFCURVE",
"302 57 CURVE SMOOTH",
"217 57 OFFCURVE",
"197 103 OFFCURVE",
"197 211 CURVE SMOOTH",
"197 547 LINE",
"180 556 LINE",
"54 529 LINE",
"54 492 LINE",
"104 477 LINE",
"104 225 LINE SMOOTH",
"105 90 OFFCURVE",
"113 -10 OFFCURVE",
"266 -10 CURVE SMOOTH"
);
},
{
closed = 1;
nodes = (
"390 681 LINE",
"246 869 LINE",
"175 796 LINE",
"214 736 OFFCURVE",
"311 679 OFFCURVE",
"364 654 CURVE"
);
}
);
width = 630;
}
);
note = ugrave;
unicode = 00F9;
},
{
glyphname = uacute;
lastChange = "2016-06-11 22:37:54 +0000";
layers = (
{
layerId = "70CB0793-CC2E-4F1A-A11D-52AA668529D4";
paths = (
{
closed = 1;
nodes = (
"325 -10 OFFCURVE",
"390 16 OFFCURVE",
"446 65 CURVE",
"446 25 LINE SMOOTH",
"446 -4 OFFCURVE",
"466 -17 OFFCURVE",
"497 -17 CURVE SMOOTH",
"528 -17 OFFCURVE",
"569 -6 OFFCURVE",
"588 4 CURVE",
"588 42 LINE",
"529 42 LINE",
"529 548 LINE",
"516 556 LINE",
"376 528 LINE",
"376 488 LINE",
"437 473 LINE",
"437 112 LINE",
"420 94 OFFCURVE",
"360 57 OFFCURVE",
"302 57 CURVE SMOOTH",
"217 57 OFFCURVE",
"197 103 OFFCURVE",
"197 211 CURVE SMOOTH",
"197 547 LINE",
"180 556 LINE",
"54 529 LINE",
"54 492 LINE",
"104 477 LINE",
"104 225 LINE SMOOTH",
"105 90 OFFCURVE",
"113 -10 OFFCURVE",
"266 -10 CURVE SMOOTH"
);
},
{
closed = 1;
nodes = (
"258 654 LINE",
"311 679 OFFCURVE",
"408 736 OFFCURVE",
"447 796 CURVE",
"376 869 LINE",
"232 681 LINE"
);
}
);
width = 630;
}
);
note = uacute;
unicode = 00FA;
},
{
glyphname = ucircumflex;
lastChange = "2016-06-11 22:37:54 +0000";
layers = (
{
layerId = "70CB0793-CC2E-4F1A-A11D-52AA668529D4";
paths = (
{
closed = 1;
nodes = (
"325 -10 OFFCURVE",
"390 16 OFFCURVE",
"446 65 CURVE",
"446 25 LINE SMOOTH",
"446 -4 OFFCURVE",
"466 -17 OFFCURVE",
"497 -17 CURVE SMOOTH",
"528 -17 OFFCURVE",
"569 -6 OFFCURVE",
"588 4 CURVE",
"588 42 LINE",
"529 42 LINE",
"529 548 LINE",
"516 556 LINE",
"376 528 LINE",
"376 488 LINE",
"437 473 LINE",
"437 112 LINE",
"420 94 OFFCURVE",
"360 57 OFFCURVE",
"302 57 CURVE SMOOTH",
"217 57 OFFCURVE",
"197 103 OFFCURVE",
"197 211 CURVE SMOOTH",
"197 547 LINE",
"180 556 LINE",
"54 529 LINE",
"54 492 LINE",
"104 477 LINE",
"104 225 LINE SMOOTH",
"105 90 OFFCURVE",
"113 -10 OFFCURVE",
"266 -10 CURVE SMOOTH"
);
},
{
closed = 1;
nodes = (
"161 652 LINE",
"303 783 LINE",
"436 652 LINE",
"478 675 LINE",
"350 867 LINE",
"257 867 LINE",
"124 674 LINE"
);
}
);
width = 630;
}
);
note = ucircumflex;
unicode = 00FB;
},
{
glyphname = udieresis;
lastChange = "2016-06-11 22:37:54 +0000";
layers = (
{
layerId = "70CB0793-CC2E-4F1A-A11D-52AA668529D4";
paths = (
{
closed = 1;
nodes = (
"325 -10 OFFCURVE",
"390 16 OFFCURVE",
"446 65 CURVE",
"446 25 LINE SMOOTH",
"446 -4 OFFCURVE",
"466 -17 OFFCURVE",
"497 -17 CURVE SMOOTH",
"528 -17 OFFCURVE",
"569 -6 OFFCURVE",
"588 4 CURVE",
"588 42 LINE",
"529 42 LINE",
"529 548 LINE",
"516 556 LINE",
"376 528 LINE",
"376 488 LINE",
"437 473 LINE",
"437 112 LINE",
"420 94 OFFCURVE",
"360 57 OFFCURVE",
"302 57 CURVE SMOOTH",
"217 57 OFFCURVE",
"197 103 OFFCURVE",
"197 211 CURVE SMOOTH",
"197 547 LINE",
"180 556 LINE",
"54 529 LINE",
"54 492 LINE",
"104 477 LINE",
"104 225 LINE SMOOTH",
"105 90 OFFCURVE",
"113 -10 OFFCURVE",
"266 -10 CURVE SMOOTH"
);
},
{
closed = 1;
nodes = (
"448 675 OFFCURVE",
"484 701 OFFCURVE",
"484 744 CURVE SMOOTH",
"484 777 OFFCURVE",
"465 804 OFFCURVE",
"422 804 CURVE SMOOTH",
"387 804 OFFCURVE",
"350 774 OFFCURVE",
"350 733 CURVE SMOOTH",
"350 695 OFFCURVE",
"379 675 OFFCURVE",
"411 675 CURVE SMOOTH"
);
},
{
closed = 1;
nodes = (
"220 675 OFFCURVE",
"256 701 OFFCURVE",
"256 744 CURVE SMOOTH",
"256 777 OFFCURVE",
"237 804 OFFCURVE",
"194 804 CURVE SMOOTH",
"159 804 OFFCURVE",
"123 774 OFFCURVE",
"123 733 CURVE SMOOTH",
"123 695 OFFCURVE",
"151 675 OFFCURVE",
"183 675 CURVE SMOOTH"
);
}
);
width = 630;
}
);
note = udieresis;
unicode = 00FC;
},
{
glyphname = yacute;
lastChange = "2016-06-11 22:37:54 +0000";
layers = (
{
layerId = "70CB0793-CC2E-4F1A-A11D-52AA668529D4";
paths = (
{
closed = 1;
nodes = (
"73 -244 LINE",
"78 -248 OFFCURVE",
"99 -251 OFFCURVE",
"112 -251 CURVE SMOOTH",
"128 -251 OFFCURVE",
"141 -250 OFFCURVE",
"155 -247 CURVE SMOOTH",
"236 -227 OFFCURVE",
"284 -149 OFFCURVE",
"335 -19 CURVE SMOOTH",
"351 21 OFFCURVE",
"383 112 OFFCURVE",
"523 519 CURVE",
"486 483 LINE",
"566 495 LINE",
"566 546 LINE",
"355 546 LINE",
"355 495 LINE",
"454 484 LINE",
"441 519 LINE",
"333 157 LINE",
"293 17 LINE",
"302 16 OFFCURVE",
"311 13 OFFCURVE",
"320 12 CURVE",
"271 157 LINE",
"150 504 LINE",
"137 482 LINE",
"227 495 LINE",
"227 546 LINE",
"1 546 LINE",
"1 495 LINE",
"77 482 LINE",
"44 506 LINE",
"248 0 LINE",
"272 0 LINE",
"272 14 LINE",
"230 -143 OFFCURVE",
"160 -171 OFFCURVE",
"112 -171 CURVE SMOOTH",
"100 -171 OFFCURVE",
"84 -169 OFFCURVE",
"73 -166 CURVE"
);
},
{
closed = 1;
nodes = (
"253 654 LINE",
"306 679 OFFCURVE",
"403 736 OFFCURVE",
"442 796 CURVE",
"371 869 LINE",
"228 681 LINE"
);
}
);
width = 561;
}
);
note = yacute;
unicode = 00FD;
},
{
glyphname = thorn;
lastChange = "2016-06-11 22:37:54 +0000";
layers = (
{
layerId = "70CB0793-CC2E-4F1A-A11D-52AA668529D4";
paths = (
{
closed = 1;
nodes = (
"31 -250 LINE",
"289 -250 LINE",
"289 -208 LINE",
"168 -195 LINE",
"193 -222 LINE",
"192 -50 LINE",
"190 2 LINE",
"142 54 LINE",
"99 24 LINE",
"99 -220 LINE",
"126 -193 LINE",
"31 -208 LINE"
);
},
{
closed = 1;
nodes = (
"457 -14 OFFCURVE",
"568 128 OFFCURVE",
"568 295 CURVE SMOOTH",
"568 490 OFFCURVE",
"461 563 OFFCURVE",
"352 563 CURVE SMOOTH",
"253 563 OFFCURVE",
"200 506 OFFCURVE",
"164 473 CURVE",
"193 449 LINE",
"214 468 OFFCURVE",
"255 495 OFFCURVE",
"312 495 CURVE SMOOTH",
"394 495 OFFCURVE",
"477 435 OFFCURVE",
"475 278 CURVE SMOOTH",
"473 111 OFFCURVE",
"388 38 OFFCURVE",
"303 38 CURVE SMOOTH",
"247 38 OFFCURVE",
"203 50 OFFCURVE",
"193 77 CURVE",
"193 785 LINE",
"173 793 LINE",
"16 776 LINE",
"16 733 LINE",
"99 716 LINE",
"99 24 LINE",
"113 10 OFFCURVE",
"200 -14 OFFCURVE",
"292 -14 CURVE SMOOTH"
);
}
);
width = 617;
}
);
note = thorn;
unicode = 00FE;
},
{
glyphname = ydieresis;
lastChange = "2016-06-11 22:37:54 +0000";
layers = (
{
layerId = "70CB0793-CC2E-4F1A-A11D-52AA668529D4";
paths = (
{
closed = 1;
nodes = (
"73 -244 LINE",
"78 -248 OFFCURVE",
"99 -251 OFFCURVE",
"112 -251 CURVE SMOOTH",
"128 -251 OFFCURVE",
"141 -250 OFFCURVE",
"155 -247 CURVE SMOOTH",
"236 -227 OFFCURVE",
"284 -149 OFFCURVE",
"335 -19 CURVE SMOOTH",
"351 21 OFFCURVE",
"383 112 OFFCURVE",
"523 519 CURVE",
"486 483 LINE",
"566 495 LINE",
"566 546 LINE",
"355 546 LINE",
"355 495 LINE",
"454 484 LINE",
"441 519 LINE",
"333 157 LINE",
"293 17 LINE",
"302 16 OFFCURVE",
"311 13 OFFCURVE",
"320 12 CURVE",
"271 157 LINE",
"150 504 LINE",
"137 482 LINE",
"227 495 LINE",
"227 546 LINE",
"1 546 LINE",
"1 495 LINE",
"77 482 LINE",
"44 506 LINE",
"248 0 LINE",
"272 0 LINE",
"272 14 LINE",
"230 -143 OFFCURVE",
"160 -171 OFFCURVE",
"112 -171 CURVE SMOOTH",
"100 -171 OFFCURVE",
"84 -169 OFFCURVE",
"73 -166 CURVE"
);
},
{
closed = 1;
nodes = (
"443 675 OFFCURVE",
"479 701 OFFCURVE",
"479 744 CURVE SMOOTH",
"479 777 OFFCURVE",
"460 804 OFFCURVE",
"417 804 CURVE SMOOTH",
"382 804 OFFCURVE",
"345 774 OFFCURVE",
"345 733 CURVE SMOOTH",
"345 695 OFFCURVE",
"374 675 OFFCURVE",
"406 675 CURVE SMOOTH"
);
},
{
closed = 1;
nodes = (
"215 675 OFFCURVE",
"251 701 OFFCURVE",
"251 744 CURVE SMOOTH",
"251 777 OFFCURVE",
"232 804 OFFCURVE",
"189 804 CURVE SMOOTH",
"154 804 OFFCURVE",
"118 774 OFFCURVE",
"118 733 CURVE SMOOTH",
"118 695 OFFCURVE",
"146 675 OFFCURVE",
"178 675 CURVE SMOOTH"
);
}
);
width = 561;
}
);
note = ydieresis;
unicode = 00FF;
},
{
glyphname = Aogonek;
lastChange = "2016-06-11 22:37:54 +0000";
layers = (
{
layerId = "70CB0793-CC2E-4F1A-A11D-52AA668529D4";
paths = (
{
closed = 1;
nodes = (
"1 0 LINE",
"234 0 LINE",
"234 42 LINE",
"135 60 LINE",
"145 32 LINE",
"354 656 LINE",
"400 509 LINE",
"559 34 LINE",
"574 61 LINE",
"470 42 LINE",
"470 0 LINE",
"728 0 LINE",
"728 42 LINE",
"625 61 LINE",
"659 31 LINE",
"407 758 LINE",
"325 758 LINE",
"63 35 LINE",
"99 62 LINE",
"1 42 LINE"
);
},
{
closed = 1;
nodes = (
"169 213 LINE",
"553 213 LINE",
"532 271 LINE",
"190 271 LINE"
);
},
{
closed = 1;
nodes = (
"604 -262 OFFCURVE",
"653 -223 OFFCURVE",
"679 -203 CURVE",
"668 -160 LINE",
"652 -167 OFFCURVE",
"603 -198 OFFCURVE",
"562 -195 CURVE SMOOTH",
"521 -192 OFFCURVE",
"500 -182 OFFCURVE",
"500 -137 CURVE SMOOTH",
"500 -93 OFFCURVE",
"579 -23 OFFCURVE",
"637 0 CURVE",
"592 4 LINE",
"557 0 LINE",
"489 -32 OFFCURVE",
"413 -105 OFFCURVE",
"413 -165 CURVE SMOOTH",
"413 -207 OFFCURVE",
"439 -253 OFFCURVE",
"510 -257 CURVE SMOOTH"
);
}
);
width = 729;
}
);
note = Aogonek;
unicode = 0104;
},
{
glyphname = aogonek;
lastChange = "2016-06-11 22:37:54 +0000";
layers = (
{
layerId = "70CB0793-CC2E-4F1A-A11D-52AA668529D4";
paths = (
{
closed = 1;
nodes = (
"309 -275 OFFCURVE",
"466 -268 OFFCURVE",
"532 -218 CURVE",
"532 -175 LINE",
"477 -197 OFFCURVE",
"397 -205 OFFCURVE",
"397 -130 CURVE SMOOTH",
"397 -86 OFFCURVE",
"459 -27 OFFCURVE",
"532 9 CURVE",
"428 -11 LINE",
"370 -36 OFFCURVE",
"309 -103 OFFCURVE",
"309 -158 CURVE SMOOTH"
);
},
{
closed = 1;
nodes = (
"322 -12 OFFCURVE",
"374 39 OFFCURVE",
"399 92 CURVE",
"368 92 LINE",
"348 72 OFFCURVE",
"303 50 OFFCURVE",
"264 50 CURVE SMOOTH",
"192 50 OFFCURVE",
"148 78 OFFCURVE",
"148 155 CURVE SMOOTH",
"148 250 OFFCURVE",
"286 274 OFFCURVE",
"369 274 CURVE",
"412 294 LINE",
"369 325 LINE",
"277 325 OFFCURVE",
"69 293 OFFCURVE",
"54 157 CURVE SMOOTH",
"44 66 OFFCURVE",
"109 -12 OFFCURVE",
"211 -12 CURVE SMOOTH"
);
},
{
closed = 1;
nodes = (
"466 -12 OFFCURVE",
"502 -3 OFFCURVE",
"524 9 CURVE",
"524 42 LINE",
"462 42 LINE",
"463 377 LINE SMOOTH",
"463 519 OFFCURVE",
"375 556 OFFCURVE",
"271 556 CURVE SMOOTH",
"221 556 OFFCURVE",
"124 538 OFFCURVE",
"75 498 CURVE",
"93 454 LINE",
"139 476 OFFCURVE",
"197 491 OFFCURVE",
"235 491 CURVE SMOOTH",
"310 491 OFFCURVE",
"369 470 OFFCURVE",
"369 367 CURVE SMOOTH",
"369 271 OFFCURVE",
"368 175 OFFCURVE",
"368 79 CURVE",
"375 79 LINE",
"374 39 LINE SMOOTH",
"374 -9 OFFCURVE",
"408 -12 OFFCURVE",
"432 -12 CURVE SMOOTH"
);
}
);
width = 559;
}
);
note = aogonek;
unicode = 0105;
},
{
glyphname = Eogonek;
lastChange = "2016-06-11 22:37:54 +0000";
layers = (
{
layerId = "70CB0793-CC2E-4F1A-A11D-52AA668529D4";
paths = (
{
closed = 1;
nodes = (
"50 0 LINE",
"591 0 LINE",
"613 151 LINE",
"566 163 LINE",
"517 62 LINE",
"227 53 LINE",
"227 370 LINE",
"409 367 LINE",
"423 292 LINE",
"473 292 LINE",
"473 502 LINE",
"423 502 LINE",
"409 426 LINE",
"227 422 LINE",
"227 707 LINE",
"497 701 LINE",
"519 619 LINE",
"573 619 LINE",
"559 758 LINE",
"52 758 LINE",
"52 710 LINE",
"151 700 LINE",
"132 725 LINE",
"132 31 LINE",
"163 62 LINE",
"50 42 LINE"
);
},
{
closed = 1;
nodes = (
"558 -262 OFFCURVE",
"607 -223 OFFCURVE",
"633 -203 CURVE",
"623 -160 LINE",
"607 -167 OFFCURVE",
"558 -198 OFFCURVE",
"517 -195 CURVE SMOOTH",
"476 -192 OFFCURVE",
"455 -182 OFFCURVE",
"455 -137 CURVE SMOOTH",
"455 -93 OFFCURVE",
"533 -23 OFFCURVE",
"591 0 CURVE",
"547 4 LINE",
"511 0 LINE",
"443 -32 OFFCURVE",
"368 -105 OFFCURVE",
"368 -165 CURVE SMOOTH",
"368 -207 OFFCURVE",
"393 -253 OFFCURVE",
"464 -257 CURVE SMOOTH"
);
}
);
width = 644;
}
);
note = Eogonek;
unicode = 0118;
},
{
glyphname = eogonek;
lastChange = "2016-06-11 22:37:54 +0000";
layers = (
{
layerId = "70CB0793-CC2E-4F1A-A11D-52AA668529D4";
paths = (
{
closed = 1;
nodes = (
"497 -175 LINE",
"442 -197 OFFCURVE",
"358 -195 OFFCURVE",
"358 -120 CURVE SMOOTH",
"358 -81 OFFCURVE",
"390 -36 OFFCURVE",
"494 42 CURVE",
"423 21 LINE SMOOTH",
"326 -8 OFFCURVE",
"270 -93 OFFCURVE",
"270 -148 CURVE SMOOTH",
"270 -265 OFFCURVE",
"431 -268 OFFCURVE",
"497 -218 CURVE"
);
},
{
closed = 1;
nodes = (
"368 -12 OFFCURVE",
"456 9 OFFCURVE",
"494 43 CURVE",
"476 84 LINE",
"449 68 OFFCURVE",
"382 55 OFFCURVE",
"332 55 CURVE SMOOTH",
"249 55 OFFCURVE",
"148 97 OFFCURVE",
"143 255 CURVE SMOOTH",
"133 441 OFFCURVE",
"209 510 OFFCURVE",
"293 510 CURVE SMOOTH",
"320 510 OFFCURVE",
"342 505 OFFCURVE",
"359 494 CURVE SMOOTH",
"409 462 OFFCURVE",
"414 390 OFFCURVE",
"410 324 CURVE",
"117 324 LINE",
"107 266 LINE",
"504 266 LINE",
"507 289 OFFCURVE",
"511 318 OFFCURVE",
"510 359 CURVE SMOOTH",
"505 488 OFFCURVE",
"434 565 OFFCURVE",
"319 562 CURVE SMOOTH",
"159 558 OFFCURVE",
"49 438 OFFCURVE",
"49 271 CURVE SMOOTH",
"49 100 OFFCURVE",
"137 -12 OFFCURVE",
"294 -12 CURVE SMOOTH"
);
}
);
width = 559;
}
);
note = eogonek;
unicode = 0119;
},
{
glyphname = hbar;
lastChange = "2016-06-11 22:37:54 +0000";
layers = (
{
layerId = "70CB0793-CC2E-4F1A-A11D-52AA668529D4";
paths = (
{
closed = 1;
nodes = (
"53 594 LINE",
"312 594 LINE",
"312 651 LINE",
"53 651 LINE"
);
},
{
closed = 1;
nodes = (
"61 0 LINE",
"299 0 LINE",
"299 42 LINE",
"208 55 LINE",
"228 29 LINE",
"228 298 LINE",
"228 444 LINE",
"273 476 OFFCURVE",
"327 485 OFFCURVE",
"370 485 CURVE SMOOTH",
"478 485 OFFCURVE",
"485 406 OFFCURVE",
"485 255 CURVE SMOOTH",
"485 28 LINE",
"508 55 LINE",
"403 42 LINE",
"403 0 LINE",
"652 0 LINE",
"652 42 LINE",
"553 55 LINE",
"579 28 LINE",
"579 296 LINE SMOOTH",
"580 478 OFFCURVE",
"548 556 OFFCURVE",
"416 556 CURVE SMOOTH",
"364 556 OFFCURVE",
"282 529 OFFCURVE",
"225 482 CURVE",
"227 566 LINE",
"228 782 LINE",
"205 793 LINE",
"50 773 LINE",
"50 730 LINE",
"134 713 LINE",
"134 298 LINE",
"134 30 LINE",
"161 56 LINE",
"61 42 LINE"
);
}
);
width = 685;
}
);
note = hbar;
unicode = 0127;
},
{
glyphname = Itilde;
lastChange = "2016-06-11 22:37:54 +0000";
layers = (
{
layerId = "70CB0793-CC2E-4F1A-A11D-52AA668529D4";
paths = (
{
closed = 1;
nodes = (
"51 0 LINE",
"323 0 LINE",
"323 42 LINE",
"210 60 LINE",
"234 30 LINE",
"234 724 LINE",
"216 700 LINE",
"318 710 LINE",
"318 758 LINE",
"53 758 LINE",
"53 710 LINE",
"160 700 LINE",
"139 724 LINE",
"139 28 LINE",
"166 61 LINE",
"51 42 LINE"
);
},
{
closed = 1;
nodes = (
"19 819 LINE",
"39 839 OFFCURVE",
"75 860 OFFCURVE",
"109 860 CURVE SMOOTH",
"157 860 OFFCURVE",
"172 796 OFFCURVE",
"236 796 CURVE SMOOTH",
"287 796 OFFCURVE",
"348 835 OFFCURVE",
"372 880 CURVE",
"346 916 LINE",
"325 895 OFFCURVE",
"294 876 OFFCURVE",
"256 876 CURVE SMOOTH",
"209 876 OFFCURVE",
"193 938 OFFCURVE",
"129 938 CURVE SMOOTH",
"78 938 OFFCURVE",
"18 899 OFFCURVE",
"-6 854 CURVE"
);
}
);
width = 372;
}
);
note = Itilde;
unicode = 0128;
},
{
glyphname = itilde;
lastChange = "2016-06-11 22:37:54 +0000";
layers = (
{
layerId = "70CB0793-CC2E-4F1A-A11D-52AA668529D4";
paths = (
{
closed = 1;
nodes = (
"55 0 LINE",
"307 0 LINE",
"307 42 LINE",
"201 55 LINE",
"228 29 LINE",
"228 546 LINE",
"206 556 LINE",
"70 518 LINE",
"70 487 LINE",
"138 452 LINE",
"138 30 LINE",
"158 54 LINE",
"55 42 LINE"
);
},
{
closed = 1;
nodes = (
"4 692 LINE",
"24 712 OFFCURVE",
"56 738 OFFCURVE",
"94 738 CURVE SMOOTH",
"142 738 OFFCURVE",
"157 672 OFFCURVE",
"221 672 CURVE SMOOTH",
"272 672 OFFCURVE",
"332 713 OFFCURVE",
"356 758 CURVE",
"331 793 LINE",
"310 772 OFFCURVE",
"279 747 OFFCURVE",
"241 747 CURVE SMOOTH",
"194 747 OFFCURVE",
"178 813 OFFCURVE",
"114 813 CURVE SMOOTH",
"63 813 OFFCURVE",
"3 773 OFFCURVE",
"-21 728 CURVE"
);
}
);
width = 333;
}
);
note = itilde;
unicode = 0129;
},
{
glyphname = dotlessi;
lastChange = "2016-06-11 22:37:54 +0000";
layers = (
{
layerId = "70CB0793-CC2E-4F1A-A11D-52AA668529D4";
paths = (
{
closed = 1;
nodes = (
"55 0 LINE",
"307 0 LINE",
"307 42 LINE",
"201 55 LINE",
"228 29 LINE",
"228 546 LINE",
"206 556 LINE",
"70 518 LINE",
"70 487 LINE",
"138 452 LINE",
"138 30 LINE",
"158 54 LINE",
"55 42 LINE"
);
}
);
width = 333;
}
);
note = dotlessi;
unicode = 0131;
},
{
glyphname = IJ;
lastChange = "2016-06-11 22:37:54 +0000";
layers = (
{
layerId = "70CB0793-CC2E-4F1A-A11D-52AA668529D4";
paths = (
{
closed = 1;
nodes = (
"51 0 LINE",
"323 0 LINE",
"323 42 LINE",
"210 60 LINE",
"234 30 LINE",
"234 724 LINE",
"216 700 LINE",
"318 710 LINE",
"318 758 LINE",
"53 758 LINE",
"53 710 LINE",
"160 700 LINE",
"139 724 LINE",
"139 28 LINE",
"166 61 LINE",
"51 42 LINE"
);
},
{
closed = 1;
nodes = (
"356 -190 LINE",
"459 -174 OFFCURVE",
"571 -104 OFFCURVE",
"597 24 CURVE SMOOTH",
"610 91 OFFCURVE",
"606 177 OFFCURVE",
"606 269 CURVE SMOOTH",
"606 729 LINE",
"577 699 LINE",
"686 710 LINE",
"686 758 LINE",
"431 758 LINE",
"431 710 LINE",
"543 699 LINE",
"511 729 LINE",
"511 196 LINE SMOOTH",
"511 96 OFFCURVE",
"509 28 OFFCURVE",
"489 -29 CURVE",
"464 -91 OFFCURVE",
"404 -133 OFFCURVE",
"331 -156 CURVE"
);
}
);
width = 724;
}
);
note = IJ;
unicode = 0132;
},
{
glyphname = ij;
lastChange = "2016-06-11 22:37:54 +0000";
layers = (
{
layerId = "70CB0793-CC2E-4F1A-A11D-52AA668529D4";
paths = (
{
closed = 1;
nodes = (
"200 671 OFFCURVE",
"236 699 OFFCURVE",
"236 742 CURVE SMOOTH",
"236 775 OFFCURVE",
"217 803 OFFCURVE",
"174 803 CURVE SMOOTH",
"139 803 OFFCURVE",
"101 772 OFFCURVE",
"101 731 CURVE SMOOTH",
"101 693 OFFCURVE",
"131 671 OFFCURVE",
"163 671 CURVE SMOOTH"
);
},
{
closed = 1;
nodes = (
"55 0 LINE",
"307 0 LINE",
"307 42 LINE",
"201 55 LINE",
"228 29 LINE",
"228 546 LINE",
"206 556 LINE",
"70 518 LINE",
"70 487 LINE",
"138 452 LINE",
"138 30 LINE",
"158 54 LINE",
"55 42 LINE"
);
},
{
closed = 1;
nodes = (
"530 686 OFFCURVE",
"566 713 OFFCURVE",
"566 756 CURVE SMOOTH",
"566 789 OFFCURVE",
"547 817 OFFCURVE",
"504 817 CURVE SMOOTH",
"469 817 OFFCURVE",
"431 787 OFFCURVE",
"431 746 CURVE SMOOTH",
"431 708 OFFCURVE",
"461 686 OFFCURVE",
"493 686 CURVE SMOOTH"
);
},
{
closed = 1;
nodes = (
"490 -251 OFFCURVE",
"560 -160 OFFCURVE",
"560 -8 CURVE SMOOTH",
"560 546 LINE",
"537 556 LINE",
"400 517 LINE",
"400 488 LINE",
"468 452 LINE",
"468 -1 LINE SMOOTH",
"468 -137 OFFCURVE",
"446 -182 OFFCURVE",
"383 -182 CURVE SMOOTH",
"371 -182 OFFCURVE",
"340 -180 OFFCURVE",
"329 -177 CURVE",
"329 -244 LINE",
"334 -248 OFFCURVE",
"369 -251 OFFCURVE",
"382 -251 CURVE SMOOTH"
);
}
);
width = 650;
}
);
note = ij;
unicode = 0133;
},
{
glyphname = Jcircumflex;
lastChange = "2016-06-11 22:37:54 +0000";
layers = (
{
layerId = "70CB0793-CC2E-4F1A-A11D-52AA668529D4";
paths = (
{
closed = 1;
nodes = (
"-17 -190 LINE",
"86 -174 OFFCURVE",
"199 -104 OFFCURVE",
"225 24 CURVE SMOOTH",
"238 91 OFFCURVE",
"234 177 OFFCURVE",
"234 269 CURVE SMOOTH",
"234 729 LINE",
"204 699 LINE",
"313 710 LINE",
"313 758 LINE",
"58 758 LINE",
"58 710 LINE",
"171 699 LINE",
"139 729 LINE",
"139 196 LINE SMOOTH",
"139 96 OFFCURVE",
"136 28 OFFCURVE",
"116 -29 CURVE",
"91 -91 OFFCURVE",
"31 -133 OFFCURVE",
"-42 -156 CURVE"
);
},
{
closed = 1;
nodes = (
"55 789 LINE",
"187 871 LINE",
"316 789 LINE",
"358 813 LINE",
"233 938 LINE",
"141 938 LINE",
"17 812 LINE"
);
}
);
width = 351;
}
);
note = Jcircumflex;
unicode = 0134;
},
{
glyphname = jcircumflex;
lastChange = "2016-06-11 22:37:54 +0000";
layers = (
{
layerId = "70CB0793-CC2E-4F1A-A11D-52AA668529D4";
paths = (
{
closed = 1;
nodes = (
"-4 -244 LINE",
"1 -248 OFFCURVE",
"36 -251 OFFCURVE",
"49 -251 CURVE SMOOTH",
"157 -251 OFFCURVE",
"226 -160 OFFCURVE",
"226 -8 CURVE SMOOTH",
"226 546 LINE",
"204 556 LINE",
"66 517 LINE",
"66 488 LINE",
"134 452 LINE",
"134 -1 LINE SMOOTH",
"134 -137 OFFCURVE",
"112 -182 OFFCURVE",
"49 -182 CURVE SMOOTH",
"37 -182 OFFCURVE",
"7 -180 OFFCURVE",
"-4 -177 CURVE"
);
},
{
closed = 1;
nodes = (
"37 652 LINE",
"180 783 LINE",
"312 652 LINE",
"354 675 LINE",
"226 867 LINE",
"134 867 LINE",
"0 674 LINE"
);
}
);
width = 317;
}
);
note = jcircumflex;
unicode = 0135;
},
{
glyphname = Kcommaaccent;
lastChange = "2016-06-11 22:37:54 +0000";
layers = (
{
layerId = "70CB0793-CC2E-4F1A-A11D-52AA668529D4";
paths = (
{
closed = 1;
nodes = (
"52 0 LINE",
"319 0 LINE",
"319 42 LINE",
"210 59 LINE",
"229 28 LINE",
"229 351 LINE",
"195 241 LINE",
"619 729 LINE",
"567 699 LINE",
"675 710 LINE",
"675 758 LINE",
"431 758 LINE",
"431 742 OFFCURVE",
"432 726 OFFCURVE",
"432 710 CURVE",
"523 700 LINE",
"530 729 LINE",
"229 365 LINE",
"229 729 LINE",
"203 699 LINE",
"309 710 LINE",
"309 758 LINE",
"54 758 LINE",
"54 710 LINE",
"158 700 LINE",
"134 729 LINE",
"134 34 LINE",
"155 60 LINE",
"52 42 LINE"
);
},
{
closed = 1;
nodes = (
"705 0 LINE",
"705 42 LINE",
"626 60 LINE",
"593 60 OFFCURVE",
"418 387 OFFCURVE",
"360 445 CURVE",
"322 423 LINE",
"297 386 LINE",
"361 348 OFFCURVE",
"517 0 OFFCURVE",
"554 0 CURVE SMOOTH"
);
},
{
closed = 1;
nodes = (
"376 -312 LINE",
"419 -300 OFFCURVE",
"499 -232 OFFCURVE",
"499 -144 CURVE SMOOTH",
"499 -96 OFFCURVE",
"465 -38 OFFCURVE",
"398 -20 CURVE",
"349 -71 LINE",
"349 -97 LINE",
"367 -97 OFFCURVE",
"398 -127 OFFCURVE",
"398 -164 CURVE SMOOTH",
"398 -206 OFFCURVE",
"386 -258 OFFCURVE",
"349 -275 CURVE",
"349 -288 LINE"
);
}
);
width = 692;
}
);
note = Kcommaaccent;
unicode = 0136;
},
{
glyphname = kcommaaccent;
lastChange = "2016-06-11 22:37:54 +0000";
layers = (
{
layerId = "70CB0793-CC2E-4F1A-A11D-52AA668529D4";
paths = (
{
closed = 1;
nodes = (
"54 0 LINE",
"298 0 LINE",
"298 42 LINE",
"210 54 LINE",
"228 39 LINE",
"228 106 LINE",
"225 213 LINE",
"213 189 LINE",
"312 287 LINE",
"290 296 LINE",
"481 27 LINE",
"475 55 LINE",
"395 42 LINE",
"395 0 LINE",
"632 0 LINE",
"632 42 LINE",
"551 54 LINE",
"583 29 LINE",
"344 345 LINE",
"354 319 LINE",
"550 518 LINE",
"503 490 LINE",
"599 500 LINE",
"599 551 LINE",
"369 551 LINE",
"369 500 LINE",
"458 491 LINE",
"460 511 LINE",
"210 253 LINE",
"215 253 OFFCURVE",
"220 242 OFFCURVE",
"225 242 CURVE",
"228 344 LINE",
"228 782 LINE",
"208 793 LINE",
"46 773 LINE",
"46 730 LINE",
"134 713 LINE",
"134 432 LINE",
"134 34 LINE",
"152 55 LINE",
"54 42 LINE"
);
},
{
closed = 1;
nodes = (
"320 -312 LINE",
"363 -300 OFFCURVE",
"442 -232 OFFCURVE",
"442 -144 CURVE SMOOTH",
"442 -96 OFFCURVE",
"409 -38 OFFCURVE",
"342 -20 CURVE",
"292 -71 LINE",
"292 -97 LINE",
"310 -97 OFFCURVE",
"342 -127 OFFCURVE",
"342 -164 CURVE SMOOTH",
"342 -206 OFFCURVE",
"330 -258 OFFCURVE",
"293 -275 CURVE",
"293 -288 LINE"
);
}
);
width = 622;
}
);
note = kcommaaccent;
unicode = 0137;
},
{
glyphname = kgreenlandic;
lastChange = "2016-06-11 22:37:54 +0000";
layers = (
{
layerId = "70CB0793-CC2E-4F1A-A11D-52AA668529D4";
paths = (
{
closed = 1;
nodes = (
"54 0 LINE",
"298 0 LINE",
"298 42 LINE",
"210 54 LINE",
"228 39 LINE",
"228 106 LINE",
"225 213 LINE",
"213 189 LINE",
"312 287 LINE",
"290 296 LINE",
"481 27 LINE",
"475 55 LINE",
"395 42 LINE",
"395 0 LINE",
"632 0 LINE",
"632 42 LINE",
"551 54 LINE",
"583 29 LINE",
"344 345 LINE",
"354 319 LINE",
"550 518 LINE",
"503 490 LINE",
"599 500 LINE",
"599 551 LINE",
"369 551 LINE",
"369 500 LINE",
"458 491 LINE",
"460 511 LINE",
"210 253 LINE",
"215 253 OFFCURVE",
"220 242 OFFCURVE",
"225 242 CURVE",
"228 344 LINE",
"228 549 LINE",
"208 560 LINE",
"46 540 LINE",
"46 497 LINE",
"134 479 LINE",
"134 432 LINE",
"134 34 LINE",
"152 55 LINE",
"54 42 LINE"
);
}
);
width = 622;
}
);
note = kgreenlandic;
unicode = 0138;
},
{
glyphname = Ldotaccent;
lastChange = "2016-06-11 22:37:54 +0000";
layers = (
{
layerId = "70CB0793-CC2E-4F1A-A11D-52AA668529D4";
paths = (
{
closed = 1;
nodes = (
"52 0 LINE",
"561 0 LINE",
"593 162 LINE",
"550 183 LINE",
"490 66 LINE",
"191 53 LINE",
"229 25 LINE",
"230 729 LINE",
"205 694 LINE",
"316 705 LINE",
"316 758 LINE",
"54 758 LINE",
"54 705 LINE",
"162 694 LINE",
"134 729 LINE",
"134 26 LINE",
"167 62 LINE",
"52 42 LINE"
);
},
{
closed = 1;
nodes = (
"620 348 OFFCURVE",
"656 375 OFFCURVE",
"656 418 CURVE SMOOTH",
"656 451 OFFCURVE",
"637 479 OFFCURVE",
"594 479 CURVE SMOOTH",
"559 479 OFFCURVE",
"521 449 OFFCURVE",
"521 408 CURVE SMOOTH",
"521 370 OFFCURVE",
"551 348 OFFCURVE",
"583 348 CURVE SMOOTH"
);
}
);
width = 679;
}
);
note = Ldotaccent;
unicode = 013F;
},
{
glyphname = ldot;
lastChange = "2016-06-11 22:37:54 +0000";
layers = (
{
layerId = "70CB0793-CC2E-4F1A-A11D-52AA668529D4";
paths = (
{
closed = 1;
nodes = (
"53 0 LINE",
"317 0 LINE",
"317 42 LINE",
"208 54 LINE",
"230 34 LINE",
"230 782 LINE",
"210 793 LINE",
"58 773 LINE",
"58 730 LINE",
"136 713 LINE",
"136 29 LINE",
"159 55 LINE",
"53 42 LINE"
);
},
{
closed = 1;
nodes = (
"461 329 OFFCURVE",
"498 357 OFFCURVE",
"498 400 CURVE SMOOTH",
"498 433 OFFCURVE",
"479 460 OFFCURVE",
"436 460 CURVE SMOOTH",
"401 460 OFFCURVE",
"363 430 OFFCURVE",
"363 389 CURVE SMOOTH",
"363 351 OFFCURVE",
"392 329 OFFCURVE",
"424 329 CURVE SMOOTH"
);
}
);
width = 522;
}
);
note = ldot;
unicode = 0140;
},
{
glyphname = Lslash;
lastChange = "2016-06-11 22:37:54 +0000";
layers = (
{
layerId = "70CB0793-CC2E-4F1A-A11D-52AA668529D4";
paths = (
{
closed = 1;
nodes = (
"47 242 LINE",
"496 413 LINE",
"496 491 LINE",
"496 491 OFFCURVE",
"47 313 OFFCURVE",
"47 312 CURVE SMOOTH"
);
},
{
closed = 1;
nodes = (
"52 0 LINE",
"561 0 LINE",
"593 162 LINE",
"550 183 LINE",
"490 66 LINE",
"191 53 LINE",
"229 25 LINE",
"230 729 LINE",
"205 694 LINE",
"316 705 LINE",
"316 758 LINE",
"54 758 LINE",
"54 705 LINE",
"162 694 LINE",
"134 729 LINE",
"134 26 LINE",
"167 62 LINE",
"52 42 LINE"
);
}
);
width = 607;
}
);
note = Lslash;
unicode = 0141;
},
{
glyphname = lslash;
lastChange = "2016-06-11 22:37:54 +0000";
layers = (
{
layerId = "70CB0793-CC2E-4F1A-A11D-52AA668529D4";
paths = (
{
closed = 1;
nodes = (
"60 344 LINE",
"320 446 LINE",
"320 518 LINE",
"60 411 LINE"
);
},
{
closed = 1;
nodes = (
"53 0 LINE",
"317 0 LINE",
"317 42 LINE",
"208 54 LINE",
"230 34 LINE",
"230 782 LINE",
"210 793 LINE",
"58 773 LINE",
"58 730 LINE",
"136 713 LINE",
"136 29 LINE",
"159 55 LINE",
"53 42 LINE"
);
}
);
width = 340;
}
);
note = lslash;
unicode = 0142;
},
{
glyphname = Nacute;
lastChange = "2016-06-11 22:37:54 +0000";
layers = (
{
layerId = "70CB0793-CC2E-4F1A-A11D-52AA668529D4";
paths = (
{
closed = 1;
nodes = (
"51 0 LINE",
"299 0 LINE",
"299 42 LINE",
"189 59 LINE",
"204 37 LINE",
"204 685 LINE",
"184 685 LINE",
"271 508 LINE",
"593 0 LINE",
"693 0 LINE",
"693 720 LINE",
"675 695 LINE",
"774 706 LINE",
"774 758 LINE",
"543 758 LINE",
"543 706 LINE",
"642 695 LINE",
"623 720 LINE",
"623 51 LINE",
"643 51 LINE",
"554 224 LINE",
"227 758 LINE",
"54 758 LINE",
"54 705 LINE",
"158 694 LINE",
"134 717 LINE",
"134 37 LINE",
"149 59 LINE",
"51 42 LINE"
);
},
{
closed = 1;
nodes = (
"401 785 LINE",
"462 796 OFFCURVE",
"535 826 OFFCURVE",
"596 865 CURVE",
"525 938 LINE",
"375 811 LINE"
);
}
);
width = 811;
}
);
note = Nacute;
unicode = 0143;
},
{
glyphname = nacute;
lastChange = "2016-06-11 22:37:54 +0000";
layers = (
{
layerId = "70CB0793-CC2E-4F1A-A11D-52AA668529D4";
paths = (
{
closed = 1;
nodes = (
"67 0 LINE",
"301 0 LINE",
"301 42 LINE",
"204 55 LINE",
"229 33 LINE",
"229 259 LINE",
"229 434 LINE",
"278 468 OFFCURVE",
"323 483 OFFCURVE",
"363 485 CURVE SMOOTH",
"462 489 OFFCURVE",
"481 429 OFFCURVE",
"481 310 CURVE SMOOTH",
"481 34 LINE",
"510 56 LINE",
"407 42 LINE",
"407 0 LINE",
"653 0 LINE",
"653 42 LINE",
"546 55 LINE",
"575 30 LINE",
"575 327 LINE SMOOTH",
"575 491 OFFCURVE",
"534 560 OFFCURVE",
"413 556 CURVE SMOOTH",
"346 554 OFFCURVE",
"260 515 OFFCURVE",
"216 477 CURVE",
"216 546 LINE",
"194 556 LINE",
"64 518 LINE",
"64 487 LINE",
"134 449 LINE",
"134 259 LINE",
"134 33 LINE",
"171 57 LINE",
"67 42 LINE"
);
},
{
closed = 1;
nodes = (
"322 654 LINE",
"375 679 OFFCURVE",
"472 736 OFFCURVE",
"511 796 CURVE",
"440 869 LINE",
"296 681 LINE"
);
}
);
width = 681;
}
);
note = nacute;
unicode = 0144;
},
{
glyphname = OE;
lastChange = "2016-06-11 22:37:54 +0000";
layers = (
{
layerId = "70CB0793-CC2E-4F1A-A11D-52AA668529D4";
paths = (
{
closed = 1;
nodes = (
"463 -12 OFFCURVE",
"542 21 OFFCURVE",
"602 81 CURVE",
"610 347 LINE",
"601 153 OFFCURVE",
"520 38 OFFCURVE",
"385 38 CURVE SMOOTH",
"234 38 OFFCURVE",
"148 198 OFFCURVE",
"148 368 CURVE SMOOTH",
"148 585 OFFCURVE",
"239 713 OFFCURVE",
"383 713 CURVE SMOOTH",
"508 713 OFFCURVE",
"584 601 OFFCURVE",
"605 464 CURVE",
"601 692 LINE",
"547 740 OFFCURVE",
"475 767 OFFCURVE",
"391 765 CURVE SMOOTH",
"203 760 OFFCURVE",
"47 616 OFFCURVE",
"42 367 CURVE SMOOTH",
"38 146 OFFCURVE",
"170 -18 OFFCURVE",
"376 -14 CURVE SMOOTH"
);
},
{
closed = 1;
nodes = (
"433 0 LINE",
"958 0 LINE",
"979 151 LINE",
"932 163 LINE",
"883 62 LINE",
"610 53 LINE",
"610 371 LINE",
"790 368 LINE",
"804 293 LINE",
"854 293 LINE",
"854 503 LINE",
"804 503 LINE",
"790 427 LINE",
"610 423 LINE",
"610 707 LINE",
"868 701 LINE",
"890 619 LINE",
"944 619 LINE",
"930 758 LINE",
"435 758 LINE",
"435 710 LINE",
"534 700 LINE",
"515 725 LINE",
"515 31 LINE",
"545 62 LINE",
"433 42 LINE"
);
}
);
width = 1010;
}
);
note = OE;
unicode = 0152;
},
{
glyphname = oe;
lastChange = "2016-06-11 22:37:54 +0000";
layers = (
{
layerId = "70CB0793-CC2E-4F1A-A11D-52AA668529D4";
paths = (
{
closed = 1;
nodes = (
"437 -12 OFFCURVE",
"551 107 OFFCURVE",
"552 280 CURVE SMOOTH",
"553 437 OFFCURVE",
"475 564 OFFCURVE",
"309 562 CURVE SMOOTH",
"174 561 OFFCURVE",
"51 459 OFFCURVE",
"49 284 CURVE SMOOTH",
"47 129 OFFCURVE",
"118 -12 OFFCURVE",
"297 -12 CURVE SMOOTH"
);
},
{
closed = 1;
nodes = (
"197 45 OFFCURVE",
"149 163 OFFCURVE",
"149 289 CURVE SMOOTH",
"149 429 OFFCURVE",
"193 513 OFFCURVE",
"303 511 CURVE SMOOTH",
"407 509 OFFCURVE",
"452 406 OFFCURVE",
"452 275 CURVE SMOOTH",
"452 125 OFFCURVE",
"411 41 OFFCURVE",
"301 43 CURVE SMOOTH"
);
},
{
closed = 1;
nodes = (
"800 -12 OFFCURVE",
"887 9 OFFCURVE",
"925 43 CURVE",
"907 84 LINE",
"880 68 OFFCURVE",
"813 55 OFFCURVE",
"763 55 CURVE SMOOTH",
"680 55 OFFCURVE",
"579 97 OFFCURVE",
"574 255 CURVE SMOOTH",
"564 441 OFFCURVE",
"641 510 OFFCURVE",
"725 510 CURVE SMOOTH",
"752 510 OFFCURVE",
"773 505 OFFCURVE",
"790 494 CURVE SMOOTH",
"840 462 OFFCURVE",
"845 390 OFFCURVE",
"841 324 CURVE",
"548 324 LINE",
"538 266 LINE",
"935 266 LINE",
"938 289 OFFCURVE",
"942 318 OFFCURVE",
"941 359 CURVE SMOOTH",
"936 488 OFFCURVE",
"865 565 OFFCURVE",
"750 562 CURVE SMOOTH",
"590 558 OFFCURVE",
"480 438 OFFCURVE",
"480 271 CURVE SMOOTH",
"480 100 OFFCURVE",
"569 -12 OFFCURVE",
"726 -12 CURVE SMOOTH"
);
}
);
width = 990;
}
);
note = oe;
unicode = 0153;
},
{
glyphname = Racute;
lastChange = "2016-06-11 22:37:54 +0000";
layers = (
{
layerId = "70CB0793-CC2E-4F1A-A11D-52AA668529D4";
paths = (
{
closed = 1;
nodes = (
"700 0 LINE",
"700 42 LINE",
"647 56 LINE SMOOTH",
"597 70 OFFCURVE",
"524 298 OFFCURVE",
"432 344 CURVE SMOOTH",
"411 354 OFFCURVE",
"386 351 OFFCURVE",
"354 365 CURVE",
"308 329 LINE",
"422 341 OFFCURVE",
"510 0 OFFCURVE",
"559 0 CURVE SMOOTH"
);
},
{
closed = 1;
nodes = (
"42 0 LINE",
"331 0 LINE",
"331 42 LINE",
"201 60 LINE",
"229 29 LINE",
"229 328 LINE",
"304 328 OFFCURVE",
"353 330 OFFCURVE",
"389 338 CURVE SMOOTH",
"504 365 OFFCURVE",
"585 450 OFFCURVE",
"585 563 CURVE SMOOTH",
"585 721 OFFCURVE",
"479 765 OFFCURVE",
"329 765 CURVE SMOOTH",
"264 765 OFFCURVE",
"213 758 OFFCURVE",
"182 758 CURVE SMOOTH",
"54 758 LINE",
"54 705 LINE",
"153 695 LINE",
"134 719 LINE",
"134 29 LINE",
"154 60 LINE",
"42 42 LINE"
);
},
{
closed = 1;
nodes = (
"229 705 LINE",
"254 712 OFFCURVE",
"284 712 OFFCURVE",
"316 713 CURVE SMOOTH",
"446 718 OFFCURVE",
"486 653 OFFCURVE",
"486 552 CURVE SMOOTH",
"486 430 OFFCURVE",
"420 380 OFFCURVE",
"316 380 CURVE SMOOTH",
"295 380 OFFCURVE",
"245 381 OFFCURVE",
"229 383 CURVE"
);
},
{
closed = 1;
nodes = (
"336 785 LINE",
"397 796 OFFCURVE",
"470 826 OFFCURVE",
"531 865 CURVE",
"459 938 LINE",
"310 811 LINE"
);
}
);
width = 692;
}
);
note = Racute;
unicode = 0154;
},
{
glyphname = Rcommaaccent;
lastChange = "2016-06-11 22:37:54 +0000";
layers = (
{
layerId = "70CB0793-CC2E-4F1A-A11D-52AA668529D4";
paths = (
{
closed = 1;
nodes = (
"700 0 LINE",
"700 42 LINE",
"647 56 LINE SMOOTH",
"597 70 OFFCURVE",
"524 298 OFFCURVE",
"432 344 CURVE SMOOTH",
"411 354 OFFCURVE",
"386 351 OFFCURVE",
"354 365 CURVE",
"308 329 LINE",
"422 341 OFFCURVE",
"510 0 OFFCURVE",
"559 0 CURVE SMOOTH"
);
},
{
closed = 1;
nodes = (
"42 0 LINE",
"331 0 LINE",
"331 42 LINE",
"201 60 LINE",
"229 29 LINE",
"229 328 LINE",
"304 328 OFFCURVE",
"353 330 OFFCURVE",
"389 338 CURVE SMOOTH",
"504 365 OFFCURVE",
"585 450 OFFCURVE",
"585 563 CURVE SMOOTH",
"585 721 OFFCURVE",
"479 765 OFFCURVE",
"329 765 CURVE SMOOTH",
"264 765 OFFCURVE",
"213 758 OFFCURVE",
"182 758 CURVE SMOOTH",
"54 758 LINE",
"54 705 LINE",
"153 695 LINE",
"134 719 LINE",
"134 29 LINE",
"154 60 LINE",
"42 42 LINE"
);
},
{
closed = 1;
nodes = (
"229 705 LINE",
"254 712 OFFCURVE",
"284 712 OFFCURVE",
"316 713 CURVE SMOOTH",
"446 718 OFFCURVE",
"486 653 OFFCURVE",
"486 552 CURVE SMOOTH",
"486 430 OFFCURVE",
"420 380 OFFCURVE",
"316 380 CURVE SMOOTH",
"295 380 OFFCURVE",
"245 381 OFFCURVE",
"229 383 CURVE"
);
},
{
closed = 1;
nodes = (
"349 -312 LINE",
"392 -300 OFFCURVE",
"471 -232 OFFCURVE",
"471 -144 CURVE SMOOTH",
"471 -96 OFFCURVE",
"438 -38 OFFCURVE",
"371 -20 CURVE",
"321 -71 LINE",
"321 -97 LINE",
"339 -97 OFFCURVE",
"371 -127 OFFCURVE",
"371 -164 CURVE SMOOTH",
"371 -206 OFFCURVE",
"359 -258 OFFCURVE",
"322 -275 CURVE",
"322 -288 LINE"
);
}
);
width = 692;
}
);
note = Rcommaaccent;
unicode = 0156;
},
{
glyphname = rcommaaccent;
lastChange = "2016-06-11 22:37:54 +0000";
layers = (
{
layerId = "70CB0793-CC2E-4F1A-A11D-52AA668529D4";
paths = (
{
closed = 1;
nodes = (
"55 0 LINE",
"368 0 LINE",
"368 42 LINE",
"204 55 LINE",
"229 33 LINE",
"229 435 LINE",
"259 454 OFFCURVE",
"291 469 OFFCURVE",
"344 469 CURVE SMOOTH",
"389 469 OFFCURVE",
"410 461 OFFCURVE",
"431 453 CURVE",
"431 553 LINE",
"424 555 OFFCURVE",
"404 556 OFFCURVE",
"383 556 CURVE SMOOTH",
"323 556 OFFCURVE",
"240 508 OFFCURVE",
"216 471 CURVE",
"216 546 LINE",
"193 556 LINE",
"64 518 LINE",
"64 487 LINE",
"134 449 LINE",
"134 33 LINE",
"171 57 LINE",
"55 42 LINE"
);
},
{
closed = 1;
nodes = (
"157 -312 LINE",
"200 -300 OFFCURVE",
"279 -232 OFFCURVE",
"279 -144 CURVE SMOOTH",
"279 -96 OFFCURVE",
"246 -38 OFFCURVE",
"179 -20 CURVE",
"129 -71 LINE",
"129 -97 LINE",
"147 -97 OFFCURVE",
"179 -127 OFFCURVE",
"179 -164 CURVE SMOOTH",
"179 -206 OFFCURVE",
"166 -258 OFFCURVE",
"129 -275 CURVE",
"129 -288 LINE"
);
}
);
width = 450;
}
);
note = rcommaaccent;
unicode = 0157;
},
{
glyphname = Rcaron;
lastChange = "2016-06-11 22:37:54 +0000";
layers = (
{
layerId = "70CB0793-CC2E-4F1A-A11D-52AA668529D4";
paths = (
{
closed = 1;
nodes = (
"700 0 LINE",
"700 42 LINE",
"647 56 LINE SMOOTH",
"597 70 OFFCURVE",
"524 298 OFFCURVE",
"432 344 CURVE SMOOTH",
"411 354 OFFCURVE",
"386 351 OFFCURVE",
"354 365 CURVE",
"308 329 LINE",
"422 341 OFFCURVE",
"510 0 OFFCURVE",
"559 0 CURVE SMOOTH"
);
},
{
closed = 1;
nodes = (
"42 0 LINE",
"331 0 LINE",
"331 42 LINE",
"201 60 LINE",
"229 29 LINE",
"229 328 LINE",
"304 328 OFFCURVE",
"353 330 OFFCURVE",
"389 338 CURVE SMOOTH",
"504 365 OFFCURVE",
"585 450 OFFCURVE",
"585 563 CURVE SMOOTH",
"585 721 OFFCURVE",
"479 765 OFFCURVE",
"329 765 CURVE SMOOTH",
"264 765 OFFCURVE",
"213 758 OFFCURVE",
"182 758 CURVE SMOOTH",
"54 758 LINE",
"54 705 LINE",
"153 695 LINE",
"134 719 LINE",
"134 29 LINE",
"154 60 LINE",
"42 42 LINE"
);
},
{
closed = 1;
nodes = (
"229 705 LINE",
"254 712 OFFCURVE",
"284 712 OFFCURVE",
"316 713 CURVE SMOOTH",
"446 718 OFFCURVE",
"486 653 OFFCURVE",
"486 552 CURVE SMOOTH",
"486 430 OFFCURVE",
"420 380 OFFCURVE",
"316 380 CURVE SMOOTH",
"295 380 OFFCURVE",
"245 381 OFFCURVE",
"229 383 CURVE"
);
},
{
closed = 1;
nodes = (
"296 789 LINE",
"388 789 LINE",
"502 915 LINE",
"464 938 LINE",
"342 855 LINE",
"223 938 LINE",
"180 914 LINE"
);
}
);
width = 692;
}
);
note = Rcaron;
unicode = 0158;
},
{
glyphname = rcaron;
lastChange = "2016-06-11 22:37:54 +0000";
layers = (
{
layerId = "70CB0793-CC2E-4F1A-A11D-52AA668529D4";
paths = (
{
closed = 1;
nodes = (
"55 0 LINE",
"368 0 LINE",
"368 42 LINE",
"204 55 LINE",
"229 33 LINE",
"229 435 LINE",
"259 454 OFFCURVE",
"291 469 OFFCURVE",
"344 469 CURVE SMOOTH",
"389 469 OFFCURVE",
"410 461 OFFCURVE",
"431 453 CURVE",
"431 553 LINE",
"424 555 OFFCURVE",
"404 556 OFFCURVE",
"383 556 CURVE SMOOTH",
"323 556 OFFCURVE",
"240 508 OFFCURVE",
"216 471 CURVE",
"216 546 LINE",
"193 556 LINE",
"64 518 LINE",
"64 487 LINE",
"134 449 LINE",
"134 33 LINE",
"171 57 LINE",
"55 42 LINE"
);
},
{
closed = 1;
nodes = (
"238 652 LINE",
"331 652 LINE",
"459 844 LINE",
"422 867 LINE",
"285 736 LINE",
"147 866 LINE",
"105 844 LINE"
);
}
);
width = 450;
}
);
note = rcaron;
unicode = 0159;
},
{
glyphname = Scaron;
lastChange = "2016-06-11 22:37:54 +0000";
layers = (
{
layerId = "70CB0793-CC2E-4F1A-A11D-52AA668529D4";
paths = (
{
closed = 1;
nodes = (
"429 -11 OFFCURVE",
"547 48 OFFCURVE",
"547 194 CURVE SMOOTH",
"547 308 OFFCURVE",
"433 369 OFFCURVE",
"329 425 CURVE SMOOTH",
"244 471 OFFCURVE",
"166 518 OFFCURVE",
"166 593 CURVE SMOOTH",
"166 688 OFFCURVE",
"252 717 OFFCURVE",
"305 717 CURVE SMOOTH",
"352 717 OFFCURVE",
"398 707 OFFCURVE",
"421 686 CURVE",
"459 592 LINE",
"501 592 LINE",
"501 728 LINE",
"472 745 OFFCURVE",
"408 765 OFFCURVE",
"312 765 CURVE SMOOTH",
"215 765 OFFCURVE",
"77 714 OFFCURVE",
"77 577 CURVE SMOOTH",
"77 468 OFFCURVE",
"179 407 OFFCURVE",
"278 352 CURVE SMOOTH",
"370 301 OFFCURVE",
"457 250 OFFCURVE",
"457 167 CURVE SMOOTH",
"457 76 OFFCURVE",
"379 38 OFFCURVE",
"308 38 CURVE SMOOTH",
"250 38 OFFCURVE",
"185 49 OFFCURVE",
"146 90 CURVE",
"115 187 LINE",
"72 187 LINE",
"72 30 LINE",
"100 13 OFFCURVE",
"198 -11 OFFCURVE",
"295 -11 CURVE SMOOTH"
);
},
{
closed = 1;
nodes = (
"268 789 LINE",
"360 789 LINE",
"474 915 LINE",
"436 938 LINE",
"314 855 LINE",
"195 938 LINE",
"152 914 LINE"
);
}
);
width = 600;
}
);
note = Scaron;
unicode = 0160;
},
{
glyphname = scaron;
lastChange = "2016-06-11 22:37:54 +0000";
layers = (
{
layerId = "70CB0793-CC2E-4F1A-A11D-52AA668529D4";
paths = (
{
closed = 1;
nodes = (
"369 -12 OFFCURVE",
"463 45 OFFCURVE",
"463 155 CURVE SMOOTH",
"463 246 OFFCURVE",
"382 282 OFFCURVE",
"310 315 CURVE SMOOTH",
"242 349 OFFCURVE",
"172 373 OFFCURVE",
"174 432 CURVE SMOOTH",
"175 490 OFFCURVE",
"222 514 OFFCURVE",
"284 514 CURVE SMOOTH",
"327 514 OFFCURVE",
"350 498 OFFCURVE",
"368 479 CURVE",
"389 424 LINE",
"431 424 LINE",
"431 529 LINE",
"402 546 OFFCURVE",
"343 564 OFFCURVE",
"278 562 CURVE SMOOTH",
"191 560 OFFCURVE",
"85 516 OFFCURVE",
"83 415 CURVE SMOOTH",
"82 328 OFFCURVE",
"158 282 OFFCURVE",
"235 245 CURVE SMOOTH",
"304 212 OFFCURVE",
"374 192 OFFCURVE",
"374 133 CURVE SMOOTH",
"374 69 OFFCURVE",
"322 38 OFFCURVE",
"249 41 CURVE SMOOTH",
"204 43 OFFCURVE",
"175 54 OFFCURVE",
"142 82 CURVE",
"123 142 LINE",
"80 142 LINE",
"80 30 LINE",
"129 3 OFFCURVE",
"191 -12 OFFCURVE",
"250 -12 CURVE SMOOTH"
);
},
{
closed = 1;
nodes = (
"209 652 LINE",
"301 652 LINE",
"430 844 LINE",
"393 867 LINE",
"255 736 LINE",
"118 866 LINE",
"76 844 LINE"
);
}
);
width = 497;
}
);
note = scaron;
unicode = 0161;
},
{
glyphname = Ydieresis;
lastChange = "2016-06-11 22:37:54 +0000";
layers = (
{
layerId = "70CB0793-CC2E-4F1A-A11D-52AA668529D4";
paths = (
{
closed = 1;
nodes = (
"196 0 LINE",
"496 0 LINE",
"496 42 LINE",
"368 60 LINE",
"391 40 LINE",
"391 335 LINE",
"371 271 LINE",
"608 731 LINE",
"562 692 LINE",
"654 710 LINE",
"654 758 LINE",
"429 758 LINE",
"429 710 LINE",
"531 699 LINE",
"530 737 LINE",
"372 414 LINE",
"340 341 LINE",
"360 341 LINE",
"326 413 LINE",
"153 735 LINE",
"143 699 LINE",
"246 710 LINE",
"246 758 LINE",
"6 758 LINE",
"6 710 LINE",
"96 697 LINE",
"40 738 LINE",
"317 277 LINE",
"296 335 LINE",
"296 39 LINE",
"319 60 LINE",
"196 42 LINE"
);
},
{
closed = 1;
nodes = (
"263 806 OFFCURVE",
"299 834 OFFCURVE",
"299 877 CURVE SMOOTH",
"299 910 OFFCURVE",
"280 938 OFFCURVE",
"237 938 CURVE SMOOTH",
"202 938 OFFCURVE",
"165 907 OFFCURVE",
"165 866 CURVE SMOOTH",
"165 828 OFFCURVE",
"194 806 OFFCURVE",
"226 806 CURVE SMOOTH"
);
},
{
closed = 1;
nodes = (
"491 806 OFFCURVE",
"527 834 OFFCURVE",
"527 877 CURVE SMOOTH",
"527 910 OFFCURVE",
"508 938 OFFCURVE",
"465 938 CURVE SMOOTH",
"430 938 OFFCURVE",
"392 907 OFFCURVE",
"392 866 CURVE SMOOTH",
"392 828 OFFCURVE",
"422 806 OFFCURVE",
"454 806 CURVE SMOOTH"
);
}
);
width = 660;
}
);
note = Ydieresis;
unicode = 0178;
},
{
glyphname = Zacute;
lastChange = "2016-06-11 22:37:54 +0000";
layers = (
{
layerId = "70CB0793-CC2E-4F1A-A11D-52AA668529D4";
paths = (
{
closed = 1;
nodes = (
"58 0 LINE",
"600 0 LINE",
"635 186 LINE",
"586 197 LINE",
"523 73 LINE",
"157 54 LINE",
"205 113 LINE",
"626 716 LINE",
"612 758 LINE",
"88 758 LINE",
"73 592 LINE",
"125 583 LINE",
"171 694 LINE",
"519 705 LINE",
"469 646 LINE",
"45 43 LINE"
);
},
{
closed = 1;
nodes = (
"355 785 LINE",
"416 796 OFFCURVE",
"489 826 OFFCURVE",
"550 865 CURVE",
"479 938 LINE",
"330 811 LINE"
);
}
);
width = 660;
}
);
note = Zacute;
unicode = 0179;
},
